<mxfile host="app.diagrams.net" agent="Mozilla/5.0 (Windows NT 10.0; Win64; x64) AppleWebKit/537.36 (KHTML, like Gecko) Chrome/127.0.0.0 Safari/537.36 Edg/127.0.0.0" modified="2024-08-08T10:43:00.384Z" version="23.0.2" etag="TnCUpQWbRiA_ViA7DbDA" type="device">
  <diagram name="第 1 页" id="ojPsMLTpGH-ytrxbozEN">
    <mxGraphModel dx="9821" dy="2971" grid="1" gridSize="10" guides="1" tooltips="1" connect="1" arrows="1" fold="1" page="1" pageScale="1" pageWidth="2484" pageHeight="850" math="1" shadow="0">
      <root>
        <mxCell id="0" />
        <mxCell id="1" parent="0" />
        <mxCell id="wu85P2VpSHijpUglrD6K-595" value="" style="ellipse;shape=cloud;whiteSpace=wrap;html=1;fillColor=#fff2cc;strokeColor=#d6b656;" parent="1" vertex="1">
          <mxGeometry x="-5175" y="-987.8699999999999" width="170" height="60" as="geometry" />
        </mxCell>
        <mxCell id="wu85P2VpSHijpUglrD6K-390" value="" style="rounded=1;whiteSpace=wrap;html=1;fillColor=none;fontSize=26;" parent="1" vertex="1">
          <mxGeometry x="-6665" y="-1039.87" width="810" height="130" as="geometry" />
        </mxCell>
        <mxCell id="wu85P2VpSHijpUglrD6K-439" value="" style="rounded=0;whiteSpace=wrap;html=1;fillColor=#F3E6FA;strokeColor=#9673a6;fontSize=26;" parent="1" vertex="1">
          <mxGeometry x="-6421.5" y="-1557.87" width="300" height="60" as="geometry" />
        </mxCell>
        <mxCell id="wu85P2VpSHijpUglrD6K-391" value="" style="rounded=1;whiteSpace=wrap;html=1;fillColor=none;dashed=1;strokeColor=default;dashPattern=8 8;" parent="1" vertex="1">
          <mxGeometry x="-6732" y="-1646.5" width="1747" height="778.63" as="geometry" />
        </mxCell>
        <mxCell id="wu85P2VpSHijpUglrD6K-583" style="edgeStyle=orthogonalEdgeStyle;rounded=0;orthogonalLoop=1;jettySize=auto;html=1;exitX=0;exitY=0.75;exitDx=0;exitDy=0;entryX=0.5;entryY=1;entryDx=0;entryDy=0;" parent="1" source="wu85P2VpSHijpUglrD6K-419" target="wu85P2VpSHijpUglrD6K-423" edge="1">
          <mxGeometry relative="1" as="geometry">
            <Array as="points">
              <mxPoint x="-6481" y="-1357.87" />
              <mxPoint x="-6561" y="-1357.87" />
            </Array>
          </mxGeometry>
        </mxCell>
        <mxCell id="wu85P2VpSHijpUglrD6K-419" value="" style="rounded=1;whiteSpace=wrap;html=1;fillColor=none;fontSize=26;" parent="1" vertex="1">
          <mxGeometry x="-6481" y="-1447.8711730708737" width="418" height="100" as="geometry" />
        </mxCell>
        <mxCell id="wu85P2VpSHijpUglrD6K-494" value="&lt;p style=&quot;line-height: 140%;&quot;&gt;&lt;font style=&quot;font-size: 28px;&quot;&gt;&lt;span style=&quot;background-color: rgb(213, 232, 212);&quot;&gt;### Instruction: Based on students&#39;s learning history: &lt;/span&gt;[&lt;/font&gt;&lt;span style=&quot;background-color: rgb(153, 204, 255);&quot;&gt;&lt;span style=&quot;font-family: 宋体;&quot;&gt;&lt;font size=&quot;1&quot; style=&quot;&quot; face=&quot;Calibri&quot;&gt;&lt;b style=&quot;&quot;&gt;&lt;i style=&quot;font-size: 30px;&quot;&gt;ID&lt;/i&gt;&lt;/b&gt;&lt;/font&gt;&lt;/span&gt;&lt;sub style=&quot;&quot;&gt;&lt;span style=&quot;font-family: 宋体; vertical-align: sub;&quot;&gt;&lt;font style=&quot;font-size: 25px;&quot; face=&quot;Calibri&quot;&gt;learning history&lt;/font&gt;&lt;/span&gt;&lt;/sub&gt;&lt;/span&gt;&lt;font style=&quot;&quot;&gt;&lt;span style=&quot;font-size: 28px;&quot;&gt;],&amp;nbsp; &lt;span style=&quot;background-color: rgb(213, 232, 212);&quot;&gt;&amp;nbsp;&lt;/span&gt;&lt;/span&gt;&lt;span style=&quot;background-color: rgb(213, 232, 212);&quot;&gt;&lt;span style=&quot;font-size: 28px;&quot;&gt;learning targets:&lt;/span&gt; &lt;/span&gt;&lt;span style=&quot;font-size: 28px;&quot;&gt;[&amp;nbsp;&lt;/span&gt;&lt;span style=&quot;background-color: rgb(248, 206, 204);&quot;&gt;&lt;span style=&quot;font-family: 宋体;&quot;&gt;&lt;font size=&quot;1&quot; style=&quot;&quot; face=&quot;Calibri&quot;&gt;&lt;b style=&quot;&quot;&gt;&lt;i style=&quot;font-size: 31px;&quot;&gt;ID&lt;/i&gt;&lt;/b&gt;&lt;/font&gt;&lt;/span&gt;&lt;sub style=&quot;&quot;&gt;&lt;span style=&quot;font-family: 宋体; vertical-align: sub;&quot;&gt;&lt;font style=&quot;font-size: 25px;&quot; face=&quot;Calibri&quot;&gt;targets&lt;/font&gt;&lt;/span&gt;&lt;/sub&gt;&lt;/span&gt;&lt;span style=&quot;font-size: 28px;&quot;&gt;&amp;nbsp;] &lt;/span&gt;&lt;span style=&quot;font-size: 28px;&quot;&gt;&lt;span style=&quot;background-color: rgb(213, 232, 212);&quot;&gt;and knowledge concepts:&lt;/span&gt; &lt;/span&gt;&lt;span style=&quot;font-size: 28px;&quot;&gt;[&lt;/span&gt;&lt;span style=&quot;background-color: rgb(255, 229, 153);&quot;&gt;&lt;span style=&quot;font-family: 宋体;&quot;&gt;&lt;font size=&quot;1&quot; style=&quot;&quot; face=&quot;Calibri&quot;&gt;&lt;b style=&quot;&quot;&gt;&lt;i style=&quot;font-size: 30px;&quot;&gt;ID&lt;/i&gt;&lt;/b&gt;&lt;/font&gt;&lt;/span&gt;&lt;sub style=&quot;&quot;&gt;&lt;span style=&quot;font-family: 宋体; vertical-align: sub;&quot;&gt;&lt;font style=&quot;font-size: 24px;&quot; face=&quot;Calibri&quot;&gt;concepts&lt;/font&gt;&lt;/span&gt;&lt;/sub&gt;&lt;/span&gt;&lt;span style=&quot;font-size: 28px;&quot;&gt;]&lt;/span&gt;&lt;span style=&quot;font-size: 28px;&quot;&gt;.&amp;nbsp; &amp;nbsp;&lt;/span&gt;&lt;/font&gt;&lt;span style=&quot;font-size: 28px; background-color: rgb(213, 232, 212);&quot;&gt;Predict the next knowlege concept. ### Response:&lt;/span&gt;&lt;/p&gt;" style="text;html=1;align=left;verticalAlign=middle;whiteSpace=wrap;rounded=0;labelPosition=right;verticalLabelPosition=middle;fontSize=14;movable=1;resizable=1;rotatable=1;deletable=1;editable=1;locked=0;connectable=1;" parent="1" vertex="1">
          <mxGeometry x="-7450" y="-993.8699999999999" width="800" height="46" as="geometry" />
        </mxCell>
        <mxCell id="wu85P2VpSHijpUglrD6K-27" value="" style="rounded=1;whiteSpace=wrap;html=1;fillColor=none;dashed=1;strokeColor=default;dashPattern=8 8;" parent="1" vertex="1">
          <mxGeometry x="-7344.5" y="-1697.87" width="602" height="820" as="geometry" />
        </mxCell>
        <mxCell id="wu85P2VpSHijpUglrD6K-34" value="" style="rounded=1;whiteSpace=wrap;html=1;fillColor=none;container=0;" parent="1" vertex="1">
          <mxGeometry x="-7118.23" y="-1618.37" width="159.23" height="108.5" as="geometry" />
        </mxCell>
        <mxCell id="wu85P2VpSHijpUglrD6K-38" value="" style="shape=image;verticalLabelPosition=bottom;labelBackgroundColor=default;verticalAlign=top;aspect=fixed;imageAspect=0;image=data:image/svg+xml,PHN2ZyB4bWxuczp4bGluaz0iaHR0cDovL3d3dy53My5vcmcvMTk5OS94bGluayIgeG1sbnM9Imh0dHA6Ly93d3cudzMub3JnLzIwMDAvc3ZnIiBoZWlnaHQ9IjIwMCIgd2lkdGg9IjIwMC4xOTUzMTI1IiBkYXRhLXNwbS1hbmNob3ItaWQ9ImEzMTN4LnNlYXJjaF9pbmRleC4wLmk5LjRlMTIzYTgxYmZ5U09YIiB2ZXJzaW9uPSIxLjEiIHZpZXdCb3g9IjAgMCAxMDI1IDEwMjQiIGNsYXNzPSJpY29uIj48cGF0aCBjbGFzcz0ic2VsZWN0ZWQiIGRhdGEtc3BtLWFuY2hvci1pZD0iYTMxM3guc2VhcmNoX2luZGV4LjAuaTYuNGUxMjNhODFiZnlTT1giIGZpbGw9IiNmZmZmZmYiIGQ9Ik0xMDEwLjczNDgyIDQwMS44ODVjNTkuOTk0IDI2Ni4xMzQtMTA4LjM0IDUzMC43OTItMzc1Ljk4OCA1OTEuMTI4QzM2Ny4wOTM4MiAxMDUzLjM1MiAxMDEuNDg3ODIgODg2LjUxOCA0MS40OTE4MiA2MjAuMzgxLTE4LjUwMjE4IDM1NC4yNDcgMTU3LjYzNTgyIDg3LjgzIDQxNy40ODI4MiAyOS4yNTJjMjY3LjY0OS02MC4zMzcgNTMzLjI1NiAxMDYuNDk4IDU5My4yNTIgMzcyLjYzM3oiLz48cGF0aCBjbGFzcz0ic2VsZWN0ZWQiIGRhdGEtc3BtLWFuY2hvci1pZD0iYTMxM3guc2VhcmNoX2luZGV4LjAuaTguNGUxMjNhODFiZnlTT1giIGZpbGw9IiNmZmZmZmYiIGQ9Ik0xMDEwLjczNDgyIDQwMS44ODVjNy4xNjYgMzEuNjA4IDExLjI1NiA2My45MTIgMTIuMjQ0IDk2LjMyMiAwLjQ1NSAxNi4yMDcgMC4xOTkgMzIuNDM5LTAuODk2IDQ4LjYyOGE1MTIuMjczIDUxMi4yNzMgMCAwIDEtNS42MDQgNDguMzVjLTEwLjU3NCA2NC4xLTMzLjcxMSAxMjYuMjEzLTY3LjcyNyAxODIuMDIzLTMzLjk4NCA1NS44MTYtNzguODEzIDEwNS4zODMtMTMxLjc2NiAxNDQuODI0LTI2LjQ4MiAxOS42ODktNTQuODk2IDM2Ljk3NS04NC44NTkgNTEuMjcxYTUxNy41NTQgNTE3LjU1NCAwIDAgMS05My42NzQgMzQuMTU0Yy0zMi4zMDMgOC4zNjMtNjUuNTI5IDEzLjY4NC05OS4wNyAxNS42NjQtMzMuNTM4IDEuOTQ5LTY3LjM4NCAwLjY3LTEwMC44NDUtNC4wNTctMzMuNDQ5LTQuNzUyLTY2LjU1Mi0xMi43MTktOTguNTY4LTI0LjAzNWE1MDUuMDU0IDUwNS4wNTQgMCAwIDEtNDcuMTYzLTE5LjMxNiA1MDUuNTE4IDUwNS41MTggMCAwIDEtNDUuMS0yMy45NjNjLTU4LjU2OC0zNC45MTYtMTEwLjI5Mi04MS44NjctMTUwLjY4OC0xMzcuNC0yMC4yMjctMjcuNzM0LTM3LjU5Ny01Ny42MDItNTEuNzkxLTg4LjkxMmE1MTUuOTgxIDUxNS45ODEgMCAwIDEtMTguODY3LTQ3Ljk2OSA1MjUuODM2IDUyNS44MzYgMCAwIDEtMTMuOTIyLTQ5LjYwNUM0LjgyNTgyIDU5NC4zMDkgMC42MDk4MiA1NTkuOTMgMC4wNzk4MiA1MjUuNTA2Yy0wLjMwNS0xNy4yMDkgMC4zMjktMzQuNDI5IDEuODQtNTEuNTU4YTQ5MS45NyA0OTEuOTcgMCAwIDEgNy4xNC01MS4wMjljMTIuOTY4LTY3LjQ3MSAzOS44MTktMTMxLjg2NyA3Ny42NTEtMTg4LjUwOGE1MjQuMjQ4IDUyNC4yNDggMCAwIDEgNjQuNDY5LTc4LjgyYzIzLjkwOC0yNC4wNzYgNTAuMjAxLTQ1LjY3NiA3OC4yMTYtNjQuNTYzIDI4LjAxNS0xOC44OTkgNTcuOTE2LTM0Ljg1OCA4OC45NzktNDcuNzQ2YTQ5Ny4xNjkgNDk3LjE2OSAwIDAgMSA5Ni4yNjEtMjguODI5YzY1LjQ5OC0xMi42MzIgMTMzLjIxOC0xMi40IDE5Ny45MzcgMC42MiA2NC43NjYgMTIuOTE3IDEyNi41MjMgMzguNDkyIDE4MS4xNjggNzQuMzQyIDU0LjY2OCAzNS44MzUgMTAyLjIxMSA4Mi4wMjcgMTM5LjI1NiAxMzUuMzk1YTUxMi42MTYgNTEyLjYxNiAwIDAgMSAyNS44MDMgNDEuMjc0YzcuOTM2IDE0LjE1MiAxNS4xMjkgMjguNzA4IDIxLjY3IDQzLjU0MiA2LjUzMyAxNC44NDEgMTIuMjc5IDMwLjAxOCAxNy4zNSA0NS40MWE0OTkuMDQ4IDQ5OS4wNDggMCAwIDEgMTIuOTE1IDQ2Ljg0OXogbTAgMGE0OTguMjUyIDQ5OC4yNTIgMCAwIDAtMTMuMDU1LTQ2LjgwNGMtNS4xMDktMTUuMzc2LTExLjA1OS0zMC40NjgtMTcuNjk3LTQ1LjIzOS02LjYyOS0xNC43NzctMTQuMDg0LTI5LjE3OC0yMi4xOTctNDMuMTgxLTguMTA1LTE0LjAxMS0xNi45NTktMjcuNTc5LTI2LjQ2Ny00MC42Ni0zNy45OS01Mi4zNzItODYuNzE5LTk2LjY4OC0xNDEuOTI4LTEyOS42NDdhNDc2LjQyNSA0NzYuNDI1IDAgMCAwLTQyLjUxNi0yMi42MTMgNDc2LjQxIDQ3Ni40MSAwIDAgMC00NC40NTctMTguMjIzYy0zMC4xNzItMTAuNjg4LTYxLjM3My0xOC4xNzYtOTIuODgzLTIyLjY1Mi0zMS41Mi00LjQ2LTYzLjM5Ni01LjY0NS05NC45ODItMy44MDUtMzEuNjA3IDEuODgxLTYyLjg1NiA2Ljg5MS05My4zODMgMTQuODA1LTMwLjM0MyA3Ljg2OC01OS44NzUgMTguODU0LTg3LjkwMiAzMi41Ni0yOC4wNjQgMTMuNjc1LTU0LjYxMSAzMC4yMTEtNzkuMzU4IDQ4Ljk2LTQ5LjQ2NCAzNy41OC05MS4zNjYgODQuNDg5LTEyMy4zNjQgMTM3LjA0MS0zMi4wMTcgNTIuNTUtNTQuMDg3IDExMC44MjgtNjQuMzc3IDE3MC45MjZhNDc5LjE0MyA0NzkuMTQzIDAgMCAwLTUuNTIzIDQ1LjMyOCA0NzIuOTkgNDcyLjk5IDAgMCAwLTEuMDU5IDQ1LjU4M2MwLjgwOSAzMC4zODMgNC41ODIgNjAuNjY0IDExLjM0NCA5MC4zMTFhNDY2LjQ5NSA0NjYuNDk1IDAgMCAwIDEyLjIwNyA0NC4wMDRjNC43NTYgMTQuNDU5IDEwLjE5MiAyOC42OTMgMTYuMzQgNDIuNjE3IDEyLjI0NCAyNy44NzEgMjcuMjM1IDU0LjUzNyA0NC42NDQgNzkuNTc2IDM0LjgyMyA1MC4wNzQgNzkuNTIxIDkzLjQ3MyAxMzAuOTUyIDEyNy4xNTIgNTEuNDA1IDMzLjY5OSAxMDkuNTA4IDU3Ljc1NCAxNzAuNDMxIDY5Ljg5MyA2MC44OTYgMTIuMjM4IDEyNC41NDIgMTIuNDg0IDE4Ni4zNzEgMC41NjMgMzAuOTEtNS45NDMgNjEuMzQ2LTE0Ljg0IDkwLjY4OC0yNi43MTcgMjkuMzI0LTExLjkwNCA1Ny42MTktMjYuNjQ4IDg0LjE3LTQ0LjIyNyAyNi41NDctMTcuNTY4IDUxLjUxLTM3LjczNiA3NC4xNzgtNjAuMzQ0YTQ4MS4zNjggNDgxLjM2OCAwIDAgMCA2MS4wMjUtNzQuMjI5YzM1LjcxOS01My40NzUgNjAuNzA3LTExNC40MiA3Mi41NDMtMTc4LjAyOWE0NjUuOTg3IDQ2NS45ODcgMCAwIDAgNi40NTUtNDguMDg0YzEuMzIyLTE2LjEzMSAxLjg3My0zMi4zMzYgMS41Mi00OC41My0wLjM0Mi0xNi4xOS0xLjQ0MS0zMi4zNzUtMy40MjgtNDguNDU2YTQ5OC44ODIgNDk4Ljg4MiAwIDAgMC04LjI5Mi00Ny44Nzl6Ii8+PHBhdGggZmlsbD0iI0FCN0M2NCIgZD0iTTY3NS4wNjA4MiAxMzguMDUxYzAuMDQ3IDAgMC4wOSAwLjAwMyAwLjEzMyAwLjAwOSA2Ljc2IDAuOSA4LjI0IDM2LjI5LTExLjI3IDEwMS4wNiA5LjQwOCAzLjI1IDI0LjMxOCAxOS41NTEgMjcuMjcgMjUuNDQgMy4zMyA2LjY3IDYgMzMuNSA5IDM1LjVzMjggMjggMjggNDEtNyAzOSAwIDQ3IDIyIDIzIDIxLjUgNDMgNSA1MyA0IDU1LjUtMTkgMzQtMTkuNSA0MCAxNy4yNCAxNC41IDE5LjYxOSAyNy41YzIuMzgxIDEzIDAgMjUgMCAyNXM5LjM4MSAxMi41IDkuMzgxIDMwLjUtNi41IDEzLTQgMjYgMyA4MCA0IDkyIDAgMiAxMSAyMCAxMSAyNyA5IDMyYy0xLjc2MiA0LjQwNC0xMC4xMjEgMjAuNDQ3LTMxLjU2NiAyMC40NDctMi45IDAtNi4wMzktMC4yOTMtOS40MzQtMC45NDctOC42NTItMS42Ny0xNS4wOTQtMi4zNzEtMjAuMTc2LTIuMzczLTExLjY1NiAwLTE2LjE2NCAzLjY5My0yMy44MjQgNy44NzMtMS40OTQgMC44MTQtMy41NTMgMS4xNjgtNiAxLjE2OC0xNS41NjYgMC00Ni45MDgtMTQuMzA1LTQ5LjUtMTUuMTY4LTEuMDE4LTAuMzQtNS4xNTgtMC45MDgtMTAuNjM5LTAuOTA4LTEwLjY4OSAwLTI2LjQ4NCAyLjE2Mi0zNC4xOTEgMTIuNDA4LTEwLjQ1NSAxMy44ODUtMzEuMjA1IDI0Ljk2MS00NS40OCAyNC45NjEtMS42NiAwLTMuMjMtMC4xNDgtNC42ODktMC40NjEtMTMuMzkzLTIuODY5LTUuMjg1LTM4LjIyMS0yNS45OTgtMzguMjI1LTAuOTQxIDAtMS45MzggMC4wNzItMy4wMDIgMC4yMjUtMjQuNSAzLjUtMjEuNSAxNy0zNy41IDI2LTEyLjEwOCA2LjgxMS0yMS4zNTQgMTAuNzU4LTMxLjg1NCAxMC43NTgtMy4zNzQgMC02Ljg3Ny0wLjQwNi0xMC42NDYtMS4yNTgtMTUuNS0zLjUtNC0yNC41LTI2LTM3LTMuODg2LTIuMjA5LTcuNjAzLTMuMTUyLTExLjE0OC0zLjE1Mi0xNi41MjYtMC4wMDItMjkuMzgzIDIwLjUwNi0zOC44NTIgMjkuMTUyLTMuMTQ1IDIuODcxLTcuMzcxIDQuMDU1LTExLjk3MyA0LjA1NS0xMi4yMjkgMC0yNy4xMjUtOC4zNDgtMzEuNTI3LTE1LjU1NSAwIDAtMTctMjMtMTgtNTFzMTgtNDUgMTgtNDUtMTUuNTgtNC41LTE4LjA0LTExLTQuOTYtMTcuNS0yLjk2LTIzIDcuMjctNyAxMC4xNC05YzIuODYtMiAwLTE3IDAtMTdzLTUuODctMjkuNSAwLTQyLjVjNS44Ni0xMyAxNy4zNi0xNyAxNy44Ni0yMy41cy05LTI0LTctMjkgMTAtMTAuNSAxMS41LTE2LjUtMTEtMjQtMTEtMjcuNS0xLTIyLjUgOS0yOSAxNC0xMi41IDE0LTEyLjUtMTEuNS0xMi01LjUtMjguNSAyMC0zMC41IDIzLjUtMzYgMTItMTAuMjUgMTEuNS0xNWMtMC4zMy0zLjE0LTEzLjEyLTE0LjgtMjEuMzEtMjkuNDItNC4yLTcuNS03LjItMTUuNzcxLTYuNjktMjQuMDggMS41LTI0LjUgMTUtNjIuODMgMzEtODEuNXM3MS00MCA3Ny41LTQxLjVjMC42NDQtMC4xNDggMS4zNzEtMC4yMTUgMi4xNjItMC4yMTUgMS44NjEgMCA0LjA3NSAwLjM2MyA2LjM3OCAwLjg1NCAyLjI3LTE2LjI3IDguMTItNTIuMzE5IDE1LjQ2LTU0LjY0YTMuNTE4IDMuNTE4IDAgMCAxIDEuMDU1LTAuMTU3YzcuNjA0IDAgMjEuNTA2IDIyLjE1OCAyNy43NTUgNDEuOTA3IDMuMjkxLTEuOTggNS42NzEtMy44MiA2LjE5MS01LjI1IDAuNzczLTIuMTI4IDUuODY1LTIuODU5IDEyLjA4Ni0yLjg1OSA5Ljg1NSAwIDIyLjU1MSAxLjgzNiAyNS40MTQgMi44NTkgNC4zMTEgMS41NDEgMzMuNjE3IDE4LjcwNSAzOS4xNDMgMTguNzA1IDAuNDYxIDAgMC43NTQtMC4xMTggMC44NTctMC4zNzUgMC40MTgtMS4wNDYgMi44MDktMS40MzUgNS45NzUtMS40MzUgNi45MTYgMCAxNy41MzEgMS44NTUgMTkuMzU1IDIuNzc0IDAuMzY5IDAuMTggMS4zMyAwLjg0IDIuNzUgMS44NCAxNi4xODgtMjMuODYgNTEuNjI5LTc1LjAxNSA1Ny43ODUtNzUuMDE3bTAtMTEuOTk5aC0wLjAwMmMtNi40ODQgMC4wMDEtMTEuMzAxIDQuMjI2LTE4LjQ0OSAxMi41NDUtNC4yNjIgNC45NjEtOS43NTggMTEuOTg3LTE2LjMzMiAyMC44ODUtOS4zNjMgMTIuNjczLTE5LjQzOCAyNy4xMTMtMjcuNTA2IDM4Ljg4Ny0xLjE4Ni0wLjIzNS0yLjU2OC0wLjQ4LTQuMTg0LTAuNzMtMi44NjEtMC40NDEtOC40MDgtMS4xODMtMTMuNDItMS4xODMtMS41OTIgMC00LjczIDAtNy45NzEgMC45NjctNS41NjMtMi4zODctMTYuMjc1LTguMTEyLTIxLjM0Mi0xMC44MjEtNy4xNjYtMy44MjktMTAuNDI4LTUuNTU2LTEyLjYyMy02LjM0LTUuMDIzLTEuNzk3LTE5LjYxMy0zLjU2MS0yOS40NTMtMy41NjEtMi45NzUgMC03Ljk4OCAwLTEyLjcwMyAxLjQzNi0yLjYzOS01LjcyOS01LjY3MS0xMS4yODgtOC44ODMtMTYuMjI3LTguNDMyLTEyLjk2OC0xNi4xOTktMTkuMDA3LTI0LjQ0NS0xOS4wMDctMS41OTIgMC0zLjE2IDAuMjM5LTQuNjU4IDAuNzExLTguMjUyIDIuNjA4LTEzLjA0OCAxMC45NTItMTcuNzEgMzAuNzktMS43NTUgNy40NjctMy4yMzMgMTUuNTU5LTQuMzk3IDIyLjc2My0wLjMzNiAwLjA2LTAuNjY4IDAuMTI3LTAuOTk2IDAuMjAzLTYuNDk2IDEuNDk5LTY1LjAxOCAyMy4zNDQtODMuOTA0IDQ1LjM4Mi04LjQyOCA5LjgzNC0xNi42MjMgMjQuODE4LTIzLjA3NSA0Mi4xOTUtNi4wNTEgMTYuMjkzLTkuOTgzIDMzLjE5Ny0xMC43OTEgNDYuMzgtMC41ODkgOS41OTEgMi4xNyAxOS45MTMgOC4xOTggMzAuNjc3IDUuMjE1IDkuMzEgMTEuNzkxIDE3LjE3NiAxNi41OTIgMjIuOTJsMC44MDIgMC45NTljLTIuNDIxIDIuMzExLTUuMTM0IDQuOTI5LTcuMjM4IDguMjM1LTAuNTU5IDAuODc4LTIuMzA2IDMuMDMzLTMuODQ3IDQuOTM2LTYuMjU1IDcuNzItMTUuNzA5IDE5LjM4Ni0yMC44MDcgMzMuNDA2LTQuNDIyIDEyLjE2MS0yLjIyNSAyMy4xNzEgMS41NTggMzEuMTM2YTU2LjM2NiA1Ni4zNjYgMCAwIDEtNS4zMiAzLjkwM2MtMTQuODkgOS42NzktMTQuNTczIDMxLjI1MS0xNC40NjkgMzguMzQgMC4wMDUgMC4yOTIgMC4wMDkgMC41MzQgMC4wMDkgMC43MjIgMCA0LjMzOSAxLjk0MyA4IDUuNDcgMTQuNjQ3IDEuNDM1IDIuNzAzIDQuMTYxIDcuODQyIDUuMjUzIDEwLjgwMy0wLjgzNiAxLjExOS0yLjE1NiAyLjU5Ni0zLjA0OSAzLjU5Ni0yLjY0NSAyLjk1OS01LjY0MyA2LjMxNC03LjMxNSAxMC40OTgtMi43NTkgNi44OTYgMC4wMTggMTQuNjg2IDMuMjMyIDIzLjcwNyAwLjc4IDIuMTg5IDEuOTU0IDUuNDg0IDIuNTU4IDcuNjc2LTAuNjU4IDAuNjU0LTEuNDc5IDEuNDItMi4xNTYgMi4wNTMtNC4wNjYgMy43OTctMTAuMjExIDkuNTM1LTE0LjI5MiAxOC41OS03LjA2NyAxNS42NDgtMS45NzIgNDQuMDE4LTAuODQyIDQ5LjcxNSAwLjQzOCAyLjMyNCAwLjc4NiA1LjAxIDAuOTU0IDcuMTMxLTMuNTkzIDIuMjEzLTguMTg2IDUuODcxLTEwLjU5IDEyLjQ4NC00LjEyOCAxMS4zNTIgMS43ODcgMjguMTA1IDMuMDE0IDMxLjM1IDEuNjU2IDQuMzc1IDUuMDUgOC4xNTggMTAuMzA4IDExLjQ2MS01LjgyMSA5LjM3My0xMS42NiAyMy4yNTgtMTEuMDM2IDQwLjcxOSAxLjA1NSAyOS41MzUgMTcuNDc2IDUzLjY4OCAyMC4wMzQgNTcuMjc5IDcuMjY5IDExLjM0NiAyNi4xMDEgMjAuODQ4IDQxLjQ4NSAyMC44NDggNy45NzMgMCAxNC45MS0yLjQ4OCAyMC4wNjMtNy4xOTMgMi43OTMtMi41NDkgNS41NjMtNS42NiA4LjQ5Ni04Ljk1MyA2LjQxMi03LjIwMSAxNS4xOTQtMTcuMDYzIDIyLjI2NC0xNy4wNjEgMS42MzYgMCAzLjM0MyAwLjUxOCA1LjIyMiAxLjU4NiA3LjIxMSA0LjA5OCA4LjQwMiA4Ljk1NSAxMC4wNTIgMTUuNjgyIDEuNzcxIDcuMjI1IDQuNzM3IDE5LjMxNiAxOS4yMzMgMjIuNTkgNC42MjkgMS4wNDUgOC45NzcgMS41NTMgMTMuMjg5IDEuNTUzIDEzLjIxNSAwIDI0LjIzNi00LjcwNSAzNy43MzYtMTIuMjk5IDguMjUyLTQuNjQzIDEyLjY5Ni0xMC4xOTEgMTYuMjY3LTE0LjY0OCA0LjUxMy01LjYzNyA2Ljc3OS04LjQ2NSAxNy4wNDgtOS45MzJhOS41MDggOS41MDggMCAwIDEgMS4zMDMtMC4xMDRjMC40NTUgMCAwLjY5MyAwLjA0OSAwLjc3OSAwLjA3MiAxLjYwMiAxLjMyNCAzLjI1NiA4LjUyMSA0LjA1NSAxMS45OTYgMS4wMzMgNC40ODQgMi4xIDkuMTIzIDQuMDE0IDEzLjI4OSAzLjk4NiA4LjY3NiAxMC4xNiAxMS42NDEgMTQuNjM3IDEyLjYgMi4yNTYgMC40ODQgNC42ODIgMC43MyA3LjIwNSAwLjczIDE4LjMyIDAgNDIuNTEtMTMuMDY2IDU1LjA2Ni0yOS43NDYgMy41OTQtNC43NzUgMTIuNzkxLTcuNjI1IDI0LjYwNC03LjYyNSAzLjU5IDAgNi4xMzUgMC4yNzkgNy4xNjIgMC40MzIgMC41MTYgMC4yMTEgMS4yNzMgMC41MjcgMS45NjkgMC44MTggMTYuNTA2IDYuOTAyIDM3LjIyMSAxNC44MjYgNTEuMDEgMTQuODI2IDQuNjU0IDAgOC40OTYtMC44NjEgMTEuNzQ2LTIuNjMzYTE5Mi42MSAxOTIuNjEgMCAwIDAgMy4zNTQtMS44ODNjNS40NDctMy4xMDcgNy45MzQtNC41MjUgMTQuNzI1LTQuNTI1IDQuNTM1IDAgMTAuMzkxIDAuNzA1IDE3LjkwMiAyLjE1NiA0LjAwOCAwLjc3MyA3Ljk0NyAxLjE2NCAxMS43MDcgMS4xNjQgMjMuMjU4IDAgMzcuNTQzLTE1LjA3OCA0Mi43MDctMjcuOTkgNC4zNzMtMTAuOTMyIDEuMjI3LTI0LjUwNC05LjkwMi00Mi43MTUtNC4yODMtNy4wMS03LjE3OC0xMC41MzctOS4xLTEyLjU3NmwtMC4xMjktMS41NTEtMC4wNTEtMC42MTFjLTAuMzM0LTMuOTktMC42NDMtMTUuOTg2LTAuOTY5LTI4LjY4Ni0wLjgwNy0zMS4zMzgtMS41NTUtNTUuOTktMy4yMDctNjQuNTg0LTAuMzAzLTEuNTc4LTAuMzUyLTIuNDAyLTAuMzU1LTIuNzQ0IDAuMS0wLjIxMSAwLjI0OC0wLjUxMiAwLjM2Ny0wLjc0OCAyLjEyNy00LjI1NiA0LjIwNS05LjMyNCA0LjIwNS0yMC4yNDIgMC0xNS4yMDEtNS4zNDQtMjcuMDMxLTguODY5LTMzLjE3OCAwLjYxMy01LjQ0NyAxLjEtMTQuNjA5LTAuNzA3LTI0LjQ4NC0yLjA0NS0xMS4xNjYtMTAuMjA5LTE4LjkxNi0xNi4xNy0yNC41NzQtMC42ODItMC42NDYtMS40NzUtMS40LTIuMTkzLTIuMTA3IDMuMDY0LTYuOTk2IDEwLjUzNS0yMC44MjIgMTMuMjk3LTI1LjkzNSAyLjk4NC01LjUyMSAzLjc4NS03LjAxOCA0LjI4My04LjI2NSAxLjUyMy0zLjgwNyAxLjE5NS02Ljc3Ny0wLjM4MS0yMS4wNTQtMS4yODMtMTEuNjI5LTMuMDQxLTI3LjU1NS0yLjc2NC0zOC42MDQgMC41NzgtMjMuMTM1LTE0LjU2OC00MC4xMDQtMjIuNzA3LTQ5LjIyLTAuNDkyLTAuNTUxLTAuOTYxLTEuMDc2LTEuNC0xLjU3NC0xLjM1NS0zLjc4NiAwLjI5NS0xNi42MzkgMS4wOTgtMjIuODg5IDAuNzc2LTYuMDU4IDEuNTEtMTEuNzc5IDEuNTEtMTYuNjE5IDAtNS4zNzUtMS42MDQtMTQuNTQ4LTE1LjQ2NS0zMi4wNy00LjQzNC01LjYwNC0xMC42MzktMTIuNTM3LTE0Ljg5MS0xNi40NTUtMC43NTItMi43ODctMS43NjYtOC4yMTctMi40NzktMTIuMDI5LTEuOTM2LTEwLjM2NS0zLjI2Ni0xNi45NzEtNS40My0yMS4zMDYtMi43NjQtNS41MTYtMTMuMDE2LTE4LjAxMy0yMy44MzItMjUuODAxIDYuNTI5LTIzLjA2MiAxMC45MDItNDQuMjExIDEyLjcyNS02MS42MiAyLjk4OC0yOC41OC0xLjkyMi0zNi4xOTEtMy41MzUtMzguNjkzLTIuNTEyLTMuODk1LTYuMjQ0LTYuMzUyLTEwLjUxLTYuOTJhMTIuODI0IDEyLjgyNCAwIDAgMC0xLjcxNi0wLjExNHoiLz48cGF0aCBjbGFzcz0ic2VsZWN0ZWQiIGRhdGEtc3BtLWFuY2hvci1pZD0iYTMxM3guc2VhcmNoX2luZGV4LjAuaTUuNGUxMjNhODFiZnlTT1giIGZpbGw9IiNmZmZmZmYiIGQ9Ik03ODMuMTkzODIgNzc5LjU2MWMtMiA1LTEyLjUgMjUtNDEgMTkuNXMtMzMtMC41LTQ0IDUuNS01Mi41LTEzLTU1LjUtMTQtMzMuMTctNC00NC44MyAxMS41Yy0xMS42NyAxNS41LTM2LjE3IDI3LjUtNTAuMTcgMjQuNXMtNC41LTQxLjUtMjktMzgtMjEuNSAxNy0zNy41IDI2LTI3IDEzLTQyLjUgOS41LTQtMjQuNS0yNi0zNy0zOC41IDE1LjUtNTAgMjYtMzcuNDQtMS41OC00My41LTExLjVjMCAwLTE3LTIzLTE4LTUxczE4LTQ1IDE4LTQ1LTE1LjU4LTQuNS0xOC4wNC0xMS00Ljk2LTE3LjUtMi45Ni0yMyA3LjI3LTcgMTAuMTQtOWMyLjg2LTIgMC0xNyAwLTE3cy01Ljg3LTI5LjUgMC00Mi41YzUuODYtMTMgMTcuMzYtMTcgMTcuODYtMjMuNXMtOS0yNC03LTI5IDEwLTEwLjUgMTEuNS0xNi41LTExLTI0LTExLTI3LjUtMS0yMi41IDktMjkgMTQtMTIuNSAxNC0xMi41IDEuNzUgNi41IDIgMTJjMC4wNSAxLjI1IDEuNjggMy44MyA0LjM2IDcuMTkgMCA3LjIzOSAwLjUyOSAxNy4wNiAwLjE0IDE5LjgxLTAuNSAzLjUgOCAxMCAxMi41IDE0LjA4MXM3LjUgMTAuNDIgOCAxMy40MiAxOCAxMSAyMiAxMyAyMiAxNi41IDM2IDI0IDQ4LTkuNSA0OC05LjUgMzAtNi41IDMwLjUtMTIgMjUtNiAzMi05IDEyLTEwLjUgMTIuNS0xNi41IDEyLjUtMTEuNSAxNC0xMC40M2MxLjUgMS4wODEgMTkuNS0zLjU3IDIwLTkuNTdzMTMtMTcgMTMuMTctMTdjMC4xNiAwIDYuODMtMTMgNi44My0xNi41czQuNS0xNyA4LjUtMjMuNSA5LjUtMTAgOC0xMC41LTEtMTgtMS0yMy0wLjUtMTItMi41LTE0IDctMTcgNy41LTIxLjUtMy05LjUtOC41LTEwLjg5Yy01LjUtMS40LTYtOC4xMS03LjUtMTEuNjFzLTEuNS0xNC0zLTE2LjUtMjQtMi41LTMyIDIuODFjLTggNS4zMTEtMTYtOC4zMS0xNy0xMS44MXMtMTYuNS05LjUtMTkuNS03LTE5IDIuNS0xOSAyLjUtMTktNi41LTI1LTQuNS0xMSA1LjUtMTIuNSA0LjUtMTEgMC41LTE1LjUgNC0xNSA1LjUtMTcuNSA1LjUtMjMtMS0yNyAwLTEzLjY3IDcuNjctMjAgNi05LjY3IDQuMzMtMTEgNi0yMC4zMyA3LjY3LTI1LjY3IDYuNjdjLTIuODktMC41NC04LjgyIDIuMjUtMTMuNjQgNC45MS00LjItNy41LTcuMi0xNS43NzEtNi42OS0yNC4wOCAxLjUtMjQuNSAxNS02Mi44MyAzMS04MS41czcxLTQwIDc3LjUtNDEuNWMyLjE2LTAuNSA1LjI2LTAuMDYgOC41NCAwLjY0IDYuNiAxLjQxIDEzLjk2IDMuODYgMTUuOTYgMS44NiAyLjIyLTIuMjIgMTguOTUtOS4wOSAyOC4zMS0xNC43NSAzLjI5MS0xLjk4IDUuNjcxLTMuODIgNi4xOTEtNS4yNSAyLTUuNSAzMi44My0xLjY3IDM3LjUgMHMzOC42NyAyMS42NyA0MCAxOC4zM2MxLjMzLTMuMzMgMjIuNjcgMCAyNS4zMyAxLjM0IDAuMzY5IDAuMTggMS4zMyAwLjg0IDIuNzUgMS44NCA4LjkzIDYuMjggMzUuNzc5IDI2LjA3IDQzLjI1IDI1LjQ5IDEuMDEtMC4wOCAyLjE1IDAuMTIgMy4zODkgMC41NmgwLjAxMmM5LjQwOCAzLjI1IDI0LjMxOCAxOS41NTEgMjcuMjcgMjUuNDQgMy4zMyA2LjY3IDYgMzMuNSA5IDM1LjVzMjggMjggMjggNDEtNyAzOSAwIDQ3IDIyIDIzIDIxLjUgNDMgNSA1MyA0IDU1LjUtMTkgMzQtMTkuNSA0MCAxNy4yNCAxNC41IDE5LjYxOSAyNy41YzIuMzgxIDEzIDAgMjUgMCAyNXM5LjM4MSAxMi41IDkuMzgxIDMwLjUtNi41IDEzLTQgMjYgMyA4MCA0IDkyIDAgMiAxMSAyMFM3ODUuMTkzODIgNzc0LjU2MSA3ODMuMTkzODIgNzc5LjU2MXoiLz48cGF0aCBmaWxsPSIjRThEN0MwIiBkPSJNNjI1LjE5MzgyIDM3NS41NmMtMC41IDQuNS05LjUgMTkuNS03LjUgMjEuNXMyLjUgOSAyLjUgMTQtMC41IDIyLjUgMSAyMy00IDQtOCAxMC41LTguNSAyMC04LjUgMjMuNS02LjY3IDE2LjUtNi44MyAxNi41Yy0wLjE3IDAtMTIuNjcgMTEtMTMuMTcgMTdzLTE4LjUgMTAuNjUxLTIwIDkuNTdjLTEuNS0xLjA3LTEzLjUgNC40My0xNCAxMC40M3MtNS41IDEzLjUtMTIuNSAxNi41LTMxLjUgMy41LTMyIDktMzAuNSAxMi0zMC41IDEyLTM0IDE3LTQ4IDkuNS0zMi0yMi0zNi0yNC0yMS41LTEwLTIyLTEzLTMuNS05LjM0LTgtMTMuNDItMTMtMTAuNTgxLTEyLjUtMTQuMDgxYzAuMzktMi43NS0wLjE0LTEyLjU3LTAuMTQtMTkuODEgMy41NSA0LjQzOSA4LjkzIDEwLjIzOSAxNC45NDkgMTYuMTMgMi41NjEgMi41MSA1LjIzIDUuMDI5IDcuOTMxIDcuNDc5IDcuMTg5IDYuNTA5IDE0LjUyOSAxMi40NTEgMjAuMjYgMTUuOTUxIDE2Ljc1IDEwLjI1IDY0IDExIDc2LjI1IDEwLjI1czU4LjI1LTE0Ljc1IDYwLjUtMTkuNDljMi4yNS00Ljc0MSAyMi41LTExLjc2IDI4LjUtMTQuNTFzNi43NS03LjI1IDYtMTUuNSAxMC0yMC43NSAxOC43NS0yOS4yNWM3LjM1LTcuMTQgMS4yOTktOC4yOC0xLjI3LTExLjg3LTAuNDktMC42OC0wLjg2MS0xLjQ2LTAuOTgtMi4zOC0wLjc1LTUuNzUgMS4yNS0xOS4yNSA1LjUtMjVzNC43NS0xNCAwLTEyLjUtMTIuNS0xMC0xMi43NS0xMy43NWMtMC4xMjEtMS44Ny0yLjgxMS0zLjc1LTYtNS4wMy0zLjE4LTEuMjc5LTYuODcxLTEuOTctOS0xLjQ3LTQuMjUgMS0xMC4yNS0xMi4yNS0xMi43NS0xNHMtMjQgNS4yNS0zMS41IDYuOTNjLTcuNSAxLjY4MS0xNS43NS0xMy4xOC0yMC4yNS0xMS40M3MtMjMuNzUgMTMuMjUtMzQgMTUuMzljLTEwLjI1IDIuMTUtMjQtNC44OS0zNC41LTcuMTRzLTI2IDcuNzUtMzEuNSAxMi41LTIxIDAtMjEgMGMtMC4zMy0zLjE0LTEzLjEyLTE0LjgtMjEuMzEtMjkuNDIgNC44MTktMi42NiAxMC43NS01LjQ1IDEzLjY0LTQuOTEgNS4zNCAxIDI0LjM0LTUgMjUuNjctNi42N3M0LjY3LTcuNjcgMTEtNiAxNi01IDIwLTYgMjQuNSAwIDI3IDAgMTMtMiAxNy41LTUuNSAxNC01IDE1LjUtNCA2LjUtMi41IDEyLjUtNC41IDI1IDQuNSAyNSA0LjUgMTYgMCAxOS0yLjUgMTguNSAzLjUgMTkuNSA3IDkgMTcuMTIgMTcgMTEuODFjOC01LjMxIDMwLjUtNS4zMSAzMi0yLjgxczEuNSAxMyAzIDE2LjUgMiAxMC4yMSA3LjUgMTEuNjFjNS41IDEuMzkxIDkgNi4zOTEgOC41IDEwLjg5MXoiLz48cGF0aCBmaWxsPSIjQUI3QzY0IiBkPSJNNDkzLjk4MDgyIDM2NC42NjdjNC4zNjcgMCAxMS41MSAxMS43MDYgMTguMjQ5IDExLjcwNiAwLjQwNiAwIDAuODEzLTAuMDQzIDEuMjE1LTAuMTMzIDYuNjc4LTEuNDk1IDI0LjQ1MS03LjIwOCAzMC4wMzUtNy4yMDggMC42ODggMCAxLjE4OSAwLjA4NyAxLjQ2NSAwLjI3OCAyLjQwOCAxLjY4NyA4LjA2OCAxNC4wNTQgMTIuMjgxIDE0LjA1NCAwLjE1OCAwIDAuMzE0LTAuMDE4IDAuNDY5LTAuMDU0YTcuMjM5IDcuMjM5IDAgMCAxIDEuNjMxLTAuMTY0YzIuMTE1IDAgNC44OTYgMC42MzkgNy4zNjkgMS42MzQgMy4xODkgMS4yOCA1Ljg3OSAzLjE2IDYgNS4wMyAwLjIzNCAzLjUyMiA3LjA4OCAxMy44ODQgMTEuODU1IDEzLjg4NCAwLjMwNyAwIDAuNjA1LTAuMDQzIDAuODk1LTAuMTM0YTMuNTU3IDMuNTU3IDAgMCAxIDEuMDUzLTAuMThjMy41OTIgMCAyLjg1NCA3LjM5Ni0xLjA1MyAxMi42OC00LjI1IDUuNzUtNi4yNSAxOS4yNS01LjUgMjUgMC4xMTkgMC45MiAwLjQ5IDEuNyAwLjk4IDIuMzggMi41NjggMy41OSA4LjYxOSA0LjczIDEuMjcgMTEuODctOC43NSA4LjUtMTkuNSAyMS0xOC43NSAyOS4yNXMwIDEyLjc1LTYgMTUuNS0yNi4yNSA5Ljc3LTI4LjUgMTQuNTEtNDguMjUgMTguNzQtNjAuNSAxOS40OWMtMi4xMDIgMC4xMjktNS4yMzMgMC4yMTMtOS4wNjMgMC4yMTMtMTguNSAwLTUzLjMxMS0xLjk3MS02Ny4xODgtMTAuNDYzLTUuNzMtMy41LTEzLjA3LTkuNDQxLTIwLjI2LTE1Ljk1MS0yLjctMi40NS01LjM3LTQuOTctNy45MzEtNy40NzktNi4wMi01Ljg5MS0xMS4zOTktMTEuNjktMTQuOTQ5LTE2LjEzLTIuNjgxLTMuMzYtNC4zMTEtNS45NC00LjM2LTcuMTktMC4yNS01LjUtMi0xMi0yLTEycy0xMS41LTEyLTUuNS0yOC41IDIwLTMwLjUgMjMuNS0zNiAxMi0xMC4yNSAxMS41LTE1YzAgMCA2Ljg4OSAyLjExMSAxMy4xMTEgMi4xMTEgMy4xMTEgMCA2LjA1NS0wLjUyNyA3Ljg4OS0yLjExMSA0Ljk1Ny00LjI4IDE4LjAzNC0xMi44MjUgMjguMjU2LTEyLjgyNWExNS41IDE1LjUgMCAwIDEgMy4yNDQgMC4zMjVjOS4xMzcgMS45NTggMjAuNzM1IDcuNTQzIDMwLjM0NiA3LjU0MyAxLjQzNSAwIDIuODI0LTAuMTI0IDQuMTU0LTAuNDAzIDEwLjI1LTIuMTQgMjkuNS0xMy42NCAzNC0xNS4zOSAwLjI1LTAuMDk4IDAuNTEzLTAuMTQzIDAuNzg3LTAuMTQzbTAtMTJjLTEuNzcxIDAtMy40OTkgMC4zMjMtNS4xMzYgMC45NTktMS45MDIgMC43NC00LjI5NCAxLjk4Mi04LjcwOCA0LjI5Ny02LjI1MSAzLjI3OC0xNy44ODcgOS4zODEtMjMuMzk2IDEwLjUzLTAuNDc5IDAuMTAxLTEuMDQ4IDAuMTUtMS43MDIgMC4xNS00LjIwMyAwLTEwLjE0MS0xLjkzOS0xNS44ODMtMy44MTUtMy45MzgtMS4yODYtOC4wMS0yLjYxNy0xMS45NDgtMy40NjFhMjcuNTIgMjcuNTIgMCAwIDAtNS43NTktMC41OTJjLTEzLjQyOCAwLTI4LjIzMSA5LjI5NC0zNS4wODQgMTQuODkyLTAuMjUzIDAuMDI0LTAuNjAzIDAuMDQ1LTEuMDYxIDAuMDQ1LTMuNjc0IDAtOC41MDMtMS4yNS05LjU5Ni0xLjU4NWwtMTcuMzUtNS4zMTYgMS41ODMgMTUuMDM4Yy0wLjYyNiAwLjYzNS0xLjM4IDEuMzU0LTEuOTY2IDEuOTEzLTIuNDYzIDIuMzUtNS4yNTQgNS4wMTMtNy40MDcgOC4zOTYtMC41NTkgMC44NzgtMi4zMDYgMy4wMzMtMy44NDcgNC45MzYtNi4yNTUgNy43Mi0xNS43MDkgMTkuMzg2LTIwLjgwNyAzMy40MDYtNS45MjEgMTYuMjgyIDAuMDI2IDMwLjUwNCA1Ljc1NCAzOC4xMSAwLjQzNyAyLjAyOSAwLjkzMSA0Ljc3OCAxLjAzNSA3LjAxNCAwLjE3OSA0LjE3MSAyLjA3MSA4LjAxMyA2Ljk2OCAxNC4xNSAzLjg2IDQuODI4IDkuNTE4IDEwLjk0MSAxNS45MzcgMTcuMjIzYTI5OS45ODggMjk5Ljk4OCAwIDAgMCA4LjI2IDcuNzljNS45MjggNS4zNjcgMTQuNTU5IDEyLjcxNyAyMi4wNjkgMTcuMzA1IDE4LjUzMiAxMS4zNDIgNjAuODk4IDEyLjIyMyA3My40NDIgMTIuMjIzIDMuODkxIDAgNy4yNzgtMC4wODIgOS43OTYtMC4yMzYgOC4yMDItMC41MDIgMjQuOTg1LTUuMDQzIDM2Ljg2Ni04Ljc3OSA1LjEyNS0xLjYxMSAxMi41NDktNC4wNzQgMTguODAxLTYuNjU2IDYuNjg0LTIuNzYyIDExLjI2Ni01LjIzNCAxMy44ODMtOS4wNDkgMy4xOTMtMi4yMyAxMy4zMTEtNi4zMDUgMTcuMjUyLTcuODkxIDIuNTk4LTEuMDQ1IDQuODQtMS45NDkgNi40NjUtMi42OTQgMTQuNjI1LTYuNzAzIDEzLjU0Ny0yMC44OTkgMTIuOTc1LTI3LjIzMSAwLjMwMy0xLjcyNiAzLjU3NC04LjU4NyAxNS4xMzctMTkuODE5IDEuODExLTEuNzU5IDcuMzItNy4xMTEgNy4xNS0xNC42MzItMC4xMzctNi4wODItMy43NjItOS45NDUtNS45Mi0xMS45MzIgMC4xNzYtNC40NzEgMS43MjUtMTIuMDE0IDMuMzA5LTE0LjE2MSA0Ljc2Ni02LjQ0OSA3Ljg1LTE2LjM3OSAzLjk5NC0yNC4wMjQtMi4zNTUtNC42Ny02Ljk4Mi03LjYyLTEyLjE0OC03Ljc4LTAuOTItMS4wOTktMS45NDktMi42MTktMi40MTItMy42MzUtMC42MjUtMy45NTctMy4zMjYtMTAuMDgyLTEzLjM2NS0xNC4xMS0yLjA0My0wLjgyMi01Ljg5NS0yLjE0Mi0xMC4xNDYtMi40MzctMC44MzYtMS4xNzktMS43Ni0yLjYwNS0yLjM3My0zLjU1MS0yLjI1Ni0zLjQ4LTQuMDM3LTYuMjMtNi44MTgtOC4xNzctMi4zMi0xLjYyNC01LjEyOS0yLjQ0Ny04LjM0Ni0yLjQ0Ny01LjAyNSAwLTEyLjc1NCAyLjA1LTIzLjk3MSA1LjE3OS0yLjM5MyAwLjY2Ny00LjY5MyAxLjMwOS02LjUxMiAxLjc4My0xLjExNS0wLjg2Ny0yLjYxNS0yLjI2NC0zLjYxOS0zLjE5OS00LjA5LTMuODEzLTguNzI1LTguMTMtMTUuMzk2LTguMTN6Ii8+PHBhdGggZmlsbD0iI0Q3QUI4QyIgZD0iTTU4Mi4xOTM4MiA0NTUuMzFjLTguNzUgOC41LTE5LjUgMjEtMTguNzUgMjkuMjVzMCAxMi43NS02IDE1LjUtMjYuMjUgOS43Ny0yOC41IDE0LjUxLTQ4LjI1IDE4Ljc0LTYwLjUgMTkuNDktNTkuNSAwLTc2LjI1LTEwLjI1Yy01LjczLTMuNS0xMy4wNy05LjQ0MS0yMC4yNi0xNS45NTEgMTguNDUtMC4wMiA3MC43Ny0wLjI0IDc3Ljc2LTIuMyA4LjUtMi41IDI5LjUtOS41IDMxLjUtOC41czM1LTAuNSAzNi41LTQuNSAyNS0xMC41IDI3LjUtMTQuNSAyOS0yNS4xOCAyOS0yOC41OWMwLTEuNjIgMy4yNzktMy45OCA2LjczLTYuMDMgMi41NjkgMy41OTEgOC42MiA0LjczMSAxLjI3IDExLjg3MXoiLz48cGF0aCBmaWxsPSIjRTFCQUFDIiBkPSJNNTYwLjY5MzgyIDQwNC4wNnMyLjUgMTEuNSAyLjUgMTQtOCAxNS4xMS04IDE1LjExLTkuNSA3LjM5LTEyLjUgMTYuMy0zMCAxMC41OS0zNC41IDExLjA5LTI2LjUgMTItMjcgMTMuMDFjLTAuNSAxLjAyMS0zNyAxLjk5LTM5LjUgNC40OXMtMzAuNSAxNS41LTM3IDE2LjVjLTUuMDggMC43OC0zMC4wNiA0LjMyLTQwLjY5IDUuODItNi4wMi01Ljg5MS0xMS4zOTktMTEuNjktMTQuOTQ5LTE2LjEzLTIuNjgxLTMuMzYtNC4zMTEtNS45NC00LjM2LTcuMTktMC4yNS01LjUtMi0xMi0yLTEycy0xMS41LTEyLTUuNS0yOC41IDIwLTMwLjUgMjMuNS0zNiAxMi0xMC4yNSAxMS41LTE1YzAgMCAxNS41IDQuNzUgMjEgMHMyMS0xNC43NSAzMS41LTEyLjUgMjQuMjUgOS4yOSAzNC41IDcuMTRjMTAuMjUtMi4xNCAyOS41LTEzLjY0IDM0LTE1LjM5czEyLjc1IDEzLjExIDIwLjI1IDExLjQzYzcuNS0xLjY4IDI5LTguNjggMzEuNS02LjkzczguNSAxNSAxMi43NSAxNGMyLjEyOS0wLjUgNS44MiAwLjE5IDkgMS40Ny0zLjcwMiA2Ljk5LTYuMDAxIDE5LjI4LTYuMDAxIDE5LjI4eiIvPjxwYXRoIGZpbGw9IiNEQ0I2QTciIGQ9Ik01ODUuNDQzODIgNDE2LjA2Yy00LjI1IDUuNzUtNi4yNSAxOS4yNS01LjUgMjUgMC4xMTkgMC45MiAwLjQ5IDEuNyAwLjk4IDIuMzgtMy40NTEgMi4wNS02LjczIDQuNDEtNi43MyA2LjAzIDAgMy40MS0yNi41IDI0LjU5LTI5IDI4LjU5cy0yNiAxMC41LTI3LjUgMTQuNS0zNC41IDUuNS0zNi41IDQuNS0yMyA2LTMxLjUgOC41Yy02Ljk5IDIuMDYtNTkuMzEgMi4yOC03Ny43NiAyLjMtMi43LTIuNDUtNS4zNy00Ljk3LTcuOTMxLTcuNDc5IDEwLjYzMS0xLjUgMzUuNjEtNS4wNCA0MC42OS01LjgyIDYuNS0xIDM0LjUtMTQgMzctMTYuNXMzOS0zLjQ3IDM5LjUtNC40OWMwLjUtMS4wMSAyMi41LTEyLjUxIDI3LTEzLjAxczMxLjUtMi4xOCAzNC41LTExLjA5IDEyLjUtMTYuMyAxMi41LTE2LjMgOC0xMi42MSA4LTE1LjExLTIuNS0xNC0yLjUtMTQgMi4yOTktMTIuMjkgNi0xOS4yOGMzLjE4OSAxLjI4IDUuODc5IDMuMTYgNiA1LjAzIDAuMjUgMy43NSA4IDE1LjI1IDEyLjc1IDEzLjc1czQuMjUxIDYuNzQ5IDAuMDAxIDEyLjQ5OXoiLz48cGF0aCBmaWxsPSIjRTVCRkFCIiBkPSJNNTA1LjUwMjgyIDE5Ni44MWMtOS4zNTkgNS42Ni0yNi4wOSAxMi41My0yOC4zMSAxNC43NS0yIDItOS4zNi0wLjQ1LTE1Ljk2LTEuODYgMi4yNy0xNi4yNyA4LjEyLTUyLjMxOSAxNS40Ni01NC42NCA3LjMtMi4zIDIyLjI2IDIxLjA1IDI4LjgxIDQxLjc1eiIvPjxwYXRoIGZpbGw9IiNCRTk0N0QiIGQ9Ik01MDUuNjMxODIgMTk3LjAyNWMtMy4xNjkgMi41OS02LjY0NiA0Ljc0OS0xMC4xMzQgNi44MTMtMS43NTQgMS4wMjEtMy41MjkgMS45OTItNS4yOTQgMi45NzdsLTUuMzI2IDIuODMyYy0xLjc1OSAwLjkyNC0zLjU2NyAxLjg0NC01LjEzNCAyLjgxOC0wLjM3MSAwLjIzMS0wLjc2NiAwLjUwNS0wLjkyNiAwLjY1NmwtMC4yNzggMC4yNDktMC4wNzEgMC4wNjItMC4xODggMC4xNDFhNS41NyA1LjU3IDAgMCAxLTAuNDI0IDAuMjc0IDUuMjUgNS4yNSAwIDAgMS0xLjIzOCAwLjQ4MWMtMS41MjggMC4zNjMtMi42NzggMC4yMDktMy44MDUgMC4xMDEtMi4yMDYtMC4zMzYtNC4xODgtMC44NjEtNi4xNDEtMS40NzFsLTUuNzUtMS44MDgtMS40My0wLjQ1IDAuMjcxLTEuMjA1YzEuMDE3LTQuNTIyIDIuMDIxLTkuMDM0IDIuODE2LTEzLjU3OWE1MTMuODIyIDUxMy44MjIgMCAwIDAgMi4xODMtMTMuNjg4YzAuNjg1LTQuNTgzIDEuMzYzLTkuMTkgMi40NzMtMTMuNzU1IDAuNTU4LTIuMjgyIDEuMjE3LTQuNTUyIDIuMDUtNi44MTdhMzYuNzMgMzYuNzMgMCAwIDEgMS40MzktMy4zOTZjMC41NjUtMS4xMzMgMS4xODktMi4yNzIgMi4xNDItMy40MTYgMC40ODQtMC41NjcgMS4wNTYtMS4xNDYgMS44NzYtMS42NTQgMC40MTQtMC4yNSAwLjg4My0wLjQ3OSAxLjQ0OS0wLjYyOGwwLjIwOC0wLjA1OSAwLjQ0MS0wLjA4NGMwLjMyNy0wLjA1OCAwLjU0Mi0wLjA2MiAwLjc4OC0wLjA3NSAxLjk0Ny0wLjAzNSAzLjQwMyAwLjY0MyA0LjYzMiAxLjMxIDIuNDM4IDEuNDE3IDQuMjA0IDMuMTg4IDUuODU0IDUuMDA3IDMuMjM1IDMuNjc0IDUuNzggNy42ODUgOC4wMzUgMTEuODIxYTg1LjY1IDg1LjY1IDAgMCAxIDMuMTQyIDYuMzA1YzAuOTgyIDIuMTI3IDEuODU0IDQuMzAyIDIuNjczIDYuNDg5IDEuNjEgNC4zODcgMi45NDggOC44NzUgMy43NzUgMTMuNDZsMC4wMzEgMC4xNzQtMC4xMzkgMC4xMTV6IG0tMC40Ny0wLjM0NGMtMy44NzgtOC4zMDUtOC4xNC0xNi4yOTMtMTMuMDI3LTIzLjgwMi0yLjQ4My0zLjc1Mi01LjEwMS03LjQyOC04LjAwNS0xMC42MzItMS40NDItMS41NzYtMi45OTgtMy4wODYtNC41MjgtNC4wMzMtMC43NDUtMC40NzktMS40OTgtMC43NDYtMS44NzUtMC43NDQtMC4wNDIgMC4wMDEtMC4xMTUtMC4wMDQtMC4wNzItMC4wMDggMC4wMDYtMC4wMDIgMC4wMjEtMC4wMTQgMC4wMTUtMC4wMjFsLTAuMjEgMC4wNWMwLjAwNi0wLjAxNS0wLjA1NSAwLjAwMS0wLjEzNiAwLjA0MS0wLjE3MSAwLjA4MS0wLjQ0OSAwLjMwNC0wLjcyNiAwLjU5OC0wLjU2NyAwLjU5My0xLjEzNCAxLjQ0NS0xLjY0MyAyLjM0Ni0wLjUxMiAwLjkwNi0wLjk4IDEuODg1LTEuNDIgMi44ODktMC44ODMgMi4wMTItMS42NTQgNC4xMjYtMi40MDUgNi4yNTgtMS40OSA0LjI3NS0yLjkxMSA4LjY0Ni00LjEzIDEzLjA3NS0xLjIyOCA0LjQyOS0yLjE2OCA4LjkzNi0yLjkxNyAxMy40NzItMC43MzUgNC41MzktMS4xMjQgOS4xMzUtMS4zODEgMTMuNzM1bC0xLjE1OS0xLjY1NWMyLjAzOCAwLjI4MSA0LjA1MyAwLjYwMiA2LjAyMSAwLjk1IDEuOTY5IDAuMzA5IDMuOTIxIDAuNzA4IDUuNzIyIDAuODI1IDAuODY5IDAuMDg2IDEuNzcgMC4wNTkgMi4yMDgtMC4wNTQgMC4xMTQtMC4wMjIgMC4xNTUtMC4wNTggMC4xNy0wLjA1NGEwLjM4NSAwLjM4NSAwIDAgMC0wLjEwNSAwLjA3Yy0wLjAxIDAuMDEtMC4wNDIgMC4wNDUtMC4wMjkgMC4wMzZsMC4wNzEtMC4wNjIgMC4wNzEtMC4wNjIgMC4wMzYtMC4wMzEgMC4wMDktMC4wMDhjLTAuMDUxIDAuMDQ4IDAuMTI2LTAuMTE1LTAuMTEgMC4xMDRsMC4wMzEtMC4wM2MwLjA4My0wLjA3OCAwLjE3Ny0wLjE2OSAwLjI0OS0wLjIyNyAwLjYxMS0wLjQ5NyAxLjA3NS0wLjc1OSAxLjU2My0xLjA1MSAxLjkwMy0xLjA3OCAzLjcyMi0xLjkyOSA1LjU3My0yLjc5Mmw1LjU2Mi0yLjQyNCA1LjU4Ni0yLjI5OWMzLjY2My0xLjQ3NyA3LjMxOC0yLjkzMyAxMC45OTEtNC40NnoiLz48cGF0aCBmaWxsPSIjRTVCRkFCIiBkPSJNNjYzLjkyMzgyIDIzOS4xMmgtMC4wMTJjLTEuMjM4LTAuNDM5LTIuMzc5LTAuNjQtMy4zODktMC41Ni03LjQ3MSAwLjU4LTM0LjMyLTE5LjIxLTQzLjI1LTI1LjQ5IDE2LjMwOS0yNC4wNCA1Mi4xNi03NS43NzkgNTcuOTItNzUuMDEgNi43NjEgMC45IDguMjQxIDM2LjI5LTExLjI2OSAxMDEuMDZ6Ii8+PHBhdGggZmlsbD0iI0JFOTQ3RCIgZD0iTTY2NC4wOTk4MiAyMzkuMzU0bC0wLjE4OCAwLjAxNy0wLjAyIDAuMDAyLTAuMDY0LTAuMDE3Yy0xLjA3LTAuMjcxLTIuMTc4LTAuNDEyLTMuMTg4LTAuMjU0LTEuMjQ2IDAuMTc0LTIuNDUzLTAuMDYzLTMuNTg4LTAuMzIyLTIuMjc3LTAuNTc2LTQuNDA4LTEuNDU1LTYuNTAyLTIuMzg2YTExMy4zNzYgMTEzLjM3NiAwIDAgMS02LjExOS0zLjA2NiAyMTMuOTU2IDIxMy45NTYgMCAwIDEtNS45MDgtMy4zOTNjLTMuODg5LTIuMzM2LTcuNjg4LTQuNzk4LTExLjQ0My03LjMxNC0zLjcyMS0yLjU1Ny03LjQ3MS01LjA5NC0xMS4wOTItNy43MjRsLTEuNzc5LTEuMjkzIDEuMjE3LTEuNzg4YzQuNjgtNi44ODEgOS43MjctMTMuNTEyIDE0LjgzNC0yMC4wOTNhNjQ1LjczNCA2NDUuNzM0IDAgMCAwIDE0Ljk2NS0xOS45ODVjMi40MzQtMy4zNzQgNC44NC02Ljc2OCA3LjIzOC0xMC4xNzRhNTA4LjEwOCA1MDguMTA4IDAgMCAxIDcuMjctMTAuMTg4YzIuNDg0LTMuMzYzIDQuOTcxLTYuNzMxIDcuNzk1LTkuOTI3YTUxLjQxNiA1MS40MTYgMCAwIDEgMi4yMTctMi4zN2MwLjc5MS0wLjc3OCAxLjYwNC0xLjUyOSAyLjY4Ni0yLjI2MSAwLjI3OS0wLjE4MyAwLjU4Mi0wLjM2MyAwLjk1My0wLjUzNiAwLjM3Ny0wLjE2NiAwLjgxMS0wLjM1NSAxLjUyOS0wLjQwNmEyLjI3IDIuMjcgMCAwIDEgMC4yODktMC4wMDNsMC4xNTQgMC4wMDljMC4wOCAwLjAxIDAuMDM1LTAuMDAyIDAuMjIxIDAuMDI2bDAuMDk2IDAuMDE1IDAuMTY2IDAuMDMxYzAuMzY1IDAuMDggMC41NjYgMC4xNTUgMC44MTggMC4yNjFhNC43OCA0Ljc4IDAgMCAxIDEuMjExIDAuNzYxYzEuMzA3IDEuMTY2IDEuODEzIDIuMzY1IDIuMjkzIDMuNDkxIDAuODc1IDIuMjY1IDEuMjU4IDQuNDQgMS41NjYgNi42MDkgMC4yODkgMi4xNjUgMC40NDEgNC4zMTIgMC41MiA2LjQ0OCAwLjEzMyA0LjI3MiAwLjAxNCA4LjUwOS0wLjI5MyAxMi43Mi0wLjM0NCA0LjIwNi0wLjc3NyA4LjM5NC0xLjQxMiAxMi41NDZhMjcyLjI2NSAyNzIuMjY1IDAgMCAxLTIuMTk1IDEyLjM4NyAzMDAuNjk3IDMwMC42OTcgMCAwIDEtNi4xMTkgMjQuMzIyIDI5Ni44MjggMjk2LjgyOCAwIDAgMS04LjA2NCAyMy42OTJsLTAuMDY0IDAuMTYzeiBtLTAuMzU5LTAuNTY1YzMuNTItMTYuMTk2IDcuMS0zMi4yOTcgOS43MjktNDguNTEgMC42NzQtNC4wNyAxLjMwNy04LjE0NCAxLjgxOC0xMi4yMjUgMC41Mi00LjA4IDEuMDQzLTguMTU0IDEuMzY1LTEyLjIzNCAwLjM1NC00LjA3NSAwLjYyMS04LjE1NCAwLjU5NC0xMi4xOTQtMC4wMDgtMi4wMTgtMC4wNzYtNC4wMjctMC4yNy01Ljk5MS0wLjE5NS0xLjk0OS0wLjUwNC0zLjkwNy0xLjA3OC01LjU0Ny0wLjI3My0wLjc5My0wLjY4OC0xLjUzNi0wLjk0My0xLjc3LTAuMDU3LTAuMDU5LTAuMDktMC4wODEtMC4wOS0wLjA4NiAwLjAxNC0wLjAwMi0wLjAzMS0wLjAxIDAuMDgyIDAuMDExIDAuMDQxIDAuMDA0IDAuMDE2LTAuMDAyLTAuMDI1LTAuMDA5bC0wLjA5Ni0wLjAyIDAuMTI1IDAuMDE4IDAuMDU3IDAuMDA0IDAuMDk0LTAuMDAyYzAuMTk5LTAuMDIyIDAuMTMxLTAuMDQyIDAuMDM1IDAuMDAyYTMuMDggMy4wOCAwIDAgMC0wLjQxNCAwLjIwOWMtMC42NjggMC4zOTYtMS40MjYgMS4wMjEtMi4xNTQgMS42NTZhNDcuNjY1IDQ3LjY2NSAwIDAgMC0yLjE4NiAyLjA0NGMtMi44NjUgMi44NjYtNS42NiA1LjkzLTguMzczIDkuMDUxLTUuNDEyIDYuMjY5LTEwLjY1OCAxMi43MjktMTUuNTQzIDE5LjQ0NC00LjkyMiA2LjY5Mi05LjUyNSAxMy42MTYtMTMuOTIyIDIwLjY3Ni00LjQwMiA3LjA1Ny04Ljc3IDE0LjEzMS0xMy40MjQgMjEuMDA4bC0wLjU2My0zLjA4YTIyNC4yNTYgMjI0LjI1NiAwIDAgMSA1LjUwMiAzLjkzNWw1LjQ2MSAzLjk0MWE2NjIuNDcxIDY2Mi40NzEgMCAwIDAgMTAuOTU1IDcuNzkxIDIxMS45NDUgMjExLjk0NSAwIDAgMCA1LjU0OSAzLjc2IDExMy4yNzggMTEzLjI3OCAwIDAgMCA1LjY0NiAzLjU2N2MxLjkwNiAxLjEyOCAzLjg0OCAyLjIxNyA1Ljg1OSAzLjAyMyAxLjAwNiAwLjM5NSAyLjAyNSAwLjc0NSAzLjAzOSAwLjc0OSAxLjE0OSAwLjAyNCAyLjE5NCAwLjM2MyAzLjE3MSAwLjc3OXoiLz48cGF0aCBmaWxsPSIjMjMxODE1IiBkPSJNNTIxLjY5MzgyIDQwMC4wNmExNi43NSAxNSAwIDEgMCAzMy41IDAgMTYuNzUgMTUgMCAxIDAtMzMuNSAwWiIvPjxwYXRoIGZpbGw9IiMyNjI3MjciIGQ9Ik0zNTMuNjkzODIgNDI3LjA2YzMuMDY4IDIuNTU3IDUuODE4IDQuODEyIDguNTkxIDYuMzI2IDEuMzc2IDAuNzUgMi43MTEgMS4yOTkgMy45OTcgMS41OTggMS4yODkgMC4yOTcgMi41MTggMC4zODEgMy44MDMgMC4yNTkgMi41NTUtMC4yMjkgNS40Mi0xLjM0MSA4LjQwOS0yLjkwMyAzLjAyMy0xLjUzNyA2LjA3NS0zLjUxIDkuNy01LjI3OS0xLjAzNyAzLjkwNC0zLjA2MyA3LjMxNi01Ljg3MSAxMC4yN2EyMS4wMTMgMjEuMDEzIDAgMCAxLTQuOTg4IDMuODRjLTEuOTEyIDEuMDU0LTQuMTMzIDEuODIyLTYuNTE2IDIuMDM4LTIuMzczIDAuMjI4LTQuODc5LTAuMTQ3LTcuMDUzLTEuMDg0YTE1LjY2NSAxNS42NjUgMCAwIDEtNS40ODUtMy45MTQgMTguMTgyIDE4LjE4MiAwIDAgMS0zLjMyMS01LjI2NWMtMC43NTYtMS44ODMtMS4yNzItMy44NDEtMS4yNjYtNS44ODZ6Ii8+PHBhdGggZmlsbD0iIzI2MjcyNyIgZD0iTTM2Ny4xOTA4MiA0ODEuMDZhMi45ODcgMi45ODcgMCAwIDEtMS41NDEtMC40MjhjLTIuOTM4LTEuNzYzLTYuMDc2LTYuMjMtNC4yNTUtMjUuMjk1IDAuOTQxLTkuODU1IDIuNzgxLTE4Ljk4OSAyLjg1OC0xOS4zNzNhMyAzIDAgMSAxIDUuODgxIDEuMTkxYy0wLjAxOSAwLjA5Mi0xLjg2MSA5LjI0Ny0yLjc3MSAxOC43OTQtMS42NjcgMTcuNSAxLjM0MyAxOS41MiAxLjM3NCAxOS41MzhhMyAzIDAgMCAxLTEuNTQ2IDUuNTczeiIvPjxwYXRoIGZpbGw9IiNFOEQ3QzAiIGQ9Ik03MDUuNjkzODIgNjAyLjU2MWMwIDQuOTcxLTIuODY1IDUuNzUtOC4yNSA1Ljc1cy0xMS4yNS0wLjc3OS0xMS4yNS01Ljc1IDYuMzY1LTExLjUgMTEuNzUtMTEuNSA3Ljc1IDYuNTI5IDcuNzUgMTEuNXoiLz48cGF0aCBmaWxsPSIjRjFFN0RCIiBkPSJNNjk3LjQ0MzgyIDYxMC44MTFjLTMuNCAwLTEzLjc1IDAtMTMuNzUtOC4yNSAwLTYuNTQzIDcuNTktMTQgMTQuMjUtMTQgNi42NTYgMCAxMC4yNSA3LjIxMyAxMC4yNSAxNCAwIDguMjUtNi45OTQgOC4yNS0xMC43NSA4LjI1eiBtMC41LTE3LjI1Yy00LjE5OSAwLTkuMjUgNS41MjctOS4yNSA5IDAgMC44ODkgMCAzLjI1IDguNzUgMy4yNSA1Ljc1IDAgNS43NS0wLjk1MSA1Ljc1LTMuMjUgMC0zLjczOS0xLjYyOS05LTUuMjUtOXoiLz48cGF0aCBmaWxsPSIjRThEN0MwIiBkPSJNNDI0LjE5MzgyIDY4Mi41NjFjMCA1LjUyMy0xMi42NjcgMS42MDQtMjguNjY3LTUtMTUuNjk4LTYuNDc5LTIzLjMzMy0xOS42NjgtMTkuMzM0LTI2IDIuOTQ5LTQuNjcgMTkuMDA0IDExLjA5OCAyMy40NzYgMTQuMzMyIDguODA3IDYuMzcxIDI0LjUyNSAxMS4xNDQgMjQuNTI1IDE2LjY2OHoiLz48cGF0aCBmaWxsPSIjRjFFN0RCIiBkPSJNNDIwLjM1MDgyIDY4Ny42ODZjLTQuNzMxIDAtMTIuNjgyLTIuNDEtMjUuNzc3LTcuODE0LTEwLjM3OC00LjI4My0xOC42OTgtMTIuMTIzLTIxLjE5Ni0xOS45NzMtMS4xODYtMy43MjUtMC45NDItNy4wNjggMC43MDItOS42NzQgMC44MjQtMS4zMDUgMi4xODQtMi4wMjEgMy44MjctMi4wMjEgNC4zOTQgMCAxMS4xODggNS40OTggMTguOTY0IDEyLjE0MSAxLjc5OSAxLjUzNyAzLjM1MyAyLjg2NSA0LjI2NCAzLjUyMyAzLjA5MiAyLjIzNiA3LjE2MyA0LjMwOSAxMS4xMDEgNi4zMTMgOC4wNzkgNC4xMTMgMTQuNDYgNy4zNjEgMTQuNDYgMTIuMzgxLTAuMDAyIDEuMi0wLjQ1OSA1LjEyNC02LjM0NSA1LjEyNHogbS00Mi4yMjQtMzQuNDcxYy0wLjY0NSAxLjI4OS0wLjY0MyAzLjEwNCAwLjAxNSA1LjE2OCAxLjU3MSA0LjkzOCA3LjMxNyAxMi4zMTggMTguMzQgMTYuODY3IDEyLjEyNSA1LjAwNCAxOS45MzMgNy40MzYgMjMuODY5IDcuNDM2IDAuNzU4IDAgMS4xNTktMC4wOTYgMS4zNDMtMC4xNi0wLjA4OC0xLjk2My03LjM2Ny01LjY3LTExLjcyNy03Ljg4OS00LjEwOC0yLjA5Mi04LjM1Ni00LjI1NC0xMS43NjMtNi43MTktMS4wNzUtMC43NzctMi42MjMtMi4xLTQuNTgyLTMuNzczLTQuMDU3LTMuNDY1LTEyLjM5My0xMC41ODgtMTUuNDk1LTEwLjkzeiIvPjxwYXRoIGZpbGw9IiNFOEQ3QzAiIGQ9Ik01OTUuMTkzODIgNjkwLjIyN2MtMS44NTItMy43MDUtMTIuMzM0IDYuNjY2LTE5LjMzNCAxMi4zMzQtMTMuMTQ1IDEwLjY0MS0zMC4zMzIgMTEuNjY2LTI3LjMzMiAxNy4zMzIgMS45MzggMy42NjIgMjAuMjMgMS44ODkgMzMtNi4zMzIgMTEtNy4wODIgMTYuMzMyLTE4IDEzLjY2Ni0yMy4zMzR6Ii8+PHBhdGggZmlsbD0iI0YxRTdEQiIgZD0iTTU1NC45MDY4MiA3MjQuMjA3Yy00LjY2IDAtNy40NjktMS4wMjktOC41ODgtMy4xNDUtMC44ODUtMS42NjgtMC42ODYtMy4wODItMC4zNjEtMy45NzMgMS4wNzQtMi45NjcgNC43ODEtNC40ODYgMTAuMzk1LTYuNzg3IDUuMzg5LTIuMjA5IDEyLjA5NC00Ljk1NyAxNy45MzYtOS42ODYgMS40MDItMS4xMzcgMi45NDEtMi40NTkgNC41Ny0zLjg1OSA3LjEwNC02LjEwNSAxMS42NTgtOS44MTMgMTUuMDE0LTkuODEzIDEuNTc0IDAgMi44NzEgMC43ODkgMy41NTkgMi4xNjQgMy41MjMgNy4wNDctMy4xNDEgMTkuMjA3LTE0LjU0OSAyNi41NTMtOS4xNjkgNS45MDMtMjAuNjU4IDguNTQ2LTI3Ljk3NiA4LjU0NnogbS00LjEzNS01LjU3NGMwLjQ2NyAwLjIyMyAxLjcxNSAwLjU3NCA0LjEzNSAwLjU3NCA2LjM3MyAwIDE3LTIuNDI2IDI1LjI2OC03Ljc0OCA5Ljg4MS02LjM2MyAxNC4wNzYtMTUuMjQgMTMuMDYxLTE5LjM1LTIuMzk4IDAuOTQ3LTcuOTgyIDUuNzQ2LTExLjExNyA4LjQ0MS0xLjY1OCAxLjQyNC0zLjIyNSAyLjc3LTQuNjg0IDMuOTUzLTYuNDEyIDUuMTg5LTEzLjc5NSA4LjIxNy0xOS4xODggMTAuNDI2LTIuODI0IDEuMTU5LTYuNjM1IDIuNzE5LTcuNDc1IDMuNzA0eiIvPjxwYXRoIGZpbGw9IiNFOEQ3QzAiIGQ9Ik00MDYuOTQzODIgNzYwLjY2OGMwIDMuNTktMTkuNzUgMy45NDEtMjYuNSAyLjUzMS0xMy4wMy0yLjcyMy0yNC45NjktMjQuODgxLTIzLjI1LTI4LjAzMSAxLjUtMi43NSAyMC40NTMgMTUuNjA5IDIyLjAyOCAxNyAxMC40NzIgOS4yNSAyNy43MjItMS42MTcgMjcuNzIyIDguNXoiLz48cGF0aCBmaWxsPSIjRjFFN0RCIiBkPSJNMzkwLjg3MzgyIDc2Ni40NjljLTQuMzg1IDAtOC40NzYtMC4zMDctMTAuOTQyLTAuODIyLTEwLjQwOS0yLjE3Ni0xOS43NC0xNC45ODQtMjMuNDczLTIzLjA2NC0yLjUzMS01LjQ3OS0yLjA0Ni03LjUzOS0xLjQ2LTguNjExIDAuNTQtMC45OTIgMS41NjctMS41ODQgMi43NDgtMS41ODQgMi40NzggMCA2Ljk5NCAyLjc5NSAyMS44MzkgMTYuNzA3IDAuNjQ4IDAuNjA3IDEuMTAxIDEuMDMxIDEuMjkgMS4xOTkgMy40NzQgMy4wNjggNy45NzEgMy40NjMgMTEuNSAzLjQ2M2gwLjAwMWMxLjQ4MyAwIDIuOTUtMC4wNzggNC4zNjctMC4xNTIgMS4zMjEtMC4wNyAyLjU2OC0wLjEzNSAzLjc1LTAuMTM1IDIuMjE0IDAgOC45NDkgMCA4Ljk0OSA3LjE5OSAwLjAwMSAxLjU4NSAwLjAwMSA1LjgtMTguNTY5IDUuOHogbS0zMC41ODgtMjcuNTFjMi41NzggNi40NzMgMTEuMzI1IDE5Ljg0IDIwLjY2OSAyMS43OTMgMi4xMTcgMC40NDEgNS45MTggMC43MTcgOS45MTkgMC43MTcgNy4zMyAwIDEyLjAzMy0wLjgzMiAxMy41NDQtMS41MjktMC4xMTMtMC45NTUtMC43MTQtMS40NzEtMy45MjQtMS40NzEtMS4wNSAwLTIuMjMzIDAuMDYxLTMuNDg2IDAuMTI3LTEuNDgyIDAuMDc4LTMuMDE2IDAuMTYtNC42MzEgMC4xNmgtMC4wMDFjLTQuMDY2IDAtMTAuMDI2LTAuNDktMTQuODEtNC43MTUtMC4yMDUtMC4xODItMC42OTYtMC42NDEtMS40LTEuMjk5LTguNjMxLTguMDktMTMuMzI4LTExLjk1My0xNS44OC0xMy43ODN6Ii8+PHBhdGggZmlsbD0iI0U4RDdDMCIgZD0iTTcwNy43NDY4MiA3MjkuMWMwLTQuMTQzLTEwLjc5NyAxMC4yNS00MCAyMS0yNi44MjIgOS44NzMtNDYuMzM0IDEwLjE5MS00Ni4zMzQgMTQuMzM0czIxLjEyMyA5Ljk2NSA0OC42NjYgMi4zMzJjMjcuNjY4LTcuNjY2IDM3LjY2OC0zMy41MjQgMzcuNjY4LTM3LjY2NnoiLz48cGF0aCBmaWxsPSIjRjFFN0RCIiBkPSJNNzA3Ljc0NjgyIDcyOS4xYy0wLjAxLTAuMjQ2LTAuMDM1LTAuNTY2LTAuMjg3LTAuNjgyLTAuMjQ4LTAuMDg4LTAuNTE2IDAuMDE2LTAuNzUyIDAuMTEzLTAuNDc5IDAuMjEzLTAuOTA4IDAuNTIxLTEuMzQgMC44MTYtMC44NTIgMC42MTMtMS42NjQgMS4yODMtMi40NjcgMS45NjUtMS42MTEgMS4zNTktMy4xNTYgMi44MTgtNC43NDYgNC4yNDQtMy4xNDggMi44ODctNi40NTUgNS42NzgtMTAuMDQ5IDguMDQxLTcuNTE4IDQuMTExLTE1LjQyMiA3LjUzMy0yMy40ODggMTAuMjY4LTguMDUxIDIuNzc1LTE2LjI4OSA0Ljk5LTI0LjUzOSA2Ljg2NS00LjEwOSAwLjk1My04LjI3NyAxLjc5MS0xMi4xOTkgMi44MTYtMC45NjkgMC4yNjItMS45MjggMC41NDEtMi43NjggMC44NjFhOC42ODcgOC42ODcgMCAwIDAtMS4wOTIgMC40OTJjLTAuMjgxIDAuMTQxLTAuNDMgMC4zNTQtMC4yNTggMC4xMjEgMC4wMzctMC4wNjEgMC4wODQtMC4xNjIgMC4xMTUtMC4yNzkgMC4wMTgtMC4wNjEgMC4wMi0wLjEyNSAwLjAzMy0wLjE4NiAwLjAwNC0wLjAzMSAwLjAwNi0wLjA2MyAwLjAwNC0wLjA5NGE5LjMzIDkuMzMgMCAwIDEtMC4wMDgtMC4yMDVsMC4wMDQgMC4wNDljMC4wMDIgMC4wNTMgMC4wMTggMC4yMDEgMC4wMDQgMC4wMS0wLjAwNi0wLjEwNS0wLjA2My0wLjI2LTAuMDYzLTAuMjYtMC4wMjUtMC4wNzQtMC4wMzctMC4xMDItMC4wNTMtMC4xMTktMC4wMjUtMC4wMjkgMC4xNjIgMC4xOTUgMC40MzkgMC4zODMgMC41NjMgMC40MDYgMS4zOTEgMC44MDkgMi4yNDQgMS4xNDMgMy41MTggMS4zMzYgNy42IDEuOTczIDExLjYxMSAyLjMwMSA0LjA0MyAwLjMxNCA4LjE0MSAwLjI3OSAxMi4yMTktMC4wMjdhOTYuODEgOTYuODEgMCAwIDAgMTIuMTctMS43MTNjNC4wMS0wLjg0MiA4LjA1OS0xLjgzNCAxMS43NDQtMy4yNTYgNy40OS0yLjg3MSAxNC4yMzItNy41NzQgMTkuNjQ1LTEzLjUyOSAyLjk2Ny0yLjczMiA1Ljg5Ni01LjY1IDguNDgtOC45MzkgMS4yNy0xLjY1NCAyLjQ1Ny0zLjM5NiAzLjQxLTUuMjY0IDAuNDc5LTAuOTM0IDAuOTEtMS44OTMgMS4yNjYtMi44NzkgMC4zNDYtMC45ODggMC42NjgtMi4wMDQgMC43MjEtMy4wNTZ6IG0wIDBjLTAuMDM3IDEuMDU1LTAuMzM4IDIuMDc2LTAuNjA3IDMuMDkyYTY0Ljg2MiA2NC44NjIgMCAwIDEtMC45NDMgMy4wMjdjLTAuNjg5IDIuMDAyLTEuNDA2IDQuMDItMi4yMzggNi4wMDYtMS42MjkgMy45OS0zLjY5NSA3Ljg5Ni02LjM5MSAxMS4zODMtNS44OTUgNi40OS0xMy4zMTQgMTEuNjc2LTIxLjU0MyAxNC44MjYtNC4xNyAxLjU5OC04LjMyNCAyLjU5OC0xMi41MzcgMy40ODhhMTAyLjA5IDEwMi4wOSAwIDAgMS0xMi43OTkgMS44MDFjLTQuMzA1IDAuMzIyLTguNjQzIDAuMzYxLTEyLjk4NCAwLjAyNS00LjM0OC0wLjM3My04LjY4LTAuOTg4LTEzLjA0Ny0yLjYzMS0xLjA5Ni0wLjQ0MS0yLjE5My0wLjkyNi0zLjM0Ni0xLjc0NC0wLjU3Mi0wLjQyNi0xLjE4OS0wLjkwOC0xLjc3Ny0xLjgzYTQuNDcyIDQuNDcyIDAgMCAxLTAuMzk2LTAuODMyIDMuNjg1IDMuNjg1IDAgMCAxLTAuMTY0LTAuNjM3Yy0wLjA1My0wLjMxOC0wLjAzNy0wLjMwMS0wLjA0Ny0wLjM3OWEzLjc5OCAzLjc5OCAwIDAgMSAwLjUzMy0yLjIxOWMwLjcyNS0xLjEzOSAxLjQ3Ny0xLjU0MSAyLjA5Ni0xLjkyNmExMy4xNiAxMy4xNiAwIDAgMSAxLjc3NS0wLjgxNGMxLjEyNy0wLjQyNiAyLjE5MS0wLjczIDMuMjUyLTEuMDE4IDQuMjEzLTEuMSA4LjI5Ny0xLjkxMiAxMi4zODEtMi44NjMgOC4xNDYtMS44NTIgMTYuMTc4LTQuMDEyIDI0LjAyOS02LjcxOSA3Ljg1NC0yLjY4NiAxNS40NzEtNS45MTIgMjIuNjctOS45NTkgMy43NjgtMS43MDEgNy42MTktMy4zNDIgMTEuNDA4LTUuMjA3IDEuODgzLTAuOTQ1IDMuNzUtMS45NDMgNS41NDMtMy4wNTVsMi42ODgtMS42N2MwLjQ0OS0wLjI3MyAwLjkwNi0wLjU0MyAxLjM5NS0wLjc0NiAwLjI0LTAuMDkyIDAuNTEyLTAuMTkzIDAuNzcxLTAuMDk4IDAuMjU4IDAuMTI4IDAuMjcyIDAuNDUzIDAuMjc4IDAuNjk5eiIvPjxwYXRoIGZpbGw9IiMyNjI3MjciIGQ9Ik0zNTMuNjkzODIgNDI3LjA2YzMuMDY4IDIuNTU3IDUuODE4IDQuODEyIDguNTkxIDYuMzI2IDEuMzc2IDAuNzUgMi43MTEgMS4yOTkgMy45OTcgMS41OTggMS4yODkgMC4yOTcgMi41MTggMC4zODEgMy44MDMgMC4yNTkgMi41NTUtMC4yMjkgNS40Mi0xLjM0MSA4LjQwOS0yLjkwMyAzLjAyMy0xLjUzNyA2LjA3NS0zLjUxIDkuNy01LjI3OS0xLjAzNyAzLjkwNC0zLjA2MyA3LjMxNi01Ljg3MSAxMC4yN2EyMS4wMTMgMjEuMDEzIDAgMCAxLTQuOTg4IDMuODRjLTEuOTEyIDEuMDU0LTQuMTMzIDEuODIyLTYuNTE2IDIuMDM4LTIuMzczIDAuMjI4LTQuODc5LTAuMTQ3LTcuMDUzLTEuMDg0YTE1LjY2NSAxNS42NjUgMCAwIDEtNS40ODUtMy45MTQgMTguMTgyIDE4LjE4MiAwIDAgMS0zLjMyMS01LjI2NWMtMC43NTYtMS44ODMtMS4yNzItMy44NDEtMS4yNjYtNS44ODZ6Ii8+PHBhdGggZmlsbD0iIzI2MjcyNyIgZD0iTTM2Ny4xOTA4MiA0ODEuMDZhMi45ODcgMi45ODcgMCAwIDEtMS41NDEtMC40MjhjLTIuOTM4LTEuNzYzLTYuMDc2LTYuMjMtNC4yNTUtMjUuMjk1IDAuOTQxLTkuODU1IDIuNzgxLTE4Ljk4OSAyLjg1OC0xOS4zNzNhMyAzIDAgMSAxIDUuODgxIDEuMTkxYy0wLjAxOSAwLjA5Mi0xLjg2MSA5LjI0Ny0yLjc3MSAxOC43OTQtMS42NjcgMTcuNSAxLjM0MyAxOS41MiAxLjM3NCAxOS41MzhhMyAzIDAgMCAxLTEuNTQ2IDUuNTczeiIvPjwvc3ZnPg==;container=0;" parent="1" vertex="1">
          <mxGeometry x="-7003" y="-1550.87" width="40" height="40" as="geometry" />
        </mxCell>
        <mxCell id="wu85P2VpSHijpUglrD6K-28" value="" style="rounded=1;whiteSpace=wrap;html=1;fillColor=none;movable=1;resizable=1;rotatable=1;deletable=1;editable=1;locked=0;connectable=1;container=0;" parent="1" vertex="1">
          <mxGeometry x="-7157" y="-1467.87" width="252" height="310" as="geometry" />
        </mxCell>
        <mxCell id="wu85P2VpSHijpUglrD6K-30" value="" style="group;fillColor=#FFFFFF;gradientColor=#CEE0CD;strokeColor=#82b366;container=0;" parent="1" vertex="1" connectable="0">
          <mxGeometry x="-6903" y="-1571.87" width="110" height="30" as="geometry" />
        </mxCell>
        <mxCell id="wu85P2VpSHijpUglrD6K-32" value="&lt;font style=&quot;font-size: 28px;&quot;&gt;Text Emb.&lt;/font&gt;" style="text;html=1;align=center;verticalAlign=middle;whiteSpace=wrap;rounded=0;fontSize=14;container=0;" parent="1" vertex="1">
          <mxGeometry x="-6918.75" y="-1608.87" width="141.5" height="30" as="geometry" />
        </mxCell>
        <mxCell id="wu85P2VpSHijpUglrD6K-33" value="" style="rounded=0;whiteSpace=wrap;html=1;fillColor=none;container=0;" parent="1" vertex="1">
          <mxGeometry x="-7311" y="-1589.87" width="150" height="50" as="geometry" />
        </mxCell>
        <mxCell id="wu85P2VpSHijpUglrD6K-126" style="edgeStyle=orthogonalEdgeStyle;rounded=0;orthogonalLoop=1;jettySize=auto;html=1;exitX=1;exitY=0.5;exitDx=0;exitDy=0;entryX=0;entryY=0.25;entryDx=0;entryDy=0;" parent="1" source="wu85P2VpSHijpUglrD6K-34" target="wu85P2VpSHijpUglrD6K-39" edge="1">
          <mxGeometry relative="1" as="geometry" />
        </mxCell>
        <mxCell id="wu85P2VpSHijpUglrD6K-35" value="&lt;p style=&quot;line-height: 127%; font-size: 28px;&quot;&gt;&lt;font style=&quot;font-size: 28px;&quot;&gt;Text Data&lt;br style=&quot;&quot;&gt;Encoder&lt;/font&gt;&lt;/p&gt;" style="text;html=1;align=center;verticalAlign=middle;whiteSpace=wrap;rounded=0;container=0;" parent="1" vertex="1">
          <mxGeometry x="-7120" y="-1589.12" width="161" height="30" as="geometry" />
        </mxCell>
        <mxCell id="wu85P2VpSHijpUglrD6K-36" value="&lt;font style=&quot;font-size: 20px;&quot; face=&quot;Times New Roman&quot;&gt;LlaMA2-7B&lt;/font&gt;" style="text;html=1;align=center;verticalAlign=middle;whiteSpace=wrap;rounded=0;fontSize=25;container=0;" parent="1" vertex="1">
          <mxGeometry x="-7097.62" y="-1545.87" width="103.62" height="30" as="geometry" />
        </mxCell>
        <mxCell id="wu85P2VpSHijpUglrD6K-37" value="" style="shape=image;verticalLabelPosition=bottom;labelBackgroundColor=default;verticalAlign=top;aspect=fixed;imageAspect=0;image=data:image/svg+xml,PHN2ZyB4bWxuczp4bGluaz0iaHR0cDovL3d3dy53My5vcmcvMTk5OS94bGluayIgeG1sbnM9Imh0dHA6Ly93d3cudzMub3JnLzIwMDAvc3ZnIiBoZWlnaHQ9IjIwMCIgd2lkdGg9IjIwMCIgdmVyc2lvbj0iMS4xIiB2aWV3Qm94PSIwIDAgMTAyNCAxMDI0IiBjbGFzcz0iaWNvbiI+PHBhdGggZmlsbD0iIzEyOTZkYiIgZD0iTTk5MiA0NzUuNjQ4aC03My4wODhsMzYuMzItNjIuODQ4YTMyIDMyIDAgMCAwLTU1LjM5Mi0zMi4wMzJsLTU0Ljc1MiA5NC44OEg2MzEuNTJsOTAuNDk2LTUyLjI1NmEzMiAzMiAwIDAgMCAxMS42OC00My43NDQgMzEuOTA0IDMxLjkwNCAwIDAgMC00My42OC0xMS42OGwtOTAuNTkyIDUyLjI4OCAxMDYuODQ4LTE4NS4wNGgxMDkuNTM2YTMxLjg0IDMxLjg0IDAgMCAwIDMxLjkwNC0zMS45NjggMzEuODI0IDMxLjgyNCAwIDAgMC0zMS44NzItMzJsLTcyLjYyNCAwLjAzMiAzNi41MjgtNjMuMzEyYTMxLjk1MiAzMS45NTIgMCAwIDAtMTEuNzEyLTQzLjY5NiAzMS44NzIgMzEuODcyIDAgMCAwLTQzLjY4IDExLjcyOGwtMzYuNTYgNjMuMzQ0LTM2LjI1Ni02Mi45NDRhMzEuOTg0IDMxLjk4NCAwIDAgMC00My43NzYtMTEuNjk2IDMxLjg0IDMxLjg0IDAgMCAwLTExLjY4IDQzLjYzMmw1NC44MTYgOTQuOTI4TDU0NCAzODguMzA0di0xMDQuNjU2YTMyIDMyIDAgMSAwLTY0IDB2MTA0LjU2bC0xMDYuODE2LTE4NC45OTIgNTQuNzUyLTk0Ljg4YTMxLjkwNCAzMS45MDQgMCAwIDAtMTEuNzEyLTQzLjYzMiAzMS44NTYgMzEuODU2IDAgMCAwLTQzLjY2NCAxMS42MzJsLTM2LjMyIDYyLjkxMi0zNi41MjgtNjMuMjhBMzEuOTY4IDMxLjk2OCAwIDAgMCAyNTYgNjQuMjcyYTMxLjkyIDMxLjkyIDAgMCAwLTExLjY4IDQzLjY5NmwzNi41NiA2My4zMTItNzIuNjI0LTAuMDY0Yy0xNy43MTIgMC0zMiAxNC4zMi0zMiAzMi4wNjRhMzEuODQgMzEuODQgMCAwIDAgMzEuOTM2IDMxLjkzNmgxMDkuNmwxMDYuODQ4IDE4NS4wNTYtOTAuNjI0LTUyLjMwNGEzMS44ODggMzEuODg4IDAgMCAwLTQzLjY4IDExLjcxMiAzMiAzMiAwIDAgMCAxMS42NDggNDMuNzI4bDkwLjQ5NiA1Mi4yNTZIMTc4Ljk0NGwtNTQuNzg0LTk0Ljg4YTMxLjk2OCAzMS45NjggMCAwIDAtNDMuNjQ4LTExLjY2NCAzMS45MDQgMzEuOTA0IDAgMCAwLTExLjc0NCA0My42NjRsMzYuMzIgNjIuODhIMzJhMzIgMzIgMCAxIDAgMCA2NGg3My4wODhsLTM2LjMzNiA2Mi44NDhhMzIgMzIgMCAwIDAgNTUuMzkyIDMyLjAzMmw1NC43ODQtOTQuODhoMjEzLjY4bC05MC42MjQgNTIuMzJhMzEuOTA0IDMxLjkwNCAwIDAgMC0xMS42OCA0My42OCAzMS45ODQgMzEuOTg0IDAgMCAwIDQzLjY4IDExLjc0NGw5MC42MjQtNTIuMzItMTA2LjgxNiAxODQuOTkySDIwOC4xNmMtMTcuNjMyIDAtMzEuOTM2IDE0LjMyLTMxLjkzNiAzMnMxNC4yODggMzIgMzEuOTM2IDMyaDcyLjY1NmwtMzYuNTI4IDYzLjI4YTMxLjk2OCAzMS45NjggMCAxIDAgNTUuMzkyIDMxLjk2OGwzNi41MjgtNjMuMjggMzYuMjU2IDYyLjg4YTMyIDMyIDAgMCAwIDQzLjc0NCAxMS43MTIgMzEuOTM2IDMxLjkzNiAwIDAgMCAxMS42OC00My42OGwtNTQuNzUyLTk0Ljg4TDQ4MCA2MjcuMDU2djEwNC41OTJjMCAxNy42OTYgMTQuMzIgMzIgMzIgMzJzMzItMTQuMzA0IDMyLTMydi0xMDQuNTkybDEwNi44NDggMTg1LjAyNC01NC44MTYgOTQuODhhMzEuOTUyIDMxLjk1MiAwIDAgMCAxMS43MTIgNDMuNjhjMTUuMzEyIDguODE2IDM0Ljg4IDMuNjMyIDQzLjY4LTExLjY4bDM2LjM1Mi02Mi45MTIgMzYuNTI4IDYzLjI4YTMxLjk1MiAzMS45NTIgMCAwIDAgNDMuNjggMTEuNzQ0IDMyLjAxNiAzMi4wMTYgMCAwIDAgMTEuNzEyLTQzLjc0NGwtMzYuNTI4LTYzLjI4IDcyLjU2IDAuMDMyYTMyIDMyIDAgMCAwIDAuMDMyLTY0aC0xMDkuNTM2bC0xMDYuNzUyLTE4NC45NDQgOTAuNDY0IDUyLjI1NmEzMiAzMiAwIDAgMCA0My43MjgtMTEuNzQ0IDMxLjg3MiAzMS44NzIgMCAwIDAtMTEuNzI4LTQzLjY4bC05MC41OTItNTIuMzJoMjEzLjY4bDU0Ljc1MiA5NC44OGEzMS45MzYgMzEuOTM2IDAgMCAwIDQzLjY4IDExLjY4IDMxLjk1MiAzMS45NTIgMCAwIDAgMTEuNzEyLTQzLjY4bC0zNi4yODgtNjIuODhIOTkyYzE3LjY4IDAgMzItMTQuMzA0IDMyLTMyIDAtMTcuNjk2LTE0LjMyLTMyLTMyLTMyeiBtLTQ4MCA5NmE2NCA2NCAwIDEgMSAwLTEyOCA2NCA2NCAwIDAgMSAwIDEyOHoiLz48L3N2Zz4=;rotation=15;container=0;" parent="1" vertex="1">
          <mxGeometry x="-7153.34" y="-1649.35" width="59.21" height="59.21" as="geometry" />
        </mxCell>
        <mxCell id="wu85P2VpSHijpUglrD6K-39" value="" style="rounded=0;whiteSpace=wrap;html=1;fillColor=#FFFFFF;strokeColor=#82b366;gradientColor=#CEE0CD;container=0;" parent="1" vertex="1">
          <mxGeometry x="-6903" y="-1571.87" width="22" height="30" as="geometry" />
        </mxCell>
        <mxCell id="wu85P2VpSHijpUglrD6K-40" value="" style="rounded=0;whiteSpace=wrap;html=1;fillColor=#FFFFFF;strokeColor=#82b366;gradientColor=#CEE0CD;container=0;" parent="1" vertex="1">
          <mxGeometry x="-6881" y="-1571.87" width="22" height="30" as="geometry" />
        </mxCell>
        <mxCell id="wu85P2VpSHijpUglrD6K-41" value="" style="rounded=0;whiteSpace=wrap;html=1;fillColor=#FFFFFF;strokeColor=#82b366;gradientColor=#CEE0CD;container=0;" parent="1" vertex="1">
          <mxGeometry x="-6859" y="-1571.87" width="22" height="30" as="geometry" />
        </mxCell>
        <mxCell id="wu85P2VpSHijpUglrD6K-42" value="" style="rounded=0;whiteSpace=wrap;html=1;fillColor=#FFFFFF;strokeColor=#82b366;gradientColor=#CEE0CD;container=0;" parent="1" vertex="1">
          <mxGeometry x="-6837" y="-1571.87" width="22" height="30" as="geometry" />
        </mxCell>
        <mxCell id="wu85P2VpSHijpUglrD6K-43" value="" style="rounded=0;whiteSpace=wrap;html=1;fillColor=#FFFFFF;strokeColor=#82b366;gradientColor=#CEE0CD;container=0;" parent="1" vertex="1">
          <mxGeometry x="-6815" y="-1571.87" width="22" height="30" as="geometry" />
        </mxCell>
        <mxCell id="wu85P2VpSHijpUglrD6K-44" value="&lt;p style=&quot;line-height: 149%;&quot;&gt;&lt;font style=&quot;font-size: 28px;&quot;&gt;ID Data Encoder&lt;/font&gt;&lt;/p&gt;" style="text;html=1;align=center;verticalAlign=middle;whiteSpace=wrap;rounded=0;container=0;" parent="1" vertex="1">
          <mxGeometry x="-7124" y="-1456.87" width="209" height="30" as="geometry" />
        </mxCell>
        <mxCell id="wu85P2VpSHijpUglrD6K-150" style="edgeStyle=orthogonalEdgeStyle;rounded=0;orthogonalLoop=1;jettySize=auto;html=1;exitX=1;exitY=0.5;exitDx=0;exitDy=0;entryX=0;entryY=0.5;entryDx=0;entryDy=0;" parent="1" source="wu85P2VpSHijpUglrD6K-55" target="wu85P2VpSHijpUglrD6K-139" edge="1">
          <mxGeometry relative="1" as="geometry" />
        </mxCell>
        <mxCell id="wu85P2VpSHijpUglrD6K-55" value="&lt;font style=&quot;font-size: 28px;&quot;&gt;Knowledge Level Encoder&lt;/font&gt;" style="rounded=1;whiteSpace=wrap;html=1;container=0;fillColor=#f5f5f5;fontColor=#333333;strokeColor=#666666;" parent="1" vertex="1">
          <mxGeometry x="-7140.23" y="-1415.87" width="217" height="59.5" as="geometry" />
        </mxCell>
        <mxCell id="wu85P2VpSHijpUglrD6K-115" value="" style="shape=image;verticalLabelPosition=bottom;labelBackgroundColor=default;verticalAlign=top;aspect=fixed;imageAspect=0;image=data:image/svg+xml,PHN2ZyB4bWxuczp4bGluaz0iaHR0cDovL3d3dy53My5vcmcvMTk5OS94bGluayIgeG1sbnM9Imh0dHA6Ly93d3cudzMub3JnLzIwMDAvc3ZnIiBoZWlnaHQ9IjIwMCIgd2lkdGg9IjIwMCIgdmVyc2lvbj0iMS4xIiB2aWV3Qm94PSIwIDAgMTAyNCAxMDI0IiBjbGFzcz0iaWNvbiI+PHBhdGggZmlsbD0iI0ZBM0YxRSIgZD0iTTM5MS45ODY3NjggMTAxMi4zNTk1MzFhMTg5LjYyMzIzNSAxODkuNjIzMjM1IDAgMCAxLTEwMy4yODk3NTktMTU2Ljc1ODMxMWMtMy40OTIxNDEtMTI1LjQ4NDI1MiA5MC4yMTM2MzItMTg2Ljk4NDcyOCAxNDUuNDI4MjU2LTI3MS4xMDY1MTUgNzkuMjMyNzktMTIwLjc4OTI2MyA1Ny43NzU1MjYtMTk1LjgzMTQ4NSA1Ny43NzU1MjYtMTk1LjgzMTQ4NXM2Ni4xMTc4NjIgMzQuNTMzMzkgMTA0LjYwOTAxMiAxNjMuNDcwOTgyYzExLjE3NDg1IDM2LjI0MDY1OSAxNC44NjA5OTggNzQuMzgyNTk1IDEwLjgyNTYzNSAxMTIuMDk3NzEzYTQ5NC4wNjAyOTIgNDk0LjA2MDI5MiAwIDAgMS00OC4wNzUxMzUgMTcyLjM5NTM0MXM3My4yNTczNDktMTQuNzQ0NTk0IDkzLjYyODE2OS0xMzkuMDI1OTk3YTIxMS41NDYxMTcgMjExLjU0NjExNyAwIDAgMSA2OC41NjIzNjEgMTI4LjgyMTE4NiAyMDEuODA2OTI1IDIwMS44MDY5MjUgMCAwIDEtMTI5Ljc5MTIyNiAxOTcuMDczMTM1IDQxMS44Nzg1ODMgNDExLjg3ODU4MyAwIDAgMCAyNzcuNTg2Mzc2LTIyNC4wMDE0MTljMzIuOTQyNTI2LTg3LjUzNjMyNCA0MS41OTUyNzUtMTgyLjM2NzM0MiAyNS4xMDQ2MTEtMjc0LjQ0MzQ1YTM4Mi43Mzg2MSAzODIuNzM4NjEgMCAwIDEgMzEuMTk2NDU2LTE4OS4wNDEyMTEgMjYzLjU0MDIxMSAyNjMuNTQwMjExIDAgMCAwLTEzNS44MDU0NjggMTA5LjQyMDQwNiAzMTguODcxMjM4IDMxOC44NzEyMzggMCAwIDAtMzcuMTcxODk2IDk5Ljc5NzYxOCAzNTYuMDQzMTM1IDM1Ni4wNDMxMzUgMCAwIDAtMzEuNTA2ODY5LTE0OC44ODE1OTRjLTM3LjAxNjY5LTkzLjc4MzM3Ni03MC44OTA0NTQtMTI3LjAzNjMxNS05MS4zNzc2NzktMTk2LjcyMzkyMWEyNTIuMDU0OTQ4IDI1Mi4wNTQ5NDggMCAwIDEgMzIuNTkzMzEyLTE4My45NTgyMDZzLTIzMi44ODY5NzYgNDAuMzUzNjI1LTMzOC43Mzc2MzggMjI5LjU1MDA0MmMtOTMuNjY2OTcxIDE2OC4wMTA3NjQtNTUuMjE0NjIzIDI2OC44MTcyMjMtNTUuMjE0NjIzIDI2OC44MTcyMjNhMjU5LjE5NDQzNiAyNTkuMTk0NDM2IDAgMCAxLTYwLjE0MjQyMS04Mi45MTg5MzkgMjA1LjM3NjY2OSAyMDUuMzc2NjY5IDAgMCAxLTE1Ljc1MzQzNC05MS44MDQ0OTZzLTE2NS41NjYyNjYgMTY5Ljk4OTY0NC04NC45NzU0MjIgMzg0LjEzNTQ2NmE0NTAuNzk2NTUgNDUwLjc5NjU1IDAgMCAwIDI4NC42MDk0NTkgMjg4LjgzODgyOSIvPjwvc3ZnPg==;" parent="1" vertex="1">
          <mxGeometry x="-7175" y="-1500.87" width="53" height="53" as="geometry" />
        </mxCell>
        <mxCell id="wu85P2VpSHijpUglrD6K-118" value="&lt;font size=&quot;1&quot; style=&quot;&quot;&gt;&lt;b style=&quot;font-size: 31px;&quot;&gt;Encoder Module&lt;/b&gt;&lt;/font&gt;" style="text;html=1;align=center;verticalAlign=middle;whiteSpace=wrap;rounded=0;" parent="1" vertex="1">
          <mxGeometry x="-7151" y="-1684.87" width="266" height="30" as="geometry" />
        </mxCell>
        <mxCell id="wu85P2VpSHijpUglrD6K-125" style="edgeStyle=orthogonalEdgeStyle;rounded=0;orthogonalLoop=1;jettySize=auto;html=1;exitX=1;exitY=0.5;exitDx=0;exitDy=0;entryX=0;entryY=0.5;entryDx=0;entryDy=0;" parent="1" source="wu85P2VpSHijpUglrD6K-119" target="wu85P2VpSHijpUglrD6K-34" edge="1">
          <mxGeometry relative="1" as="geometry" />
        </mxCell>
        <mxCell id="wu85P2VpSHijpUglrD6K-119" value="&lt;font style=&quot;font-size: 28px;&quot;&gt;Prompt Text&lt;/font&gt;" style="text;html=1;align=center;verticalAlign=middle;whiteSpace=wrap;rounded=0;" parent="1" vertex="1">
          <mxGeometry x="-7323.5" y="-1578.87" width="175" height="30" as="geometry" />
        </mxCell>
        <mxCell id="wu85P2VpSHijpUglrD6K-134" value="" style="group" parent="1" vertex="1" connectable="0">
          <mxGeometry x="-7328" y="-1413.87" width="150" height="55" as="geometry" />
        </mxCell>
        <mxCell id="wu85P2VpSHijpUglrD6K-127" value="" style="rounded=0;whiteSpace=wrap;html=1;fillColor=none;container=0;" parent="wu85P2VpSHijpUglrD6K-134" vertex="1">
          <mxGeometry width="150" height="55" as="geometry" />
        </mxCell>
        <mxCell id="wu85P2VpSHijpUglrD6K-128" value="&lt;p style=&quot;line-height: 171%;&quot;&gt;&lt;font style=&quot;font-size: 28px;&quot;&gt;Learning History&lt;/font&gt;&lt;/p&gt;" style="text;html=1;align=center;verticalAlign=middle;whiteSpace=wrap;rounded=0;" parent="wu85P2VpSHijpUglrD6K-134" vertex="1">
          <mxGeometry x="1" y="13" width="148" height="30" as="geometry" />
        </mxCell>
        <mxCell id="wu85P2VpSHijpUglrD6K-137" value="" style="group;fillColor=#dae8fc;strokeColor=#6c8ebf;container=0;" parent="1" vertex="1" connectable="0">
          <mxGeometry x="-6873.5" y="-1401.37" width="88" height="30" as="geometry" />
        </mxCell>
        <mxCell id="wu85P2VpSHijpUglrD6K-139" value="" style="rounded=0;whiteSpace=wrap;html=1;fillColor=#dae8fc;strokeColor=#6c8ebf;container=0;" parent="1" vertex="1">
          <mxGeometry x="-6873.5" y="-1401.37" width="22" height="30" as="geometry" />
        </mxCell>
        <mxCell id="wu85P2VpSHijpUglrD6K-140" value="" style="rounded=0;whiteSpace=wrap;html=1;fillColor=#dae8fc;strokeColor=#6c8ebf;container=0;" parent="1" vertex="1">
          <mxGeometry x="-6851.5" y="-1401.37" width="22" height="30" as="geometry" />
        </mxCell>
        <mxCell id="wu85P2VpSHijpUglrD6K-141" value="" style="rounded=0;whiteSpace=wrap;html=1;fillColor=#dae8fc;strokeColor=#6C8EBF;container=0;" parent="1" vertex="1">
          <mxGeometry x="-6829.5" y="-1401.37" width="22" height="30" as="geometry" />
        </mxCell>
        <mxCell id="wu85P2VpSHijpUglrD6K-145" value="&lt;font style=&quot;font-size: 28px;&quot;&gt;ID Emb.&lt;/font&gt;" style="text;html=1;align=center;verticalAlign=middle;whiteSpace=wrap;rounded=0;fontSize=14;container=0;" parent="1" vertex="1">
          <mxGeometry x="-6895.25" y="-1437.87" width="141.5" height="30" as="geometry" />
        </mxCell>
        <mxCell id="wu85P2VpSHijpUglrD6K-149" style="edgeStyle=orthogonalEdgeStyle;rounded=0;orthogonalLoop=1;jettySize=auto;html=1;exitX=1;exitY=0.5;exitDx=0;exitDy=0;" parent="1" source="wu85P2VpSHijpUglrD6K-128" target="wu85P2VpSHijpUglrD6K-55" edge="1">
          <mxGeometry relative="1" as="geometry" />
        </mxCell>
        <mxCell id="wu85P2VpSHijpUglrD6K-162" style="edgeStyle=orthogonalEdgeStyle;rounded=0;orthogonalLoop=1;jettySize=auto;html=1;exitX=1;exitY=0.5;exitDx=0;exitDy=0;entryX=0;entryY=0.5;entryDx=0;entryDy=0;" parent="1" source="wu85P2VpSHijpUglrD6K-151" target="wu85P2VpSHijpUglrD6K-157" edge="1">
          <mxGeometry relative="1" as="geometry" />
        </mxCell>
        <mxCell id="wu85P2VpSHijpUglrD6K-151" value="&lt;span style=&quot;color: rgb(0, 0, 0); font-size: 28px;&quot;&gt;&lt;font style=&quot;font-size: 28px;&quot;&gt;Learning Targets&lt;/font&gt;&lt;/span&gt;&lt;div style=&quot;color: rgb(0, 0, 0); font-size: 28px;&quot;&gt;&lt;font style=&quot;font-size: 28px;&quot;&gt;Encoder&lt;/font&gt;&lt;/div&gt;" style="rounded=1;whiteSpace=wrap;html=1;container=0;fillColor=#f5f5f5;fontColor=#333333;strokeColor=#666666;" parent="1" vertex="1">
          <mxGeometry x="-7139.5" y="-1336.87" width="217" height="59.5" as="geometry" />
        </mxCell>
        <mxCell id="wu85P2VpSHijpUglrD6K-171" style="edgeStyle=orthogonalEdgeStyle;rounded=0;orthogonalLoop=1;jettySize=auto;html=1;exitX=1;exitY=0.5;exitDx=0;exitDy=0;entryX=0;entryY=0.5;entryDx=0;entryDy=0;" parent="1" source="wu85P2VpSHijpUglrD6K-152" target="wu85P2VpSHijpUglrD6K-167" edge="1">
          <mxGeometry relative="1" as="geometry" />
        </mxCell>
        <mxCell id="wu85P2VpSHijpUglrD6K-152" value="&lt;p style=&quot;line-height: 170%;&quot;&gt;&lt;span style=&quot;color: rgb(0, 0, 0);&quot;&gt;&lt;font style=&quot;font-size: 28px;&quot;&gt;Candidate Set Encoder&lt;/font&gt;&lt;/span&gt;&lt;/p&gt;" style="rounded=1;whiteSpace=wrap;html=1;container=0;fillColor=#f5f5f5;fontColor=#333333;strokeColor=#666666;" parent="1" vertex="1">
          <mxGeometry x="-7140.67" y="-1247.37" width="217" height="59.5" as="geometry" />
        </mxCell>
        <mxCell id="wu85P2VpSHijpUglrD6K-154" value="" style="group" parent="1" vertex="1" connectable="0">
          <mxGeometry x="-7325" y="-1332.87" width="150" height="55" as="geometry" />
        </mxCell>
        <mxCell id="wu85P2VpSHijpUglrD6K-129" value="" style="rounded=0;whiteSpace=wrap;html=1;fillColor=none;container=0;" parent="wu85P2VpSHijpUglrD6K-154" vertex="1">
          <mxGeometry width="150" height="55" as="geometry" />
        </mxCell>
        <mxCell id="wu85P2VpSHijpUglrD6K-130" value="&lt;p style=&quot;line-height: 171%;&quot;&gt;&lt;font style=&quot;font-size: 28px;&quot;&gt;Learning Targets&lt;/font&gt;&lt;/p&gt;" style="text;html=1;align=center;verticalAlign=middle;whiteSpace=wrap;rounded=0;" parent="wu85P2VpSHijpUglrD6K-154" vertex="1">
          <mxGeometry x="1" y="11" width="148" height="30" as="geometry" />
        </mxCell>
        <mxCell id="wu85P2VpSHijpUglrD6K-155" style="edgeStyle=orthogonalEdgeStyle;rounded=0;orthogonalLoop=1;jettySize=auto;html=1;exitX=1;exitY=0.5;exitDx=0;exitDy=0;" parent="1" source="wu85P2VpSHijpUglrD6K-130" target="wu85P2VpSHijpUglrD6K-151" edge="1">
          <mxGeometry relative="1" as="geometry" />
        </mxCell>
        <mxCell id="wu85P2VpSHijpUglrD6K-156" value="" style="group;fillColor=#f8cecc;strokeColor=#b85450;container=0;" parent="1" vertex="1" connectable="0">
          <mxGeometry x="-6873.5" y="-1321.87" width="88" height="30" as="geometry" />
        </mxCell>
        <mxCell id="wu85P2VpSHijpUglrD6K-157" value="" style="rounded=0;whiteSpace=wrap;html=1;fillColor=#f8cecc;strokeColor=#b85450;container=0;" parent="1" vertex="1">
          <mxGeometry x="-6873.5" y="-1321.87" width="22" height="30" as="geometry" />
        </mxCell>
        <mxCell id="wu85P2VpSHijpUglrD6K-158" value="" style="rounded=0;whiteSpace=wrap;html=1;fillColor=#f8cecc;strokeColor=#b85450;container=0;" parent="1" vertex="1">
          <mxGeometry x="-6851.5" y="-1321.87" width="22" height="30" as="geometry" />
        </mxCell>
        <mxCell id="wu85P2VpSHijpUglrD6K-159" value="" style="rounded=0;whiteSpace=wrap;html=1;fillColor=#f8cecc;strokeColor=#b85450;container=0;" parent="1" vertex="1">
          <mxGeometry x="-6829.5" y="-1321.87" width="22" height="30" as="geometry" />
        </mxCell>
        <mxCell id="wu85P2VpSHijpUglrD6K-160" value="" style="rounded=0;whiteSpace=wrap;html=1;fillColor=#f8cecc;strokeColor=#b85450;container=0;" parent="1" vertex="1">
          <mxGeometry x="-6807.5" y="-1321.87" width="22" height="30" as="geometry" />
        </mxCell>
        <mxCell id="wu85P2VpSHijpUglrD6K-163" value="" style="group" parent="1" vertex="1" connectable="0">
          <mxGeometry x="-7325" y="-1241.87" width="151" height="55" as="geometry" />
        </mxCell>
        <mxCell id="wu85P2VpSHijpUglrD6K-132" value="" style="rounded=0;whiteSpace=wrap;html=1;fillColor=none;container=0;" parent="wu85P2VpSHijpUglrD6K-163" vertex="1">
          <mxGeometry width="150" height="55" as="geometry" />
        </mxCell>
        <mxCell id="wu85P2VpSHijpUglrD6K-133" value="&lt;p style=&quot;line-height: 140%;&quot;&gt;&lt;font style=&quot;font-size: 28px;&quot;&gt;Candidate Set&lt;/font&gt;&lt;/p&gt;" style="text;html=1;align=center;verticalAlign=middle;whiteSpace=wrap;rounded=0;" parent="wu85P2VpSHijpUglrD6K-163" vertex="1">
          <mxGeometry x="3" y="16" width="148" height="30" as="geometry" />
        </mxCell>
        <mxCell id="wu85P2VpSHijpUglrD6K-165" style="edgeStyle=orthogonalEdgeStyle;rounded=0;orthogonalLoop=1;jettySize=auto;html=1;exitX=1;exitY=0.5;exitDx=0;exitDy=0;entryX=0.008;entryY=0.621;entryDx=0;entryDy=0;entryPerimeter=0;" parent="1" source="wu85P2VpSHijpUglrD6K-133" target="wu85P2VpSHijpUglrD6K-152" edge="1">
          <mxGeometry relative="1" as="geometry" />
        </mxCell>
        <mxCell id="wu85P2VpSHijpUglrD6K-166" value="" style="group;fillColor=#fff2cc;strokeColor=#d6b656;container=0;" parent="1" vertex="1" connectable="0">
          <mxGeometry x="-6871.5" y="-1232.62" width="88" height="30" as="geometry" />
        </mxCell>
        <mxCell id="wu85P2VpSHijpUglrD6K-167" value="" style="rounded=0;whiteSpace=wrap;html=1;fillColor=#fff2cc;strokeColor=#d6b656;container=0;" parent="1" vertex="1">
          <mxGeometry x="-6871.5" y="-1232.62" width="22" height="30" as="geometry" />
        </mxCell>
        <mxCell id="wu85P2VpSHijpUglrD6K-168" value="" style="rounded=0;whiteSpace=wrap;html=1;fillColor=#fff2cc;strokeColor=#d6b656;container=0;" parent="1" vertex="1">
          <mxGeometry x="-6849.5" y="-1232.62" width="22" height="30" as="geometry" />
        </mxCell>
        <mxCell id="wu85P2VpSHijpUglrD6K-169" value="" style="rounded=0;whiteSpace=wrap;html=1;fillColor=#fff2cc;strokeColor=#d6b656;container=0;" parent="1" vertex="1">
          <mxGeometry x="-6827.5" y="-1232.62" width="22" height="30" as="geometry" />
        </mxCell>
        <mxCell id="wu85P2VpSHijpUglrD6K-170" value="" style="rounded=0;whiteSpace=wrap;html=1;fillColor=#fff2cc;strokeColor=#d6b656;container=0;" parent="1" vertex="1">
          <mxGeometry x="-6805.5" y="-1232.62" width="22" height="30" as="geometry" />
        </mxCell>
        <mxCell id="wu85P2VpSHijpUglrD6K-225" value="" style="group;fillColor=#dae8fc;strokeColor=#6c8ebf;" parent="1" vertex="1" connectable="0">
          <mxGeometry x="-7252" y="-1127.87" width="110" height="40" as="geometry" />
        </mxCell>
        <mxCell id="wu85P2VpSHijpUglrD6K-226" value="" style="rounded=0;whiteSpace=wrap;html=1;fillColor=#dae8fc;strokeColor=#6c8ebf;" parent="wu85P2VpSHijpUglrD6K-225" vertex="1">
          <mxGeometry width="27.5" height="40" as="geometry" />
        </mxCell>
        <mxCell id="wu85P2VpSHijpUglrD6K-227" value="" style="rounded=0;whiteSpace=wrap;html=1;fillColor=#dae8fc;strokeColor=#6c8ebf;" parent="wu85P2VpSHijpUglrD6K-225" vertex="1">
          <mxGeometry x="27.5" width="27.5" height="40" as="geometry" />
        </mxCell>
        <mxCell id="wu85P2VpSHijpUglrD6K-228" value="" style="rounded=0;whiteSpace=wrap;html=1;fillColor=#dae8fc;strokeColor=#6c8ebf;" parent="wu85P2VpSHijpUglrD6K-225" vertex="1">
          <mxGeometry x="55" width="27.5" height="40" as="geometry" />
        </mxCell>
        <mxCell id="wu85P2VpSHijpUglrD6K-229" value="" style="rounded=0;whiteSpace=wrap;html=1;fillColor=#dae8fc;strokeColor=#6c8ebf;" parent="wu85P2VpSHijpUglrD6K-225" vertex="1">
          <mxGeometry x="82.5" width="27.5" height="40" as="geometry" />
        </mxCell>
        <mxCell id="wu85P2VpSHijpUglrD6K-230" value="" style="group;fillColor=#f8cecc;strokeColor=#b85450;" parent="1" vertex="1" connectable="0">
          <mxGeometry x="-7092" y="-1127.87" width="110" height="40" as="geometry" />
        </mxCell>
        <mxCell id="wu85P2VpSHijpUglrD6K-231" value="" style="rounded=0;whiteSpace=wrap;html=1;fillColor=#f8cecc;strokeColor=#b85450;" parent="wu85P2VpSHijpUglrD6K-230" vertex="1">
          <mxGeometry width="27.5" height="40" as="geometry" />
        </mxCell>
        <mxCell id="wu85P2VpSHijpUglrD6K-232" value="" style="rounded=0;whiteSpace=wrap;html=1;fillColor=#f8cecc;strokeColor=#b85450;" parent="wu85P2VpSHijpUglrD6K-230" vertex="1">
          <mxGeometry x="27.5" width="27.5" height="40" as="geometry" />
        </mxCell>
        <mxCell id="wu85P2VpSHijpUglrD6K-233" value="" style="rounded=0;whiteSpace=wrap;html=1;fillColor=#f8cecc;strokeColor=#b85450;" parent="wu85P2VpSHijpUglrD6K-230" vertex="1">
          <mxGeometry x="55" width="27.5" height="40" as="geometry" />
        </mxCell>
        <mxCell id="wu85P2VpSHijpUglrD6K-234" value="" style="rounded=0;whiteSpace=wrap;html=1;fillColor=#f8cecc;strokeColor=#b85450;" parent="wu85P2VpSHijpUglrD6K-230" vertex="1">
          <mxGeometry x="82.5" width="27.5" height="40" as="geometry" />
        </mxCell>
        <mxCell id="wu85P2VpSHijpUglrD6K-235" value="" style="group;fillColor=#fff2cc;strokeColor=#d6b656;" parent="1" vertex="1" connectable="0">
          <mxGeometry x="-6932" y="-1127.87" width="100" height="40" as="geometry" />
        </mxCell>
        <mxCell id="wu85P2VpSHijpUglrD6K-236" value="" style="rounded=0;whiteSpace=wrap;html=1;fillColor=#fff2cc;strokeColor=#d6b656;" parent="wu85P2VpSHijpUglrD6K-235" vertex="1">
          <mxGeometry width="25" height="40" as="geometry" />
        </mxCell>
        <mxCell id="wu85P2VpSHijpUglrD6K-237" value="" style="rounded=0;whiteSpace=wrap;html=1;fillColor=#fff2cc;strokeColor=#d6b656;" parent="wu85P2VpSHijpUglrD6K-235" vertex="1">
          <mxGeometry x="25" width="25" height="40" as="geometry" />
        </mxCell>
        <mxCell id="wu85P2VpSHijpUglrD6K-238" value="" style="rounded=0;whiteSpace=wrap;html=1;fillColor=#fff2cc;strokeColor=#d6b656;" parent="wu85P2VpSHijpUglrD6K-235" vertex="1">
          <mxGeometry x="50" width="25" height="40" as="geometry" />
        </mxCell>
        <mxCell id="wu85P2VpSHijpUglrD6K-239" value="" style="rounded=0;whiteSpace=wrap;html=1;fillColor=#fff2cc;strokeColor=#d6b656;" parent="wu85P2VpSHijpUglrD6K-235" vertex="1">
          <mxGeometry x="75" width="25" height="40" as="geometry" />
        </mxCell>
        <mxCell id="wu85P2VpSHijpUglrD6K-323" style="edgeStyle=orthogonalEdgeStyle;rounded=0;orthogonalLoop=1;jettySize=auto;html=1;exitX=0.5;exitY=1;exitDx=0;exitDy=0;entryX=0.75;entryY=0;entryDx=0;entryDy=0;" parent="1" edge="1">
          <mxGeometry relative="1" as="geometry">
            <mxPoint x="-7030.25" y="-987.8699999999997" as="sourcePoint" />
            <mxPoint x="-7029" y="-947.8699999999999" as="targetPoint" />
            <Array as="points">
              <mxPoint x="-7029" y="-987.8699999999999" />
            </Array>
          </mxGeometry>
        </mxCell>
        <mxCell id="wu85P2VpSHijpUglrD6K-325" style="edgeStyle=orthogonalEdgeStyle;rounded=0;orthogonalLoop=1;jettySize=auto;html=1;exitX=0.5;exitY=1;exitDx=0;exitDy=0;entryX=1;entryY=0;entryDx=0;entryDy=0;" parent="1" source="wu85P2VpSHijpUglrD6K-240" target="wu85P2VpSHijpUglrD6K-311" edge="1">
          <mxGeometry relative="1" as="geometry" />
        </mxCell>
        <mxCell id="wu85P2VpSHijpUglrD6K-326" style="edgeStyle=orthogonalEdgeStyle;rounded=0;orthogonalLoop=1;jettySize=auto;html=1;exitX=0.5;exitY=1;exitDx=0;exitDy=0;entryX=0.5;entryY=0;entryDx=0;entryDy=0;" parent="1" source="wu85P2VpSHijpUglrD6K-240" target="wu85P2VpSHijpUglrD6K-268" edge="1">
          <mxGeometry relative="1" as="geometry" />
        </mxCell>
        <mxCell id="wu85P2VpSHijpUglrD6K-240" value="&lt;font style=&quot;font-size: 28px;&quot;&gt;Projection Linear&lt;/font&gt;" style="rounded=1;whiteSpace=wrap;html=1;fillColor=none;" parent="1" vertex="1">
          <mxGeometry x="-7203.5" y="-1045.3899999999999" width="348.5" height="57.52" as="geometry" />
        </mxCell>
        <mxCell id="wu85P2VpSHijpUglrD6K-241" value="" style="shape=image;verticalLabelPosition=bottom;labelBackgroundColor=default;verticalAlign=top;aspect=fixed;imageAspect=0;image=data:image/svg+xml,PHN2ZyB4bWxuczp4bGluaz0iaHR0cDovL3d3dy53My5vcmcvMTk5OS94bGluayIgeG1sbnM9Imh0dHA6Ly93d3cudzMub3JnLzIwMDAvc3ZnIiBoZWlnaHQ9IjIwMCIgd2lkdGg9IjIwMCIgdmVyc2lvbj0iMS4xIiB2aWV3Qm94PSIwIDAgMTAyNCAxMDI0IiBjbGFzcz0iaWNvbiI+PHBhdGggZmlsbD0iI0ZBM0YxRSIgZD0iTTM5MS45ODY3NjggMTAxMi4zNTk1MzFhMTg5LjYyMzIzNSAxODkuNjIzMjM1IDAgMCAxLTEwMy4yODk3NTktMTU2Ljc1ODMxMWMtMy40OTIxNDEtMTI1LjQ4NDI1MiA5MC4yMTM2MzItMTg2Ljk4NDcyOCAxNDUuNDI4MjU2LTI3MS4xMDY1MTUgNzkuMjMyNzktMTIwLjc4OTI2MyA1Ny43NzU1MjYtMTk1LjgzMTQ4NSA1Ny43NzU1MjYtMTk1LjgzMTQ4NXM2Ni4xMTc4NjIgMzQuNTMzMzkgMTA0LjYwOTAxMiAxNjMuNDcwOTgyYzExLjE3NDg1IDM2LjI0MDY1OSAxNC44NjA5OTggNzQuMzgyNTk1IDEwLjgyNTYzNSAxMTIuMDk3NzEzYTQ5NC4wNjAyOTIgNDk0LjA2MDI5MiAwIDAgMS00OC4wNzUxMzUgMTcyLjM5NTM0MXM3My4yNTczNDktMTQuNzQ0NTk0IDkzLjYyODE2OS0xMzkuMDI1OTk3YTIxMS41NDYxMTcgMjExLjU0NjExNyAwIDAgMSA2OC41NjIzNjEgMTI4LjgyMTE4NiAyMDEuODA2OTI1IDIwMS44MDY5MjUgMCAwIDEtMTI5Ljc5MTIyNiAxOTcuMDczMTM1IDQxMS44Nzg1ODMgNDExLjg3ODU4MyAwIDAgMCAyNzcuNTg2Mzc2LTIyNC4wMDE0MTljMzIuOTQyNTI2LTg3LjUzNjMyNCA0MS41OTUyNzUtMTgyLjM2NzM0MiAyNS4xMDQ2MTEtMjc0LjQ0MzQ1YTM4Mi43Mzg2MSAzODIuNzM4NjEgMCAwIDEgMzEuMTk2NDU2LTE4OS4wNDEyMTEgMjYzLjU0MDIxMSAyNjMuNTQwMjExIDAgMCAwLTEzNS44MDU0NjggMTA5LjQyMDQwNiAzMTguODcxMjM4IDMxOC44NzEyMzggMCAwIDAtMzcuMTcxODk2IDk5Ljc5NzYxOCAzNTYuMDQzMTM1IDM1Ni4wNDMxMzUgMCAwIDAtMzEuNTA2ODY5LTE0OC44ODE1OTRjLTM3LjAxNjY5LTkzLjc4MzM3Ni03MC44OTA0NTQtMTI3LjAzNjMxNS05MS4zNzc2NzktMTk2LjcyMzkyMWEyNTIuMDU0OTQ4IDI1Mi4wNTQ5NDggMCAwIDEgMzIuNTkzMzEyLTE4My45NTgyMDZzLTIzMi44ODY5NzYgNDAuMzUzNjI1LTMzOC43Mzc2MzggMjI5LjU1MDA0MmMtOTMuNjY2OTcxIDE2OC4wMTA3NjQtNTUuMjE0NjIzIDI2OC44MTcyMjMtNTUuMjE0NjIzIDI2OC44MTcyMjNhMjU5LjE5NDQzNiAyNTkuMTk0NDM2IDAgMCAxLTYwLjE0MjQyMS04Mi45MTg5MzkgMjA1LjM3NjY2OSAyMDUuMzc2NjY5IDAgMCAxLTE1Ljc1MzQzNC05MS44MDQ0OTZzLTE2NS41NjYyNjYgMTY5Ljk4OTY0NC04NC45NzU0MjIgMzg0LjEzNTQ2NmE0NTAuNzk2NTUgNDUwLjc5NjU1IDAgMCAwIDI4NC42MDk0NTkgMjg4LjgzODgyOSIvPjwvc3ZnPg==;" parent="1" vertex="1">
          <mxGeometry x="-7227.5" y="-1077.87" width="60" height="60" as="geometry" />
        </mxCell>
        <mxCell id="wu85P2VpSHijpUglrD6K-265" value="" style="group;fillColor=#FFFFFF;gradientColor=#DAE8FC;strokeColor=#6C8EBF;" parent="1" vertex="1" connectable="0">
          <mxGeometry x="-7279" y="-949.8699999999999" width="140" height="40" as="geometry" />
        </mxCell>
        <mxCell id="wu85P2VpSHijpUglrD6K-266" value="" style="rounded=0;whiteSpace=wrap;html=1;fillColor=#FFFFFF;strokeColor=#6C8EBF;gradientColor=#DAE8FC;" parent="wu85P2VpSHijpUglrD6K-265" vertex="1">
          <mxGeometry width="28.000000000000004" height="40" as="geometry" />
        </mxCell>
        <mxCell id="wu85P2VpSHijpUglrD6K-267" value="" style="rounded=0;whiteSpace=wrap;html=1;fillColor=#FFFFFF;strokeColor=#6C8EBF;gradientColor=#DAE8FC;" parent="wu85P2VpSHijpUglrD6K-265" vertex="1">
          <mxGeometry x="28.000000000000004" width="28.000000000000004" height="40" as="geometry" />
        </mxCell>
        <mxCell id="wu85P2VpSHijpUglrD6K-268" value="" style="rounded=0;whiteSpace=wrap;html=1;fillColor=#FFFFFF;strokeColor=#6C8EBF;gradientColor=#DAE8FC;" parent="wu85P2VpSHijpUglrD6K-265" vertex="1">
          <mxGeometry x="56.00000000000001" width="28.000000000000004" height="40" as="geometry" />
        </mxCell>
        <mxCell id="wu85P2VpSHijpUglrD6K-269" value="" style="rounded=0;whiteSpace=wrap;html=1;fillColor=#FFFFFF;strokeColor=#6C8EBF;gradientColor=#DAE8FC;" parent="wu85P2VpSHijpUglrD6K-265" vertex="1">
          <mxGeometry x="84.00000000000001" width="28.000000000000004" height="40" as="geometry" />
        </mxCell>
        <mxCell id="wu85P2VpSHijpUglrD6K-270" value="" style="rounded=0;whiteSpace=wrap;html=1;fillColor=#FFFFFF;strokeColor=#6C8EBF;gradientColor=#DAE8FC;" parent="wu85P2VpSHijpUglrD6K-265" vertex="1">
          <mxGeometry x="112.00000000000001" width="28.000000000000004" height="40" as="geometry" />
        </mxCell>
        <mxCell id="wu85P2VpSHijpUglrD6K-302" value="" style="group;fillColor=#FFFFFF;gradientColor=#F8CECC;strokeColor=#B85450;" parent="1" vertex="1" connectable="0">
          <mxGeometry x="-7105" y="-947.8699999999999" width="140" height="40" as="geometry" />
        </mxCell>
        <mxCell id="wu85P2VpSHijpUglrD6K-303" value="" style="rounded=0;whiteSpace=wrap;html=1;fillColor=#FFFFFF;strokeColor=#B85450;gradientColor=#F8CECC;" parent="wu85P2VpSHijpUglrD6K-302" vertex="1">
          <mxGeometry width="28.000000000000004" height="40" as="geometry" />
        </mxCell>
        <mxCell id="wu85P2VpSHijpUglrD6K-304" value="" style="rounded=0;whiteSpace=wrap;html=1;fillColor=#FFFFFF;strokeColor=#B85450;gradientColor=#F8CECC;" parent="wu85P2VpSHijpUglrD6K-302" vertex="1">
          <mxGeometry x="28.000000000000004" width="28.000000000000004" height="40" as="geometry" />
        </mxCell>
        <mxCell id="wu85P2VpSHijpUglrD6K-305" value="" style="rounded=0;whiteSpace=wrap;html=1;fillColor=#FFFFFF;strokeColor=#B85450;gradientColor=#F8CECC;" parent="wu85P2VpSHijpUglrD6K-302" vertex="1">
          <mxGeometry x="56.00000000000001" width="28.000000000000004" height="40" as="geometry" />
        </mxCell>
        <mxCell id="wu85P2VpSHijpUglrD6K-306" value="" style="rounded=0;whiteSpace=wrap;html=1;fillColor=#FFFFFF;strokeColor=#B85450;gradientColor=#F8CECC;" parent="wu85P2VpSHijpUglrD6K-302" vertex="1">
          <mxGeometry x="84.00000000000001" width="28.000000000000004" height="40" as="geometry" />
        </mxCell>
        <mxCell id="wu85P2VpSHijpUglrD6K-307" value="" style="rounded=0;whiteSpace=wrap;html=1;fillColor=#FFFFFF;strokeColor=#B85450;gradientColor=#F8CECC;" parent="wu85P2VpSHijpUglrD6K-302" vertex="1">
          <mxGeometry x="112.00000000000001" width="28.000000000000004" height="40" as="geometry" />
        </mxCell>
        <mxCell id="wu85P2VpSHijpUglrD6K-308" value="" style="group;fillColor=#FFFFFF;gradientColor=#FFF2CC;strokeColor=#D6B656;" parent="1" vertex="1" connectable="0">
          <mxGeometry x="-6922.5" y="-947.8699999999999" width="140" height="40" as="geometry" />
        </mxCell>
        <mxCell id="wu85P2VpSHijpUglrD6K-309" value="" style="rounded=0;whiteSpace=wrap;html=1;fillColor=#FFFFFF;strokeColor=#D6B656;gradientColor=#FFF2CC;" parent="wu85P2VpSHijpUglrD6K-308" vertex="1">
          <mxGeometry width="28.000000000000004" height="40" as="geometry" />
        </mxCell>
        <mxCell id="wu85P2VpSHijpUglrD6K-310" value="" style="rounded=0;whiteSpace=wrap;html=1;fillColor=#FFFFFF;strokeColor=#D6B656;gradientColor=#FFF2CC;" parent="wu85P2VpSHijpUglrD6K-308" vertex="1">
          <mxGeometry x="28.000000000000004" width="28.000000000000004" height="40" as="geometry" />
        </mxCell>
        <mxCell id="wu85P2VpSHijpUglrD6K-311" value="" style="rounded=0;whiteSpace=wrap;html=1;fillColor=#FFFFFF;strokeColor=#D6B656;gradientColor=#FFF2CC;" parent="wu85P2VpSHijpUglrD6K-308" vertex="1">
          <mxGeometry x="56.00000000000001" width="28.000000000000004" height="40" as="geometry" />
        </mxCell>
        <mxCell id="wu85P2VpSHijpUglrD6K-312" value="" style="rounded=0;whiteSpace=wrap;html=1;fillColor=#FFFFFF;strokeColor=#D6B656;gradientColor=#FFF2CC;" parent="wu85P2VpSHijpUglrD6K-308" vertex="1">
          <mxGeometry x="84.00000000000001" width="28.000000000000004" height="40" as="geometry" />
        </mxCell>
        <mxCell id="wu85P2VpSHijpUglrD6K-313" value="" style="rounded=0;whiteSpace=wrap;html=1;fillColor=#FFFFFF;strokeColor=#D6B656;gradientColor=#FFF2CC;" parent="wu85P2VpSHijpUglrD6K-308" vertex="1">
          <mxGeometry x="112.00000000000001" width="28.000000000000004" height="40" as="geometry" />
        </mxCell>
        <mxCell id="wu85P2VpSHijpUglrD6K-320" style="edgeStyle=orthogonalEdgeStyle;rounded=0;orthogonalLoop=1;jettySize=auto;html=1;exitX=0;exitY=1;exitDx=0;exitDy=0;entryX=0.5;entryY=0;entryDx=0;entryDy=0;" parent="1" source="wu85P2VpSHijpUglrD6K-228" target="wu85P2VpSHijpUglrD6K-240" edge="1">
          <mxGeometry relative="1" as="geometry" />
        </mxCell>
        <mxCell id="wu85P2VpSHijpUglrD6K-321" style="edgeStyle=orthogonalEdgeStyle;rounded=0;orthogonalLoop=1;jettySize=auto;html=1;exitX=0.25;exitY=1;exitDx=0;exitDy=0;entryX=0.5;entryY=0;entryDx=0;entryDy=0;" parent="1" edge="1">
          <mxGeometry relative="1" as="geometry">
            <mxPoint x="-7029.125" y="-1087.87" as="sourcePoint" />
            <mxPoint x="-7028.25" y="-1045.3899999999999" as="targetPoint" />
          </mxGeometry>
        </mxCell>
        <mxCell id="wu85P2VpSHijpUglrD6K-322" style="edgeStyle=orthogonalEdgeStyle;rounded=0;orthogonalLoop=1;jettySize=auto;html=1;exitX=0;exitY=1;exitDx=0;exitDy=0;entryX=0.5;entryY=0;entryDx=0;entryDy=0;" parent="1" source="wu85P2VpSHijpUglrD6K-238" target="wu85P2VpSHijpUglrD6K-240" edge="1">
          <mxGeometry relative="1" as="geometry" />
        </mxCell>
        <mxCell id="wu85P2VpSHijpUglrD6K-513" style="edgeStyle=orthogonalEdgeStyle;rounded=0;orthogonalLoop=1;jettySize=auto;html=1;exitX=0.5;exitY=0;exitDx=0;exitDy=0;" parent="1" source="wu85P2VpSHijpUglrD6K-390" target="wu85P2VpSHijpUglrD6K-394" edge="1">
          <mxGeometry relative="1" as="geometry">
            <Array as="points">
              <mxPoint x="-6280" y="-1039.87" />
            </Array>
          </mxGeometry>
        </mxCell>
        <mxCell id="wu85P2VpSHijpUglrD6K-392" value="&lt;font size=&quot;1&quot; style=&quot;&quot;&gt;&lt;b style=&quot;font-size: 30px;&quot;&gt;Recommender Module&lt;/b&gt;&lt;/font&gt;" style="text;html=1;align=center;verticalAlign=middle;whiteSpace=wrap;rounded=0;" parent="1" vertex="1">
          <mxGeometry x="-6173" y="-1622.87" width="524" height="30" as="geometry" />
        </mxCell>
        <mxCell id="wu85P2VpSHijpUglrD6K-514" style="edgeStyle=orthogonalEdgeStyle;rounded=0;orthogonalLoop=1;jettySize=auto;html=1;exitX=0.5;exitY=0;exitDx=0;exitDy=0;" parent="1" source="wu85P2VpSHijpUglrD6K-394" edge="1">
          <mxGeometry relative="1" as="geometry">
            <mxPoint x="-6279.727272727273" y="-1227.87" as="targetPoint" />
          </mxGeometry>
        </mxCell>
        <mxCell id="wu85P2VpSHijpUglrD6K-394" value="&lt;font style=&quot;font-size: 28px;&quot;&gt;Encoder Module&lt;/font&gt;" style="rounded=1;whiteSpace=wrap;html=1;fillColor=#f9f7ed;strokeColor=#36393d;fontSize=26;" parent="1" vertex="1">
          <mxGeometry x="-6505" y="-1181.86" width="450" height="71" as="geometry" />
        </mxCell>
        <mxCell id="wu85P2VpSHijpUglrD6K-447" value="" style="shape=image;verticalLabelPosition=bottom;labelBackgroundColor=default;verticalAlign=top;aspect=fixed;imageAspect=0;image=data:image/svg+xml,PHN2ZyB4bWxuczp4bGluaz0iaHR0cDovL3d3dy53My5vcmcvMTk5OS94bGluayIgeG1sbnM9Imh0dHA6Ly93d3cudzMub3JnLzIwMDAvc3ZnIiBoZWlnaHQ9IjIwMCIgd2lkdGg9IjIwMCIgdmVyc2lvbj0iMS4xIiB2aWV3Qm94PSIwIDAgMTAyNCAxMDI0IiBjbGFzcz0iaWNvbiI+PHBhdGggZmlsbD0iI0ZBM0YxRSIgZD0iTTM5MS45ODY3NjggMTAxMi4zNTk1MzFhMTg5LjYyMzIzNSAxODkuNjIzMjM1IDAgMCAxLTEwMy4yODk3NTktMTU2Ljc1ODMxMWMtMy40OTIxNDEtMTI1LjQ4NDI1MiA5MC4yMTM2MzItMTg2Ljk4NDcyOCAxNDUuNDI4MjU2LTI3MS4xMDY1MTUgNzkuMjMyNzktMTIwLjc4OTI2MyA1Ny43NzU1MjYtMTk1LjgzMTQ4NSA1Ny43NzU1MjYtMTk1LjgzMTQ4NXM2Ni4xMTc4NjIgMzQuNTMzMzkgMTA0LjYwOTAxMiAxNjMuNDcwOTgyYzExLjE3NDg1IDM2LjI0MDY1OSAxNC44NjA5OTggNzQuMzgyNTk1IDEwLjgyNTYzNSAxMTIuMDk3NzEzYTQ5NC4wNjAyOTIgNDk0LjA2MDI5MiAwIDAgMS00OC4wNzUxMzUgMTcyLjM5NTM0MXM3My4yNTczNDktMTQuNzQ0NTk0IDkzLjYyODE2OS0xMzkuMDI1OTk3YTIxMS41NDYxMTcgMjExLjU0NjExNyAwIDAgMSA2OC41NjIzNjEgMTI4LjgyMTE4NiAyMDEuODA2OTI1IDIwMS44MDY5MjUgMCAwIDEtMTI5Ljc5MTIyNiAxOTcuMDczMTM1IDQxMS44Nzg1ODMgNDExLjg3ODU4MyAwIDAgMCAyNzcuNTg2Mzc2LTIyNC4wMDE0MTljMzIuOTQyNTI2LTg3LjUzNjMyNCA0MS41OTUyNzUtMTgyLjM2NzM0MiAyNS4xMDQ2MTEtMjc0LjQ0MzQ1YTM4Mi43Mzg2MSAzODIuNzM4NjEgMCAwIDEgMzEuMTk2NDU2LTE4OS4wNDEyMTEgMjYzLjU0MDIxMSAyNjMuNTQwMjExIDAgMCAwLTEzNS44MDU0NjggMTA5LjQyMDQwNiAzMTguODcxMjM4IDMxOC44NzEyMzggMCAwIDAtMzcuMTcxODk2IDk5Ljc5NzYxOCAzNTYuMDQzMTM1IDM1Ni4wNDMxMzUgMCAwIDAtMzEuNTA2ODY5LTE0OC44ODE1OTRjLTM3LjAxNjY5LTkzLjc4MzM3Ni03MC44OTA0NTQtMTI3LjAzNjMxNS05MS4zNzc2NzktMTk2LjcyMzkyMWEyNTIuMDU0OTQ4IDI1Mi4wNTQ5NDggMCAwIDEgMzIuNTkzMzEyLTE4My45NTgyMDZzLTIzMi44ODY5NzYgNDAuMzUzNjI1LTMzOC43Mzc2MzggMjI5LjU1MDA0MmMtOTMuNjY2OTcxIDE2OC4wMTA3NjQtNTUuMjE0NjIzIDI2OC44MTcyMjMtNTUuMjE0NjIzIDI2OC44MTcyMjNhMjU5LjE5NDQzNiAyNTkuMTk0NDM2IDAgMCAxLTYwLjE0MjQyMS04Mi45MTg5MzkgMjA1LjM3NjY2OSAyMDUuMzc2NjY5IDAgMCAxLTE1Ljc1MzQzNC05MS44MDQ0OTZzLTE2NS41NjYyNjYgMTY5Ljk4OTY0NC04NC45NzU0MjIgMzg0LjEzNTQ2NmE0NTAuNzk2NTUgNDUwLjc5NjU1IDAgMCAwIDI4NC42MDk0NTkgMjg4LjgzODgyOSIvPjwvc3ZnPg==;fontSize=28;" parent="1" vertex="1">
          <mxGeometry x="-6625" y="-1697.87" width="43" height="43" as="geometry" />
        </mxCell>
        <mxCell id="wu85P2VpSHijpUglrD6K-448" value="&lt;font style=&quot;font-size: 28px;&quot;&gt;&lt;b style=&quot;font-size: 28px;&quot;&gt;Not Frozen&lt;/b&gt;&lt;/font&gt;" style="text;html=1;align=center;verticalAlign=middle;whiteSpace=wrap;rounded=0;fontSize=28;" parent="1" vertex="1">
          <mxGeometry x="-6605" y="-1684.87" width="190" height="30" as="geometry" />
        </mxCell>
        <mxCell id="wu85P2VpSHijpUglrD6K-449" value="" style="shape=image;verticalLabelPosition=bottom;labelBackgroundColor=default;verticalAlign=top;aspect=fixed;imageAspect=0;image=data:image/svg+xml,PHN2ZyB4bWxuczp4bGluaz0iaHR0cDovL3d3dy53My5vcmcvMTk5OS94bGluayIgeG1sbnM9Imh0dHA6Ly93d3cudzMub3JnLzIwMDAvc3ZnIiBoZWlnaHQ9IjIwMCIgd2lkdGg9IjIwMCIgdmVyc2lvbj0iMS4xIiB2aWV3Qm94PSIwIDAgMTAyNCAxMDI0IiBjbGFzcz0iaWNvbiI+PHBhdGggZmlsbD0iIzEyOTZkYiIgZD0iTTk5MiA0NzUuNjQ4aC03My4wODhsMzYuMzItNjIuODQ4YTMyIDMyIDAgMCAwLTU1LjM5Mi0zMi4wMzJsLTU0Ljc1MiA5NC44OEg2MzEuNTJsOTAuNDk2LTUyLjI1NmEzMiAzMiAwIDAgMCAxMS42OC00My43NDQgMzEuOTA0IDMxLjkwNCAwIDAgMC00My42OC0xMS42OGwtOTAuNTkyIDUyLjI4OCAxMDYuODQ4LTE4NS4wNGgxMDkuNTM2YTMxLjg0IDMxLjg0IDAgMCAwIDMxLjkwNC0zMS45NjggMzEuODI0IDMxLjgyNCAwIDAgMC0zMS44NzItMzJsLTcyLjYyNCAwLjAzMiAzNi41MjgtNjMuMzEyYTMxLjk1MiAzMS45NTIgMCAwIDAtMTEuNzEyLTQzLjY5NiAzMS44NzIgMzEuODcyIDAgMCAwLTQzLjY4IDExLjcyOGwtMzYuNTYgNjMuMzQ0LTM2LjI1Ni02Mi45NDRhMzEuOTg0IDMxLjk4NCAwIDAgMC00My43NzYtMTEuNjk2IDMxLjg0IDMxLjg0IDAgMCAwLTExLjY4IDQzLjYzMmw1NC44MTYgOTQuOTI4TDU0NCAzODguMzA0di0xMDQuNjU2YTMyIDMyIDAgMSAwLTY0IDB2MTA0LjU2bC0xMDYuODE2LTE4NC45OTIgNTQuNzUyLTk0Ljg4YTMxLjkwNCAzMS45MDQgMCAwIDAtMTEuNzEyLTQzLjYzMiAzMS44NTYgMzEuODU2IDAgMCAwLTQzLjY2NCAxMS42MzJsLTM2LjMyIDYyLjkxMi0zNi41MjgtNjMuMjhBMzEuOTY4IDMxLjk2OCAwIDAgMCAyNTYgNjQuMjcyYTMxLjkyIDMxLjkyIDAgMCAwLTExLjY4IDQzLjY5NmwzNi41NiA2My4zMTItNzIuNjI0LTAuMDY0Yy0xNy43MTIgMC0zMiAxNC4zMi0zMiAzMi4wNjRhMzEuODQgMzEuODQgMCAwIDAgMzEuOTM2IDMxLjkzNmgxMDkuNmwxMDYuODQ4IDE4NS4wNTYtOTAuNjI0LTUyLjMwNGEzMS44ODggMzEuODg4IDAgMCAwLTQzLjY4IDExLjcxMiAzMiAzMiAwIDAgMCAxMS42NDggNDMuNzI4bDkwLjQ5NiA1Mi4yNTZIMTc4Ljk0NGwtNTQuNzg0LTk0Ljg4YTMxLjk2OCAzMS45NjggMCAwIDAtNDMuNjQ4LTExLjY2NCAzMS45MDQgMzEuOTA0IDAgMCAwLTExLjc0NCA0My42NjRsMzYuMzIgNjIuODhIMzJhMzIgMzIgMCAxIDAgMCA2NGg3My4wODhsLTM2LjMzNiA2Mi44NDhhMzIgMzIgMCAwIDAgNTUuMzkyIDMyLjAzMmw1NC43ODQtOTQuODhoMjEzLjY4bC05MC42MjQgNTIuMzJhMzEuOTA0IDMxLjkwNCAwIDAgMC0xMS42OCA0My42OCAzMS45ODQgMzEuOTg0IDAgMCAwIDQzLjY4IDExLjc0NGw5MC42MjQtNTIuMzItMTA2LjgxNiAxODQuOTkySDIwOC4xNmMtMTcuNjMyIDAtMzEuOTM2IDE0LjMyLTMxLjkzNiAzMnMxNC4yODggMzIgMzEuOTM2IDMyaDcyLjY1NmwtMzYuNTI4IDYzLjI4YTMxLjk2OCAzMS45NjggMCAxIDAgNTUuMzkyIDMxLjk2OGwzNi41MjgtNjMuMjggMzYuMjU2IDYyLjg4YTMyIDMyIDAgMCAwIDQzLjc0NCAxMS43MTIgMzEuOTM2IDMxLjkzNiAwIDAgMCAxMS42OC00My42OGwtNTQuNzUyLTk0Ljg4TDQ4MCA2MjcuMDU2djEwNC41OTJjMCAxNy42OTYgMTQuMzIgMzIgMzIgMzJzMzItMTQuMzA0IDMyLTMydi0xMDQuNTkybDEwNi44NDggMTg1LjAyNC01NC44MTYgOTQuODhhMzEuOTUyIDMxLjk1MiAwIDAgMCAxMS43MTIgNDMuNjhjMTUuMzEyIDguODE2IDM0Ljg4IDMuNjMyIDQzLjY4LTExLjY4bDM2LjM1Mi02Mi45MTIgMzYuNTI4IDYzLjI4YTMxLjk1MiAzMS45NTIgMCAwIDAgNDMuNjggMTEuNzQ0IDMyLjAxNiAzMi4wMTYgMCAwIDAgMTEuNzEyLTQzLjc0NGwtMzYuNTI4LTYzLjI4IDcyLjU2IDAuMDMyYTMyIDMyIDAgMCAwIDAuMDMyLTY0aC0xMDkuNTM2bC0xMDYuNzUyLTE4NC45NDQgOTAuNDY0IDUyLjI1NmEzMiAzMiAwIDAgMCA0My43MjgtMTEuNzQ0IDMxLjg3MiAzMS44NzIgMCAwIDAtMTEuNzI4LTQzLjY4bC05MC41OTItNTIuMzJoMjEzLjY4bDU0Ljc1MiA5NC44OGEzMS45MzYgMzEuOTM2IDAgMCAwIDQzLjY4IDExLjY4IDMxLjk1MiAzMS45NTIgMCAwIDAgMTEuNzEyLTQzLjY4bC0zNi4yODgtNjIuODhIOTkyYzE3LjY4IDAgMzItMTQuMzA0IDMyLTMyIDAtMTcuNjk2LTE0LjMyLTMyLTMyLTMyeiBtLTQ4MCA5NmE2NCA2NCAwIDEgMSAwLTEyOCA2NCA2NCAwIDAgMSAwIDEyOHoiLz48L3N2Zz4=;rotation=15;fontSize=28;" parent="1" vertex="1">
          <mxGeometry x="-6403.54" y="-1695.9899999999998" width="40" height="40" as="geometry" />
        </mxCell>
        <mxCell id="wu85P2VpSHijpUglrD6K-450" value="&lt;font style=&quot;font-size: 28px;&quot;&gt;&lt;b style=&quot;font-size: 28px;&quot;&gt;Frozen&lt;/b&gt;&lt;/font&gt;" style="text;html=1;align=center;verticalAlign=middle;whiteSpace=wrap;rounded=0;fontSize=28;" parent="1" vertex="1">
          <mxGeometry x="-6345" y="-1685.9899999999998" width="94" height="30" as="geometry" />
        </mxCell>
        <mxCell id="wu85P2VpSHijpUglrD6K-454" value="" style="group;fillColor=#FFFFFF;gradientColor=#CEE0CD;strokeColor=#82b366;container=0;fontSize=28;" parent="1" vertex="1" connectable="0">
          <mxGeometry x="-6215" y="-1689.62" width="40" height="27" as="geometry" />
        </mxCell>
        <mxCell id="wu85P2VpSHijpUglrD6K-455" value="&lt;font style=&quot;font-size: 28px;&quot;&gt;&lt;b style=&quot;font-size: 28px;&quot;&gt;Text Emb.&lt;/b&gt;&lt;/font&gt;" style="text;html=1;align=center;verticalAlign=middle;whiteSpace=wrap;rounded=0;fontSize=28;" parent="1" vertex="1">
          <mxGeometry x="-6175" y="-1689.62" width="151.5" height="30" as="geometry" />
        </mxCell>
        <mxCell id="wu85P2VpSHijpUglrD6K-456" value="" style="rounded=0;whiteSpace=wrap;html=1;fillColor=#FFFFFF;strokeColor=#6C8EBF;gradientColor=#DAE8FC;container=0;flipH=1;fontSize=28;" parent="1" vertex="1">
          <mxGeometry x="-5992" y="-1694.62" width="37" height="30.12" as="geometry" />
        </mxCell>
        <mxCell id="wu85P2VpSHijpUglrD6K-457" value="&lt;font style=&quot;font-size: 28px;&quot;&gt;&lt;b style=&quot;font-size: 28px;&quot;&gt;Learning Level Emb.&lt;/b&gt;&lt;/font&gt;" style="text;html=1;align=center;verticalAlign=middle;whiteSpace=wrap;rounded=0;fontSize=28;" parent="1" vertex="1">
          <mxGeometry x="-5942" y="-1692.62" width="300" height="30" as="geometry" />
        </mxCell>
        <mxCell id="wu85P2VpSHijpUglrD6K-458" value="" style="rounded=0;whiteSpace=wrap;html=1;fillColor=#FFFFFF;strokeColor=#D6B656;gradientColor=#FFF2CC;container=0;flipH=1;fontSize=28;" parent="1" vertex="1">
          <mxGeometry x="-5603" y="-1698" width="37" height="33.5" as="geometry" />
        </mxCell>
        <mxCell id="wu85P2VpSHijpUglrD6K-459" value="&lt;font style=&quot;font-size: 28px;&quot;&gt;&lt;b style=&quot;font-size: 28px;&quot;&gt;Candidate Set Emb.&lt;/b&gt;&lt;/font&gt;" style="text;html=1;align=center;verticalAlign=middle;whiteSpace=wrap;rounded=0;fontSize=28;" parent="1" vertex="1">
          <mxGeometry x="-5546.5" y="-1696.25" width="283.5" height="30" as="geometry" />
        </mxCell>
        <mxCell id="wu85P2VpSHijpUglrD6K-499" value="" style="group;fontSize=26;" parent="1" vertex="1" connectable="0">
          <mxGeometry x="-6443.5" y="-1272.8899999999999" width="300" height="42" as="geometry" />
        </mxCell>
        <mxCell id="wu85P2VpSHijpUglrD6K-509" value="" style="group" parent="wu85P2VpSHijpUglrD6K-499" vertex="1" connectable="0">
          <mxGeometry x="-10.551724137931034" y="-17.5" width="295.44827586206895" height="59.49999999999999" as="geometry" />
        </mxCell>
        <mxCell id="wu85P2VpSHijpUglrD6K-500" value="" style="group;fillColor=#FFFFFF;gradientColor=#CEE0CD;strokeColor=#82b366;container=0;flipH=1;fontSize=26;" parent="wu85P2VpSHijpUglrD6K-509" vertex="1" connectable="0">
          <mxGeometry width="53.63984674329502" height="59.49999999999999" as="geometry" />
        </mxCell>
        <mxCell id="wu85P2VpSHijpUglrD6K-501" value="" style="group;fillColor=#FFFFFF;gradientColor=#F8CECC;strokeColor=#B85450;container=0;flipH=1;fontSize=26;" parent="wu85P2VpSHijpUglrD6K-509" vertex="1" connectable="0">
          <mxGeometry x="153.36704980842913" width="48.27586206896551" height="59.49999999999999" as="geometry" />
        </mxCell>
        <mxCell id="wu85P2VpSHijpUglrD6K-502" value="" style="rounded=0;whiteSpace=wrap;html=1;fillColor=#FFFFFF;strokeColor=#6C8EBF;gradientColor=#DAE8FC;container=0;flipH=1;fontSize=26;" parent="wu85P2VpSHijpUglrD6K-509" vertex="1">
          <mxGeometry x="53.63984674329502" width="50.57164750957853" height="59.49999999999999" as="geometry" />
        </mxCell>
        <mxCell id="wu85P2VpSHijpUglrD6K-503" value="" style="rounded=0;whiteSpace=wrap;html=1;fillColor=#FFFFFF;strokeColor=#82b366;gradientColor=#CEE0CD;container=0;flipH=1;fontSize=26;" parent="wu85P2VpSHijpUglrD6K-509" vertex="1">
          <mxGeometry x="104.2166436781609" width="48.97875862068965" height="59.49999999999999" as="geometry" />
        </mxCell>
        <mxCell id="wu85P2VpSHijpUglrD6K-504" value="" style="rounded=0;whiteSpace=wrap;html=1;fillColor=#FFFFFF;strokeColor=#D6B656;gradientColor=#FFF2CC;container=0;flipH=1;fontSize=26;" parent="wu85P2VpSHijpUglrD6K-509" vertex="1">
          <mxGeometry x="249.3692873563218" width="46.07898850574713" height="59.49999999999999" as="geometry" />
        </mxCell>
        <mxCell id="wu85P2VpSHijpUglrD6K-505" value="" style="rounded=0;whiteSpace=wrap;html=1;fillColor=#FFFFFF;strokeColor=#82b366;gradientColor=#CEE0CD;container=0;flipH=1;fontSize=26;" parent="wu85P2VpSHijpUglrD6K-509" vertex="1">
          <mxGeometry x="201.63797701149426" width="47.85167816091953" height="59.49999999999999" as="geometry" />
        </mxCell>
        <mxCell id="wu85P2VpSHijpUglrD6K-510" value="" style="group;fillColor=#FFFFFF;gradientColor=#CEE0CD;strokeColor=#82b366;container=0;flipH=1;fontSize=26;" parent="1" vertex="1" connectable="0">
          <mxGeometry x="-6157.141724137931" y="-1289.37" width="53.63984674329502" height="59.49999999999999" as="geometry" />
        </mxCell>
        <mxCell id="wu85P2VpSHijpUglrD6K-421" value="&lt;font style=&quot;font-size: 19px;&quot; face=&quot;Times New Roman&quot;&gt;LlaMA2-7B&lt;/font&gt;" style="text;html=1;align=center;verticalAlign=middle;whiteSpace=wrap;rounded=0;fontSize=26;" parent="1" vertex="1">
          <mxGeometry x="-6352" y="-1377.87" width="140" height="30" as="geometry" />
        </mxCell>
        <mxCell id="wu85P2VpSHijpUglrD6K-425" value="" style="shape=image;verticalLabelPosition=bottom;labelBackgroundColor=default;verticalAlign=top;aspect=fixed;imageAspect=0;image=data:image/svg+xml,PHN2ZyB4bWxuczp4bGluaz0iaHR0cDovL3d3dy53My5vcmcvMTk5OS94bGluayIgeG1sbnM9Imh0dHA6Ly93d3cudzMub3JnLzIwMDAvc3ZnIiBoZWlnaHQ9IjIwMCIgd2lkdGg9IjIwMCIgdmVyc2lvbj0iMS4xIiB2aWV3Qm94PSIwIDAgMTAyNCAxMDI0IiBjbGFzcz0iaWNvbiI+PHBhdGggZmlsbD0iI0ZBM0YxRSIgZD0iTTM5MS45ODY3NjggMTAxMi4zNTk1MzFhMTg5LjYyMzIzNSAxODkuNjIzMjM1IDAgMCAxLTEwMy4yODk3NTktMTU2Ljc1ODMxMWMtMy40OTIxNDEtMTI1LjQ4NDI1MiA5MC4yMTM2MzItMTg2Ljk4NDcyOCAxNDUuNDI4MjU2LTI3MS4xMDY1MTUgNzkuMjMyNzktMTIwLjc4OTI2MyA1Ny43NzU1MjYtMTk1LjgzMTQ4NSA1Ny43NzU1MjYtMTk1LjgzMTQ4NXM2Ni4xMTc4NjIgMzQuNTMzMzkgMTA0LjYwOTAxMiAxNjMuNDcwOTgyYzExLjE3NDg1IDM2LjI0MDY1OSAxNC44NjA5OTggNzQuMzgyNTk1IDEwLjgyNTYzNSAxMTIuMDk3NzEzYTQ5NC4wNjAyOTIgNDk0LjA2MDI5MiAwIDAgMS00OC4wNzUxMzUgMTcyLjM5NTM0MXM3My4yNTczNDktMTQuNzQ0NTk0IDkzLjYyODE2OS0xMzkuMDI1OTk3YTIxMS41NDYxMTcgMjExLjU0NjExNyAwIDAgMSA2OC41NjIzNjEgMTI4LjgyMTE4NiAyMDEuODA2OTI1IDIwMS44MDY5MjUgMCAwIDEtMTI5Ljc5MTIyNiAxOTcuMDczMTM1IDQxMS44Nzg1ODMgNDExLjg3ODU4MyAwIDAgMCAyNzcuNTg2Mzc2LTIyNC4wMDE0MTljMzIuOTQyNTI2LTg3LjUzNjMyNCA0MS41OTUyNzUtMTgyLjM2NzM0MiAyNS4xMDQ2MTEtMjc0LjQ0MzQ1YTM4Mi43Mzg2MSAzODIuNzM4NjEgMCAwIDEgMzEuMTk2NDU2LTE4OS4wNDEyMTEgMjYzLjU0MDIxMSAyNjMuNTQwMjExIDAgMCAwLTEzNS44MDU0NjggMTA5LjQyMDQwNiAzMTguODcxMjM4IDMxOC44NzEyMzggMCAwIDAtMzcuMTcxODk2IDk5Ljc5NzYxOCAzNTYuMDQzMTM1IDM1Ni4wNDMxMzUgMCAwIDAtMzEuNTA2ODY5LTE0OC44ODE1OTRjLTM3LjAxNjY5LTkzLjc4MzM3Ni03MC44OTA0NTQtMTI3LjAzNjMxNS05MS4zNzc2NzktMTk2LjcyMzkyMWEyNTIuMDU0OTQ4IDI1Mi4wNTQ5NDggMCAwIDEgMzIuNTkzMzEyLTE4My45NTgyMDZzLTIzMi44ODY5NzYgNDAuMzUzNjI1LTMzOC43Mzc2MzggMjI5LjU1MDA0MmMtOTMuNjY2OTcxIDE2OC4wMTA3NjQtNTUuMjE0NjIzIDI2OC44MTcyMjMtNTUuMjE0NjIzIDI2OC44MTcyMjNhMjU5LjE5NDQzNiAyNTkuMTk0NDM2IDAgMCAxLTYwLjE0MjQyMS04Mi45MTg5MzkgMjA1LjM3NjY2OSAyMDUuMzc2NjY5IDAgMCAxLTE1Ljc1MzQzNC05MS44MDQ0OTZzLTE2NS41NjYyNjYgMTY5Ljk4OTY0NC04NC45NzU0MjIgMzg0LjEzNTQ2NmE0NTAuNzk2NTUgNDUwLjc5NjU1IDAgMCAwIDI4NC42MDk0NTkgMjg4LjgzODgyOSIvPjwvc3ZnPg==;fontSize=26;" parent="1" vertex="1">
          <mxGeometry x="-6625" y="-1444.87" width="47" height="47" as="geometry" />
        </mxCell>
        <mxCell id="wu85P2VpSHijpUglrD6K-426" value="" style="shape=image;verticalLabelPosition=bottom;labelBackgroundColor=default;verticalAlign=top;aspect=fixed;imageAspect=0;image=data:image/svg+xml,PHN2ZyB4bWxuczp4bGluaz0iaHR0cDovL3d3dy53My5vcmcvMTk5OS94bGluayIgeG1sbnM9Imh0dHA6Ly93d3cudzMub3JnLzIwMDAvc3ZnIiBoZWlnaHQ9IjIwMCIgd2lkdGg9IjIwMCIgdmVyc2lvbj0iMS4xIiB2aWV3Qm94PSIwIDAgMTAyNCAxMDI0IiBjbGFzcz0iaWNvbiI+PHBhdGggZmlsbD0iIzEyOTZkYiIgZD0iTTk5MiA0NzUuNjQ4aC03My4wODhsMzYuMzItNjIuODQ4YTMyIDMyIDAgMCAwLTU1LjM5Mi0zMi4wMzJsLTU0Ljc1MiA5NC44OEg2MzEuNTJsOTAuNDk2LTUyLjI1NmEzMiAzMiAwIDAgMCAxMS42OC00My43NDQgMzEuOTA0IDMxLjkwNCAwIDAgMC00My42OC0xMS42OGwtOTAuNTkyIDUyLjI4OCAxMDYuODQ4LTE4NS4wNGgxMDkuNTM2YTMxLjg0IDMxLjg0IDAgMCAwIDMxLjkwNC0zMS45NjggMzEuODI0IDMxLjgyNCAwIDAgMC0zMS44NzItMzJsLTcyLjYyNCAwLjAzMiAzNi41MjgtNjMuMzEyYTMxLjk1MiAzMS45NTIgMCAwIDAtMTEuNzEyLTQzLjY5NiAzMS44NzIgMzEuODcyIDAgMCAwLTQzLjY4IDExLjcyOGwtMzYuNTYgNjMuMzQ0LTM2LjI1Ni02Mi45NDRhMzEuOTg0IDMxLjk4NCAwIDAgMC00My43NzYtMTEuNjk2IDMxLjg0IDMxLjg0IDAgMCAwLTExLjY4IDQzLjYzMmw1NC44MTYgOTQuOTI4TDU0NCAzODguMzA0di0xMDQuNjU2YTMyIDMyIDAgMSAwLTY0IDB2MTA0LjU2bC0xMDYuODE2LTE4NC45OTIgNTQuNzUyLTk0Ljg4YTMxLjkwNCAzMS45MDQgMCAwIDAtMTEuNzEyLTQzLjYzMiAzMS44NTYgMzEuODU2IDAgMCAwLTQzLjY2NCAxMS42MzJsLTM2LjMyIDYyLjkxMi0zNi41MjgtNjMuMjhBMzEuOTY4IDMxLjk2OCAwIDAgMCAyNTYgNjQuMjcyYTMxLjkyIDMxLjkyIDAgMCAwLTExLjY4IDQzLjY5NmwzNi41NiA2My4zMTItNzIuNjI0LTAuMDY0Yy0xNy43MTIgMC0zMiAxNC4zMi0zMiAzMi4wNjRhMzEuODQgMzEuODQgMCAwIDAgMzEuOTM2IDMxLjkzNmgxMDkuNmwxMDYuODQ4IDE4NS4wNTYtOTAuNjI0LTUyLjMwNGEzMS44ODggMzEuODg4IDAgMCAwLTQzLjY4IDExLjcxMiAzMiAzMiAwIDAgMCAxMS42NDggNDMuNzI4bDkwLjQ5NiA1Mi4yNTZIMTc4Ljk0NGwtNTQuNzg0LTk0Ljg4YTMxLjk2OCAzMS45NjggMCAwIDAtNDMuNjQ4LTExLjY2NCAzMS45MDQgMzEuOTA0IDAgMCAwLTExLjc0NCA0My42NjRsMzYuMzIgNjIuODhIMzJhMzIgMzIgMCAxIDAgMCA2NGg3My4wODhsLTM2LjMzNiA2Mi44NDhhMzIgMzIgMCAwIDAgNTUuMzkyIDMyLjAzMmw1NC43ODQtOTQuODhoMjEzLjY4bC05MC42MjQgNTIuMzJhMzEuOTA0IDMxLjkwNCAwIDAgMC0xMS42OCA0My42OCAzMS45ODQgMzEuOTg0IDAgMCAwIDQzLjY4IDExLjc0NGw5MC42MjQtNTIuMzItMTA2LjgxNiAxODQuOTkySDIwOC4xNmMtMTcuNjMyIDAtMzEuOTM2IDE0LjMyLTMxLjkzNiAzMnMxNC4yODggMzIgMzEuOTM2IDMyaDcyLjY1NmwtMzYuNTI4IDYzLjI4YTMxLjk2OCAzMS45NjggMCAxIDAgNTUuMzkyIDMxLjk2OGwzNi41MjgtNjMuMjggMzYuMjU2IDYyLjg4YTMyIDMyIDAgMCAwIDQzLjc0NCAxMS43MTIgMzEuOTM2IDMxLjkzNiAwIDAgMCAxMS42OC00My42OGwtNTQuNzUyLTk0Ljg4TDQ4MCA2MjcuMDU2djEwNC41OTJjMCAxNy42OTYgMTQuMzIgMzIgMzIgMzJzMzItMTQuMzA0IDMyLTMydi0xMDQuNTkybDEwNi44NDggMTg1LjAyNC01NC44MTYgOTQuODhhMzEuOTUyIDMxLjk1MiAwIDAgMCAxMS43MTIgNDMuNjhjMTUuMzEyIDguODE2IDM0Ljg4IDMuNjMyIDQzLjY4LTExLjY4bDM2LjM1Mi02Mi45MTIgMzYuNTI4IDYzLjI4YTMxLjk1MiAzMS45NTIgMCAwIDAgNDMuNjggMTEuNzQ0IDMyLjAxNiAzMi4wMTYgMCAwIDAgMTEuNzEyLTQzLjc0NGwtMzYuNTI4LTYzLjI4IDcyLjU2IDAuMDMyYTMyIDMyIDAgMCAwIDAuMDMyLTY0aC0xMDkuNTM2bC0xMDYuNzUyLTE4NC45NDQgOTAuNDY0IDUyLjI1NmEzMiAzMiAwIDAgMCA0My43MjgtMTEuNzQ0IDMxLjg3MiAzMS44NzIgMCAwIDAtMTEuNzI4LTQzLjY4bC05MC41OTItNTIuMzJoMjEzLjY4bDU0Ljc1MiA5NC44OGEzMS45MzYgMzEuOTM2IDAgMCAwIDQzLjY4IDExLjY4IDMxLjk1MiAzMS45NTIgMCAwIDAgMTEuNzEyLTQzLjY4bC0zNi4yODgtNjIuODhIOTkyYzE3LjY4IDAgMzItMTQuMzA0IDMyLTMyIDAtMTcuNjk2LTE0LjMyLTMyLTMyLTMyeiBtLTQ4MCA5NmE2NCA2NCAwIDEgMSAwLTEyOCA2NCA2NCAwIDAgMSAwIDEyOHoiLz48L3N2Zz4=;rotation=15;fontSize=26;" parent="1" vertex="1">
          <mxGeometry x="-6485" y="-1477.8711730708737" width="52.09" height="52.09" as="geometry" />
        </mxCell>
        <mxCell id="wu85P2VpSHijpUglrD6K-422" value="" style="shape=image;verticalLabelPosition=bottom;labelBackgroundColor=default;verticalAlign=top;aspect=fixed;imageAspect=0;image=data:image/svg+xml,PHN2ZyB4bWxuczp4bGluaz0iaHR0cDovL3d3dy53My5vcmcvMTk5OS94bGluayIgeG1sbnM9Imh0dHA6Ly93d3cudzMub3JnLzIwMDAvc3ZnIiBoZWlnaHQ9IjIwMCIgd2lkdGg9IjIwMC4xOTUzMTI1IiBkYXRhLXNwbS1hbmNob3ItaWQ9ImEzMTN4LnNlYXJjaF9pbmRleC4wLmk5LjRlMTIzYTgxYmZ5U09YIiB2ZXJzaW9uPSIxLjEiIHZpZXdCb3g9IjAgMCAxMDI1IDEwMjQiIGNsYXNzPSJpY29uIj48cGF0aCBjbGFzcz0ic2VsZWN0ZWQiIGRhdGEtc3BtLWFuY2hvci1pZD0iYTMxM3guc2VhcmNoX2luZGV4LjAuaTYuNGUxMjNhODFiZnlTT1giIGZpbGw9IiNmZmZmZmYiIGQ9Ik0xMDEwLjczNDgyIDQwMS44ODVjNTkuOTk0IDI2Ni4xMzQtMTA4LjM0IDUzMC43OTItMzc1Ljk4OCA1OTEuMTI4QzM2Ny4wOTM4MiAxMDUzLjM1MiAxMDEuNDg3ODIgODg2LjUxOCA0MS40OTE4MiA2MjAuMzgxLTE4LjUwMjE4IDM1NC4yNDcgMTU3LjYzNTgyIDg3LjgzIDQxNy40ODI4MiAyOS4yNTJjMjY3LjY0OS02MC4zMzcgNTMzLjI1NiAxMDYuNDk4IDU5My4yNTIgMzcyLjYzM3oiLz48cGF0aCBjbGFzcz0ic2VsZWN0ZWQiIGRhdGEtc3BtLWFuY2hvci1pZD0iYTMxM3guc2VhcmNoX2luZGV4LjAuaTguNGUxMjNhODFiZnlTT1giIGZpbGw9IiNmZmZmZmYiIGQ9Ik0xMDEwLjczNDgyIDQwMS44ODVjNy4xNjYgMzEuNjA4IDExLjI1NiA2My45MTIgMTIuMjQ0IDk2LjMyMiAwLjQ1NSAxNi4yMDcgMC4xOTkgMzIuNDM5LTAuODk2IDQ4LjYyOGE1MTIuMjczIDUxMi4yNzMgMCAwIDEtNS42MDQgNDguMzVjLTEwLjU3NCA2NC4xLTMzLjcxMSAxMjYuMjEzLTY3LjcyNyAxODIuMDIzLTMzLjk4NCA1NS44MTYtNzguODEzIDEwNS4zODMtMTMxLjc2NiAxNDQuODI0LTI2LjQ4MiAxOS42ODktNTQuODk2IDM2Ljk3NS04NC44NTkgNTEuMjcxYTUxNy41NTQgNTE3LjU1NCAwIDAgMS05My42NzQgMzQuMTU0Yy0zMi4zMDMgOC4zNjMtNjUuNTI5IDEzLjY4NC05OS4wNyAxNS42NjQtMzMuNTM4IDEuOTQ5LTY3LjM4NCAwLjY3LTEwMC44NDUtNC4wNTctMzMuNDQ5LTQuNzUyLTY2LjU1Mi0xMi43MTktOTguNTY4LTI0LjAzNWE1MDUuMDU0IDUwNS4wNTQgMCAwIDEtNDcuMTYzLTE5LjMxNiA1MDUuNTE4IDUwNS41MTggMCAwIDEtNDUuMS0yMy45NjNjLTU4LjU2OC0zNC45MTYtMTEwLjI5Mi04MS44NjctMTUwLjY4OC0xMzcuNC0yMC4yMjctMjcuNzM0LTM3LjU5Ny01Ny42MDItNTEuNzkxLTg4LjkxMmE1MTUuOTgxIDUxNS45ODEgMCAwIDEtMTguODY3LTQ3Ljk2OSA1MjUuODM2IDUyNS44MzYgMCAwIDEtMTMuOTIyLTQ5LjYwNUM0LjgyNTgyIDU5NC4zMDkgMC42MDk4MiA1NTkuOTMgMC4wNzk4MiA1MjUuNTA2Yy0wLjMwNS0xNy4yMDkgMC4zMjktMzQuNDI5IDEuODQtNTEuNTU4YTQ5MS45NyA0OTEuOTcgMCAwIDEgNy4xNC01MS4wMjljMTIuOTY4LTY3LjQ3MSAzOS44MTktMTMxLjg2NyA3Ny42NTEtMTg4LjUwOGE1MjQuMjQ4IDUyNC4yNDggMCAwIDEgNjQuNDY5LTc4LjgyYzIzLjkwOC0yNC4wNzYgNTAuMjAxLTQ1LjY3NiA3OC4yMTYtNjQuNTYzIDI4LjAxNS0xOC44OTkgNTcuOTE2LTM0Ljg1OCA4OC45NzktNDcuNzQ2YTQ5Ny4xNjkgNDk3LjE2OSAwIDAgMSA5Ni4yNjEtMjguODI5YzY1LjQ5OC0xMi42MzIgMTMzLjIxOC0xMi40IDE5Ny45MzcgMC42MiA2NC43NjYgMTIuOTE3IDEyNi41MjMgMzguNDkyIDE4MS4xNjggNzQuMzQyIDU0LjY2OCAzNS44MzUgMTAyLjIxMSA4Mi4wMjcgMTM5LjI1NiAxMzUuMzk1YTUxMi42MTYgNTEyLjYxNiAwIDAgMSAyNS44MDMgNDEuMjc0YzcuOTM2IDE0LjE1MiAxNS4xMjkgMjguNzA4IDIxLjY3IDQzLjU0MiA2LjUzMyAxNC44NDEgMTIuMjc5IDMwLjAxOCAxNy4zNSA0NS40MWE0OTkuMDQ4IDQ5OS4wNDggMCAwIDEgMTIuOTE1IDQ2Ljg0OXogbTAgMGE0OTguMjUyIDQ5OC4yNTIgMCAwIDAtMTMuMDU1LTQ2LjgwNGMtNS4xMDktMTUuMzc2LTExLjA1OS0zMC40NjgtMTcuNjk3LTQ1LjIzOS02LjYyOS0xNC43NzctMTQuMDg0LTI5LjE3OC0yMi4xOTctNDMuMTgxLTguMTA1LTE0LjAxMS0xNi45NTktMjcuNTc5LTI2LjQ2Ny00MC42Ni0zNy45OS01Mi4zNzItODYuNzE5LTk2LjY4OC0xNDEuOTI4LTEyOS42NDdhNDc2LjQyNSA0NzYuNDI1IDAgMCAwLTQyLjUxNi0yMi42MTMgNDc2LjQxIDQ3Ni40MSAwIDAgMC00NC40NTctMTguMjIzYy0zMC4xNzItMTAuNjg4LTYxLjM3My0xOC4xNzYtOTIuODgzLTIyLjY1Mi0zMS41Mi00LjQ2LTYzLjM5Ni01LjY0NS05NC45ODItMy44MDUtMzEuNjA3IDEuODgxLTYyLjg1NiA2Ljg5MS05My4zODMgMTQuODA1LTMwLjM0MyA3Ljg2OC01OS44NzUgMTguODU0LTg3LjkwMiAzMi41Ni0yOC4wNjQgMTMuNjc1LTU0LjYxMSAzMC4yMTEtNzkuMzU4IDQ4Ljk2LTQ5LjQ2NCAzNy41OC05MS4zNjYgODQuNDg5LTEyMy4zNjQgMTM3LjA0MS0zMi4wMTcgNTIuNTUtNTQuMDg3IDExMC44MjgtNjQuMzc3IDE3MC45MjZhNDc5LjE0MyA0NzkuMTQzIDAgMCAwLTUuNTIzIDQ1LjMyOCA0NzIuOTkgNDcyLjk5IDAgMCAwLTEuMDU5IDQ1LjU4M2MwLjgwOSAzMC4zODMgNC41ODIgNjAuNjY0IDExLjM0NCA5MC4zMTFhNDY2LjQ5NSA0NjYuNDk1IDAgMCAwIDEyLjIwNyA0NC4wMDRjNC43NTYgMTQuNDU5IDEwLjE5MiAyOC42OTMgMTYuMzQgNDIuNjE3IDEyLjI0NCAyNy44NzEgMjcuMjM1IDU0LjUzNyA0NC42NDQgNzkuNTc2IDM0LjgyMyA1MC4wNzQgNzkuNTIxIDkzLjQ3MyAxMzAuOTUyIDEyNy4xNTIgNTEuNDA1IDMzLjY5OSAxMDkuNTA4IDU3Ljc1NCAxNzAuNDMxIDY5Ljg5MyA2MC44OTYgMTIuMjM4IDEyNC41NDIgMTIuNDg0IDE4Ni4zNzEgMC41NjMgMzAuOTEtNS45NDMgNjEuMzQ2LTE0Ljg0IDkwLjY4OC0yNi43MTcgMjkuMzI0LTExLjkwNCA1Ny42MTktMjYuNjQ4IDg0LjE3LTQ0LjIyNyAyNi41NDctMTcuNTY4IDUxLjUxLTM3LjczNiA3NC4xNzgtNjAuMzQ0YTQ4MS4zNjggNDgxLjM2OCAwIDAgMCA2MS4wMjUtNzQuMjI5YzM1LjcxOS01My40NzUgNjAuNzA3LTExNC40MiA3Mi41NDMtMTc4LjAyOWE0NjUuOTg3IDQ2NS45ODcgMCAwIDAgNi40NTUtNDguMDg0YzEuMzIyLTE2LjEzMSAxLjg3My0zMi4zMzYgMS41Mi00OC41My0wLjM0Mi0xNi4xOS0xLjQ0MS0zMi4zNzUtMy40MjgtNDguNDU2YTQ5OC44ODIgNDk4Ljg4MiAwIDAgMC04LjI5Mi00Ny44Nzl6Ii8+PHBhdGggZmlsbD0iI0FCN0M2NCIgZD0iTTY3NS4wNjA4MiAxMzguMDUxYzAuMDQ3IDAgMC4wOSAwLjAwMyAwLjEzMyAwLjAwOSA2Ljc2IDAuOSA4LjI0IDM2LjI5LTExLjI3IDEwMS4wNiA5LjQwOCAzLjI1IDI0LjMxOCAxOS41NTEgMjcuMjcgMjUuNDQgMy4zMyA2LjY3IDYgMzMuNSA5IDM1LjVzMjggMjggMjggNDEtNyAzOSAwIDQ3IDIyIDIzIDIxLjUgNDMgNSA1MyA0IDU1LjUtMTkgMzQtMTkuNSA0MCAxNy4yNCAxNC41IDE5LjYxOSAyNy41YzIuMzgxIDEzIDAgMjUgMCAyNXM5LjM4MSAxMi41IDkuMzgxIDMwLjUtNi41IDEzLTQgMjYgMyA4MCA0IDkyIDAgMiAxMSAyMCAxMSAyNyA5IDMyYy0xLjc2MiA0LjQwNC0xMC4xMjEgMjAuNDQ3LTMxLjU2NiAyMC40NDctMi45IDAtNi4wMzktMC4yOTMtOS40MzQtMC45NDctOC42NTItMS42Ny0xNS4wOTQtMi4zNzEtMjAuMTc2LTIuMzczLTExLjY1NiAwLTE2LjE2NCAzLjY5My0yMy44MjQgNy44NzMtMS40OTQgMC44MTQtMy41NTMgMS4xNjgtNiAxLjE2OC0xNS41NjYgMC00Ni45MDgtMTQuMzA1LTQ5LjUtMTUuMTY4LTEuMDE4LTAuMzQtNS4xNTgtMC45MDgtMTAuNjM5LTAuOTA4LTEwLjY4OSAwLTI2LjQ4NCAyLjE2Mi0zNC4xOTEgMTIuNDA4LTEwLjQ1NSAxMy44ODUtMzEuMjA1IDI0Ljk2MS00NS40OCAyNC45NjEtMS42NiAwLTMuMjMtMC4xNDgtNC42ODktMC40NjEtMTMuMzkzLTIuODY5LTUuMjg1LTM4LjIyMS0yNS45OTgtMzguMjI1LTAuOTQxIDAtMS45MzggMC4wNzItMy4wMDIgMC4yMjUtMjQuNSAzLjUtMjEuNSAxNy0zNy41IDI2LTEyLjEwOCA2LjgxMS0yMS4zNTQgMTAuNzU4LTMxLjg1NCAxMC43NTgtMy4zNzQgMC02Ljg3Ny0wLjQwNi0xMC42NDYtMS4yNTgtMTUuNS0zLjUtNC0yNC41LTI2LTM3LTMuODg2LTIuMjA5LTcuNjAzLTMuMTUyLTExLjE0OC0zLjE1Mi0xNi41MjYtMC4wMDItMjkuMzgzIDIwLjUwNi0zOC44NTIgMjkuMTUyLTMuMTQ1IDIuODcxLTcuMzcxIDQuMDU1LTExLjk3MyA0LjA1NS0xMi4yMjkgMC0yNy4xMjUtOC4zNDgtMzEuNTI3LTE1LjU1NSAwIDAtMTctMjMtMTgtNTFzMTgtNDUgMTgtNDUtMTUuNTgtNC41LTE4LjA0LTExLTQuOTYtMTcuNS0yLjk2LTIzIDcuMjctNyAxMC4xNC05YzIuODYtMiAwLTE3IDAtMTdzLTUuODctMjkuNSAwLTQyLjVjNS44Ni0xMyAxNy4zNi0xNyAxNy44Ni0yMy41cy05LTI0LTctMjkgMTAtMTAuNSAxMS41LTE2LjUtMTEtMjQtMTEtMjcuNS0xLTIyLjUgOS0yOSAxNC0xMi41IDE0LTEyLjUtMTEuNS0xMi01LjUtMjguNSAyMC0zMC41IDIzLjUtMzYgMTItMTAuMjUgMTEuNS0xNWMtMC4zMy0zLjE0LTEzLjEyLTE0LjgtMjEuMzEtMjkuNDItNC4yLTcuNS03LjItMTUuNzcxLTYuNjktMjQuMDggMS41LTI0LjUgMTUtNjIuODMgMzEtODEuNXM3MS00MCA3Ny41LTQxLjVjMC42NDQtMC4xNDggMS4zNzEtMC4yMTUgMi4xNjItMC4yMTUgMS44NjEgMCA0LjA3NSAwLjM2MyA2LjM3OCAwLjg1NCAyLjI3LTE2LjI3IDguMTItNTIuMzE5IDE1LjQ2LTU0LjY0YTMuNTE4IDMuNTE4IDAgMCAxIDEuMDU1LTAuMTU3YzcuNjA0IDAgMjEuNTA2IDIyLjE1OCAyNy43NTUgNDEuOTA3IDMuMjkxLTEuOTggNS42NzEtMy44MiA2LjE5MS01LjI1IDAuNzczLTIuMTI4IDUuODY1LTIuODU5IDEyLjA4Ni0yLjg1OSA5Ljg1NSAwIDIyLjU1MSAxLjgzNiAyNS40MTQgMi44NTkgNC4zMTEgMS41NDEgMzMuNjE3IDE4LjcwNSAzOS4xNDMgMTguNzA1IDAuNDYxIDAgMC43NTQtMC4xMTggMC44NTctMC4zNzUgMC40MTgtMS4wNDYgMi44MDktMS40MzUgNS45NzUtMS40MzUgNi45MTYgMCAxNy41MzEgMS44NTUgMTkuMzU1IDIuNzc0IDAuMzY5IDAuMTggMS4zMyAwLjg0IDIuNzUgMS44NCAxNi4xODgtMjMuODYgNTEuNjI5LTc1LjAxNSA1Ny43ODUtNzUuMDE3bTAtMTEuOTk5aC0wLjAwMmMtNi40ODQgMC4wMDEtMTEuMzAxIDQuMjI2LTE4LjQ0OSAxMi41NDUtNC4yNjIgNC45NjEtOS43NTggMTEuOTg3LTE2LjMzMiAyMC44ODUtOS4zNjMgMTIuNjczLTE5LjQzOCAyNy4xMTMtMjcuNTA2IDM4Ljg4Ny0xLjE4Ni0wLjIzNS0yLjU2OC0wLjQ4LTQuMTg0LTAuNzMtMi44NjEtMC40NDEtOC40MDgtMS4xODMtMTMuNDItMS4xODMtMS41OTIgMC00LjczIDAtNy45NzEgMC45NjctNS41NjMtMi4zODctMTYuMjc1LTguMTEyLTIxLjM0Mi0xMC44MjEtNy4xNjYtMy44MjktMTAuNDI4LTUuNTU2LTEyLjYyMy02LjM0LTUuMDIzLTEuNzk3LTE5LjYxMy0zLjU2MS0yOS40NTMtMy41NjEtMi45NzUgMC03Ljk4OCAwLTEyLjcwMyAxLjQzNi0yLjYzOS01LjcyOS01LjY3MS0xMS4yODgtOC44ODMtMTYuMjI3LTguNDMyLTEyLjk2OC0xNi4xOTktMTkuMDA3LTI0LjQ0NS0xOS4wMDctMS41OTIgMC0zLjE2IDAuMjM5LTQuNjU4IDAuNzExLTguMjUyIDIuNjA4LTEzLjA0OCAxMC45NTItMTcuNzEgMzAuNzktMS43NTUgNy40NjctMy4yMzMgMTUuNTU5LTQuMzk3IDIyLjc2My0wLjMzNiAwLjA2LTAuNjY4IDAuMTI3LTAuOTk2IDAuMjAzLTYuNDk2IDEuNDk5LTY1LjAxOCAyMy4zNDQtODMuOTA0IDQ1LjM4Mi04LjQyOCA5LjgzNC0xNi42MjMgMjQuODE4LTIzLjA3NSA0Mi4xOTUtNi4wNTEgMTYuMjkzLTkuOTgzIDMzLjE5Ny0xMC43OTEgNDYuMzgtMC41ODkgOS41OTEgMi4xNyAxOS45MTMgOC4xOTggMzAuNjc3IDUuMjE1IDkuMzEgMTEuNzkxIDE3LjE3NiAxNi41OTIgMjIuOTJsMC44MDIgMC45NTljLTIuNDIxIDIuMzExLTUuMTM0IDQuOTI5LTcuMjM4IDguMjM1LTAuNTU5IDAuODc4LTIuMzA2IDMuMDMzLTMuODQ3IDQuOTM2LTYuMjU1IDcuNzItMTUuNzA5IDE5LjM4Ni0yMC44MDcgMzMuNDA2LTQuNDIyIDEyLjE2MS0yLjIyNSAyMy4xNzEgMS41NTggMzEuMTM2YTU2LjM2NiA1Ni4zNjYgMCAwIDEtNS4zMiAzLjkwM2MtMTQuODkgOS42NzktMTQuNTczIDMxLjI1MS0xNC40NjkgMzguMzQgMC4wMDUgMC4yOTIgMC4wMDkgMC41MzQgMC4wMDkgMC43MjIgMCA0LjMzOSAxLjk0MyA4IDUuNDcgMTQuNjQ3IDEuNDM1IDIuNzAzIDQuMTYxIDcuODQyIDUuMjUzIDEwLjgwMy0wLjgzNiAxLjExOS0yLjE1NiAyLjU5Ni0zLjA0OSAzLjU5Ni0yLjY0NSAyLjk1OS01LjY0MyA2LjMxNC03LjMxNSAxMC40OTgtMi43NTkgNi44OTYgMC4wMTggMTQuNjg2IDMuMjMyIDIzLjcwNyAwLjc4IDIuMTg5IDEuOTU0IDUuNDg0IDIuNTU4IDcuNjc2LTAuNjU4IDAuNjU0LTEuNDc5IDEuNDItMi4xNTYgMi4wNTMtNC4wNjYgMy43OTctMTAuMjExIDkuNTM1LTE0LjI5MiAxOC41OS03LjA2NyAxNS42NDgtMS45NzIgNDQuMDE4LTAuODQyIDQ5LjcxNSAwLjQzOCAyLjMyNCAwLjc4NiA1LjAxIDAuOTU0IDcuMTMxLTMuNTkzIDIuMjEzLTguMTg2IDUuODcxLTEwLjU5IDEyLjQ4NC00LjEyOCAxMS4zNTIgMS43ODcgMjguMTA1IDMuMDE0IDMxLjM1IDEuNjU2IDQuMzc1IDUuMDUgOC4xNTggMTAuMzA4IDExLjQ2MS01LjgyMSA5LjM3My0xMS42NiAyMy4yNTgtMTEuMDM2IDQwLjcxOSAxLjA1NSAyOS41MzUgMTcuNDc2IDUzLjY4OCAyMC4wMzQgNTcuMjc5IDcuMjY5IDExLjM0NiAyNi4xMDEgMjAuODQ4IDQxLjQ4NSAyMC44NDggNy45NzMgMCAxNC45MS0yLjQ4OCAyMC4wNjMtNy4xOTMgMi43OTMtMi41NDkgNS41NjMtNS42NiA4LjQ5Ni04Ljk1MyA2LjQxMi03LjIwMSAxNS4xOTQtMTcuMDYzIDIyLjI2NC0xNy4wNjEgMS42MzYgMCAzLjM0MyAwLjUxOCA1LjIyMiAxLjU4NiA3LjIxMSA0LjA5OCA4LjQwMiA4Ljk1NSAxMC4wNTIgMTUuNjgyIDEuNzcxIDcuMjI1IDQuNzM3IDE5LjMxNiAxOS4yMzMgMjIuNTkgNC42MjkgMS4wNDUgOC45NzcgMS41NTMgMTMuMjg5IDEuNTUzIDEzLjIxNSAwIDI0LjIzNi00LjcwNSAzNy43MzYtMTIuMjk5IDguMjUyLTQuNjQzIDEyLjY5Ni0xMC4xOTEgMTYuMjY3LTE0LjY0OCA0LjUxMy01LjYzNyA2Ljc3OS04LjQ2NSAxNy4wNDgtOS45MzJhOS41MDggOS41MDggMCAwIDEgMS4zMDMtMC4xMDRjMC40NTUgMCAwLjY5MyAwLjA0OSAwLjc3OSAwLjA3MiAxLjYwMiAxLjMyNCAzLjI1NiA4LjUyMSA0LjA1NSAxMS45OTYgMS4wMzMgNC40ODQgMi4xIDkuMTIzIDQuMDE0IDEzLjI4OSAzLjk4NiA4LjY3NiAxMC4xNiAxMS42NDEgMTQuNjM3IDEyLjYgMi4yNTYgMC40ODQgNC42ODIgMC43MyA3LjIwNSAwLjczIDE4LjMyIDAgNDIuNTEtMTMuMDY2IDU1LjA2Ni0yOS43NDYgMy41OTQtNC43NzUgMTIuNzkxLTcuNjI1IDI0LjYwNC03LjYyNSAzLjU5IDAgNi4xMzUgMC4yNzkgNy4xNjIgMC40MzIgMC41MTYgMC4yMTEgMS4yNzMgMC41MjcgMS45NjkgMC44MTggMTYuNTA2IDYuOTAyIDM3LjIyMSAxNC44MjYgNTEuMDEgMTQuODI2IDQuNjU0IDAgOC40OTYtMC44NjEgMTEuNzQ2LTIuNjMzYTE5Mi42MSAxOTIuNjEgMCAwIDAgMy4zNTQtMS44ODNjNS40NDctMy4xMDcgNy45MzQtNC41MjUgMTQuNzI1LTQuNTI1IDQuNTM1IDAgMTAuMzkxIDAuNzA1IDE3LjkwMiAyLjE1NiA0LjAwOCAwLjc3MyA3Ljk0NyAxLjE2NCAxMS43MDcgMS4xNjQgMjMuMjU4IDAgMzcuNTQzLTE1LjA3OCA0Mi43MDctMjcuOTkgNC4zNzMtMTAuOTMyIDEuMjI3LTI0LjUwNC05LjkwMi00Mi43MTUtNC4yODMtNy4wMS03LjE3OC0xMC41MzctOS4xLTEyLjU3NmwtMC4xMjktMS41NTEtMC4wNTEtMC42MTFjLTAuMzM0LTMuOTktMC42NDMtMTUuOTg2LTAuOTY5LTI4LjY4Ni0wLjgwNy0zMS4zMzgtMS41NTUtNTUuOTktMy4yMDctNjQuNTg0LTAuMzAzLTEuNTc4LTAuMzUyLTIuNDAyLTAuMzU1LTIuNzQ0IDAuMS0wLjIxMSAwLjI0OC0wLjUxMiAwLjM2Ny0wLjc0OCAyLjEyNy00LjI1NiA0LjIwNS05LjMyNCA0LjIwNS0yMC4yNDIgMC0xNS4yMDEtNS4zNDQtMjcuMDMxLTguODY5LTMzLjE3OCAwLjYxMy01LjQ0NyAxLjEtMTQuNjA5LTAuNzA3LTI0LjQ4NC0yLjA0NS0xMS4xNjYtMTAuMjA5LTE4LjkxNi0xNi4xNy0yNC41NzQtMC42ODItMC42NDYtMS40NzUtMS40LTIuMTkzLTIuMTA3IDMuMDY0LTYuOTk2IDEwLjUzNS0yMC44MjIgMTMuMjk3LTI1LjkzNSAyLjk4NC01LjUyMSAzLjc4NS03LjAxOCA0LjI4My04LjI2NSAxLjUyMy0zLjgwNyAxLjE5NS02Ljc3Ny0wLjM4MS0yMS4wNTQtMS4yODMtMTEuNjI5LTMuMDQxLTI3LjU1NS0yLjc2NC0zOC42MDQgMC41NzgtMjMuMTM1LTE0LjU2OC00MC4xMDQtMjIuNzA3LTQ5LjIyLTAuNDkyLTAuNTUxLTAuOTYxLTEuMDc2LTEuNC0xLjU3NC0xLjM1NS0zLjc4NiAwLjI5NS0xNi42MzkgMS4wOTgtMjIuODg5IDAuNzc2LTYuMDU4IDEuNTEtMTEuNzc5IDEuNTEtMTYuNjE5IDAtNS4zNzUtMS42MDQtMTQuNTQ4LTE1LjQ2NS0zMi4wNy00LjQzNC01LjYwNC0xMC42MzktMTIuNTM3LTE0Ljg5MS0xNi40NTUtMC43NTItMi43ODctMS43NjYtOC4yMTctMi40NzktMTIuMDI5LTEuOTM2LTEwLjM2NS0zLjI2Ni0xNi45NzEtNS40My0yMS4zMDYtMi43NjQtNS41MTYtMTMuMDE2LTE4LjAxMy0yMy44MzItMjUuODAxIDYuNTI5LTIzLjA2MiAxMC45MDItNDQuMjExIDEyLjcyNS02MS42MiAyLjk4OC0yOC41OC0xLjkyMi0zNi4xOTEtMy41MzUtMzguNjkzLTIuNTEyLTMuODk1LTYuMjQ0LTYuMzUyLTEwLjUxLTYuOTJhMTIuODI0IDEyLjgyNCAwIDAgMC0xLjcxNi0wLjExNHoiLz48cGF0aCBjbGFzcz0ic2VsZWN0ZWQiIGRhdGEtc3BtLWFuY2hvci1pZD0iYTMxM3guc2VhcmNoX2luZGV4LjAuaTUuNGUxMjNhODFiZnlTT1giIGZpbGw9IiNmZmZmZmYiIGQ9Ik03ODMuMTkzODIgNzc5LjU2MWMtMiA1LTEyLjUgMjUtNDEgMTkuNXMtMzMtMC41LTQ0IDUuNS01Mi41LTEzLTU1LjUtMTQtMzMuMTctNC00NC44MyAxMS41Yy0xMS42NyAxNS41LTM2LjE3IDI3LjUtNTAuMTcgMjQuNXMtNC41LTQxLjUtMjktMzgtMjEuNSAxNy0zNy41IDI2LTI3IDEzLTQyLjUgOS41LTQtMjQuNS0yNi0zNy0zOC41IDE1LjUtNTAgMjYtMzcuNDQtMS41OC00My41LTExLjVjMCAwLTE3LTIzLTE4LTUxczE4LTQ1IDE4LTQ1LTE1LjU4LTQuNS0xOC4wNC0xMS00Ljk2LTE3LjUtMi45Ni0yMyA3LjI3LTcgMTAuMTQtOWMyLjg2LTIgMC0xNyAwLTE3cy01Ljg3LTI5LjUgMC00Mi41YzUuODYtMTMgMTcuMzYtMTcgMTcuODYtMjMuNXMtOS0yNC03LTI5IDEwLTEwLjUgMTEuNS0xNi41LTExLTI0LTExLTI3LjUtMS0yMi41IDktMjkgMTQtMTIuNSAxNC0xMi41IDEuNzUgNi41IDIgMTJjMC4wNSAxLjI1IDEuNjggMy44MyA0LjM2IDcuMTkgMCA3LjIzOSAwLjUyOSAxNy4wNiAwLjE0IDE5LjgxLTAuNSAzLjUgOCAxMCAxMi41IDE0LjA4MXM3LjUgMTAuNDIgOCAxMy40MiAxOCAxMSAyMiAxMyAyMiAxNi41IDM2IDI0IDQ4LTkuNSA0OC05LjUgMzAtNi41IDMwLjUtMTIgMjUtNiAzMi05IDEyLTEwLjUgMTIuNS0xNi41IDEyLjUtMTEuNSAxNC0xMC40M2MxLjUgMS4wODEgMTkuNS0zLjU3IDIwLTkuNTdzMTMtMTcgMTMuMTctMTdjMC4xNiAwIDYuODMtMTMgNi44My0xNi41czQuNS0xNyA4LjUtMjMuNSA5LjUtMTAgOC0xMC41LTEtMTgtMS0yMy0wLjUtMTItMi41LTE0IDctMTcgNy41LTIxLjUtMy05LjUtOC41LTEwLjg5Yy01LjUtMS40LTYtOC4xMS03LjUtMTEuNjFzLTEuNS0xNC0zLTE2LjUtMjQtMi41LTMyIDIuODFjLTggNS4zMTEtMTYtOC4zMS0xNy0xMS44MXMtMTYuNS05LjUtMTkuNS03LTE5IDIuNS0xOSAyLjUtMTktNi41LTI1LTQuNS0xMSA1LjUtMTIuNSA0LjUtMTEgMC41LTE1LjUgNC0xNSA1LjUtMTcuNSA1LjUtMjMtMS0yNyAwLTEzLjY3IDcuNjctMjAgNi05LjY3IDQuMzMtMTEgNi0yMC4zMyA3LjY3LTI1LjY3IDYuNjdjLTIuODktMC41NC04LjgyIDIuMjUtMTMuNjQgNC45MS00LjItNy41LTcuMi0xNS43NzEtNi42OS0yNC4wOCAxLjUtMjQuNSAxNS02Mi44MyAzMS04MS41czcxLTQwIDc3LjUtNDEuNWMyLjE2LTAuNSA1LjI2LTAuMDYgOC41NCAwLjY0IDYuNiAxLjQxIDEzLjk2IDMuODYgMTUuOTYgMS44NiAyLjIyLTIuMjIgMTguOTUtOS4wOSAyOC4zMS0xNC43NSAzLjI5MS0xLjk4IDUuNjcxLTMuODIgNi4xOTEtNS4yNSAyLTUuNSAzMi44My0xLjY3IDM3LjUgMHMzOC42NyAyMS42NyA0MCAxOC4zM2MxLjMzLTMuMzMgMjIuNjcgMCAyNS4zMyAxLjM0IDAuMzY5IDAuMTggMS4zMyAwLjg0IDIuNzUgMS44NCA4LjkzIDYuMjggMzUuNzc5IDI2LjA3IDQzLjI1IDI1LjQ5IDEuMDEtMC4wOCAyLjE1IDAuMTIgMy4zODkgMC41NmgwLjAxMmM5LjQwOCAzLjI1IDI0LjMxOCAxOS41NTEgMjcuMjcgMjUuNDQgMy4zMyA2LjY3IDYgMzMuNSA5IDM1LjVzMjggMjggMjggNDEtNyAzOSAwIDQ3IDIyIDIzIDIxLjUgNDMgNSA1MyA0IDU1LjUtMTkgMzQtMTkuNSA0MCAxNy4yNCAxNC41IDE5LjYxOSAyNy41YzIuMzgxIDEzIDAgMjUgMCAyNXM5LjM4MSAxMi41IDkuMzgxIDMwLjUtNi41IDEzLTQgMjYgMyA4MCA0IDkyIDAgMiAxMSAyMFM3ODUuMTkzODIgNzc0LjU2MSA3ODMuMTkzODIgNzc5LjU2MXoiLz48cGF0aCBmaWxsPSIjRThEN0MwIiBkPSJNNjI1LjE5MzgyIDM3NS41NmMtMC41IDQuNS05LjUgMTkuNS03LjUgMjEuNXMyLjUgOSAyLjUgMTQtMC41IDIyLjUgMSAyMy00IDQtOCAxMC41LTguNSAyMC04LjUgMjMuNS02LjY3IDE2LjUtNi44MyAxNi41Yy0wLjE3IDAtMTIuNjcgMTEtMTMuMTcgMTdzLTE4LjUgMTAuNjUxLTIwIDkuNTdjLTEuNS0xLjA3LTEzLjUgNC40My0xNCAxMC40M3MtNS41IDEzLjUtMTIuNSAxNi41LTMxLjUgMy41LTMyIDktMzAuNSAxMi0zMC41IDEyLTM0IDE3LTQ4IDkuNS0zMi0yMi0zNi0yNC0yMS41LTEwLTIyLTEzLTMuNS05LjM0LTgtMTMuNDItMTMtMTAuNTgxLTEyLjUtMTQuMDgxYzAuMzktMi43NS0wLjE0LTEyLjU3LTAuMTQtMTkuODEgMy41NSA0LjQzOSA4LjkzIDEwLjIzOSAxNC45NDkgMTYuMTMgMi41NjEgMi41MSA1LjIzIDUuMDI5IDcuOTMxIDcuNDc5IDcuMTg5IDYuNTA5IDE0LjUyOSAxMi40NTEgMjAuMjYgMTUuOTUxIDE2Ljc1IDEwLjI1IDY0IDExIDc2LjI1IDEwLjI1czU4LjI1LTE0Ljc1IDYwLjUtMTkuNDljMi4yNS00Ljc0MSAyMi41LTExLjc2IDI4LjUtMTQuNTFzNi43NS03LjI1IDYtMTUuNSAxMC0yMC43NSAxOC43NS0yOS4yNWM3LjM1LTcuMTQgMS4yOTktOC4yOC0xLjI3LTExLjg3LTAuNDktMC42OC0wLjg2MS0xLjQ2LTAuOTgtMi4zOC0wLjc1LTUuNzUgMS4yNS0xOS4yNSA1LjUtMjVzNC43NS0xNCAwLTEyLjUtMTIuNS0xMC0xMi43NS0xMy43NWMtMC4xMjEtMS44Ny0yLjgxMS0zLjc1LTYtNS4wMy0zLjE4LTEuMjc5LTYuODcxLTEuOTctOS0xLjQ3LTQuMjUgMS0xMC4yNS0xMi4yNS0xMi43NS0xNHMtMjQgNS4yNS0zMS41IDYuOTNjLTcuNSAxLjY4MS0xNS43NS0xMy4xOC0yMC4yNS0xMS40M3MtMjMuNzUgMTMuMjUtMzQgMTUuMzljLTEwLjI1IDIuMTUtMjQtNC44OS0zNC41LTcuMTRzLTI2IDcuNzUtMzEuNSAxMi41LTIxIDAtMjEgMGMtMC4zMy0zLjE0LTEzLjEyLTE0LjgtMjEuMzEtMjkuNDIgNC44MTktMi42NiAxMC43NS01LjQ1IDEzLjY0LTQuOTEgNS4zNCAxIDI0LjM0LTUgMjUuNjctNi42N3M0LjY3LTcuNjcgMTEtNiAxNi01IDIwLTYgMjQuNSAwIDI3IDAgMTMtMiAxNy41LTUuNSAxNC01IDE1LjUtNCA2LjUtMi41IDEyLjUtNC41IDI1IDQuNSAyNSA0LjUgMTYgMCAxOS0yLjUgMTguNSAzLjUgMTkuNSA3IDkgMTcuMTIgMTcgMTEuODFjOC01LjMxIDMwLjUtNS4zMSAzMi0yLjgxczEuNSAxMyAzIDE2LjUgMiAxMC4yMSA3LjUgMTEuNjFjNS41IDEuMzkxIDkgNi4zOTEgOC41IDEwLjg5MXoiLz48cGF0aCBmaWxsPSIjQUI3QzY0IiBkPSJNNDkzLjk4MDgyIDM2NC42NjdjNC4zNjcgMCAxMS41MSAxMS43MDYgMTguMjQ5IDExLjcwNiAwLjQwNiAwIDAuODEzLTAuMDQzIDEuMjE1LTAuMTMzIDYuNjc4LTEuNDk1IDI0LjQ1MS03LjIwOCAzMC4wMzUtNy4yMDggMC42ODggMCAxLjE4OSAwLjA4NyAxLjQ2NSAwLjI3OCAyLjQwOCAxLjY4NyA4LjA2OCAxNC4wNTQgMTIuMjgxIDE0LjA1NCAwLjE1OCAwIDAuMzE0LTAuMDE4IDAuNDY5LTAuMDU0YTcuMjM5IDcuMjM5IDAgMCAxIDEuNjMxLTAuMTY0YzIuMTE1IDAgNC44OTYgMC42MzkgNy4zNjkgMS42MzQgMy4xODkgMS4yOCA1Ljg3OSAzLjE2IDYgNS4wMyAwLjIzNCAzLjUyMiA3LjA4OCAxMy44ODQgMTEuODU1IDEzLjg4NCAwLjMwNyAwIDAuNjA1LTAuMDQzIDAuODk1LTAuMTM0YTMuNTU3IDMuNTU3IDAgMCAxIDEuMDUzLTAuMThjMy41OTIgMCAyLjg1NCA3LjM5Ni0xLjA1MyAxMi42OC00LjI1IDUuNzUtNi4yNSAxOS4yNS01LjUgMjUgMC4xMTkgMC45MiAwLjQ5IDEuNyAwLjk4IDIuMzggMi41NjggMy41OSA4LjYxOSA0LjczIDEuMjcgMTEuODctOC43NSA4LjUtMTkuNSAyMS0xOC43NSAyOS4yNXMwIDEyLjc1LTYgMTUuNS0yNi4yNSA5Ljc3LTI4LjUgMTQuNTEtNDguMjUgMTguNzQtNjAuNSAxOS40OWMtMi4xMDIgMC4xMjktNS4yMzMgMC4yMTMtOS4wNjMgMC4yMTMtMTguNSAwLTUzLjMxMS0xLjk3MS02Ny4xODgtMTAuNDYzLTUuNzMtMy41LTEzLjA3LTkuNDQxLTIwLjI2LTE1Ljk1MS0yLjctMi40NS01LjM3LTQuOTctNy45MzEtNy40NzktNi4wMi01Ljg5MS0xMS4zOTktMTEuNjktMTQuOTQ5LTE2LjEzLTIuNjgxLTMuMzYtNC4zMTEtNS45NC00LjM2LTcuMTktMC4yNS01LjUtMi0xMi0yLTEycy0xMS41LTEyLTUuNS0yOC41IDIwLTMwLjUgMjMuNS0zNiAxMi0xMC4yNSAxMS41LTE1YzAgMCA2Ljg4OSAyLjExMSAxMy4xMTEgMi4xMTEgMy4xMTEgMCA2LjA1NS0wLjUyNyA3Ljg4OS0yLjExMSA0Ljk1Ny00LjI4IDE4LjAzNC0xMi44MjUgMjguMjU2LTEyLjgyNWExNS41IDE1LjUgMCAwIDEgMy4yNDQgMC4zMjVjOS4xMzcgMS45NTggMjAuNzM1IDcuNTQzIDMwLjM0NiA3LjU0MyAxLjQzNSAwIDIuODI0LTAuMTI0IDQuMTU0LTAuNDAzIDEwLjI1LTIuMTQgMjkuNS0xMy42NCAzNC0xNS4zOSAwLjI1LTAuMDk4IDAuNTEzLTAuMTQzIDAuNzg3LTAuMTQzbTAtMTJjLTEuNzcxIDAtMy40OTkgMC4zMjMtNS4xMzYgMC45NTktMS45MDIgMC43NC00LjI5NCAxLjk4Mi04LjcwOCA0LjI5Ny02LjI1MSAzLjI3OC0xNy44ODcgOS4zODEtMjMuMzk2IDEwLjUzLTAuNDc5IDAuMTAxLTEuMDQ4IDAuMTUtMS43MDIgMC4xNS00LjIwMyAwLTEwLjE0MS0xLjkzOS0xNS44ODMtMy44MTUtMy45MzgtMS4yODYtOC4wMS0yLjYxNy0xMS45NDgtMy40NjFhMjcuNTIgMjcuNTIgMCAwIDAtNS43NTktMC41OTJjLTEzLjQyOCAwLTI4LjIzMSA5LjI5NC0zNS4wODQgMTQuODkyLTAuMjUzIDAuMDI0LTAuNjAzIDAuMDQ1LTEuMDYxIDAuMDQ1LTMuNjc0IDAtOC41MDMtMS4yNS05LjU5Ni0xLjU4NWwtMTcuMzUtNS4zMTYgMS41ODMgMTUuMDM4Yy0wLjYyNiAwLjYzNS0xLjM4IDEuMzU0LTEuOTY2IDEuOTEzLTIuNDYzIDIuMzUtNS4yNTQgNS4wMTMtNy40MDcgOC4zOTYtMC41NTkgMC44NzgtMi4zMDYgMy4wMzMtMy44NDcgNC45MzYtNi4yNTUgNy43Mi0xNS43MDkgMTkuMzg2LTIwLjgwNyAzMy40MDYtNS45MjEgMTYuMjgyIDAuMDI2IDMwLjUwNCA1Ljc1NCAzOC4xMSAwLjQzNyAyLjAyOSAwLjkzMSA0Ljc3OCAxLjAzNSA3LjAxNCAwLjE3OSA0LjE3MSAyLjA3MSA4LjAxMyA2Ljk2OCAxNC4xNSAzLjg2IDQuODI4IDkuNTE4IDEwLjk0MSAxNS45MzcgMTcuMjIzYTI5OS45ODggMjk5Ljk4OCAwIDAgMCA4LjI2IDcuNzljNS45MjggNS4zNjcgMTQuNTU5IDEyLjcxNyAyMi4wNjkgMTcuMzA1IDE4LjUzMiAxMS4zNDIgNjAuODk4IDEyLjIyMyA3My40NDIgMTIuMjIzIDMuODkxIDAgNy4yNzgtMC4wODIgOS43OTYtMC4yMzYgOC4yMDItMC41MDIgMjQuOTg1LTUuMDQzIDM2Ljg2Ni04Ljc3OSA1LjEyNS0xLjYxMSAxMi41NDktNC4wNzQgMTguODAxLTYuNjU2IDYuNjg0LTIuNzYyIDExLjI2Ni01LjIzNCAxMy44ODMtOS4wNDkgMy4xOTMtMi4yMyAxMy4zMTEtNi4zMDUgMTcuMjUyLTcuODkxIDIuNTk4LTEuMDQ1IDQuODQtMS45NDkgNi40NjUtMi42OTQgMTQuNjI1LTYuNzAzIDEzLjU0Ny0yMC44OTkgMTIuOTc1LTI3LjIzMSAwLjMwMy0xLjcyNiAzLjU3NC04LjU4NyAxNS4xMzctMTkuODE5IDEuODExLTEuNzU5IDcuMzItNy4xMTEgNy4xNS0xNC42MzItMC4xMzctNi4wODItMy43NjItOS45NDUtNS45Mi0xMS45MzIgMC4xNzYtNC40NzEgMS43MjUtMTIuMDE0IDMuMzA5LTE0LjE2MSA0Ljc2Ni02LjQ0OSA3Ljg1LTE2LjM3OSAzLjk5NC0yNC4wMjQtMi4zNTUtNC42Ny02Ljk4Mi03LjYyLTEyLjE0OC03Ljc4LTAuOTItMS4wOTktMS45NDktMi42MTktMi40MTItMy42MzUtMC42MjUtMy45NTctMy4zMjYtMTAuMDgyLTEzLjM2NS0xNC4xMS0yLjA0My0wLjgyMi01Ljg5NS0yLjE0Mi0xMC4xNDYtMi40MzctMC44MzYtMS4xNzktMS43Ni0yLjYwNS0yLjM3My0zLjU1MS0yLjI1Ni0zLjQ4LTQuMDM3LTYuMjMtNi44MTgtOC4xNzctMi4zMi0xLjYyNC01LjEyOS0yLjQ0Ny04LjM0Ni0yLjQ0Ny01LjAyNSAwLTEyLjc1NCAyLjA1LTIzLjk3MSA1LjE3OS0yLjM5MyAwLjY2Ny00LjY5MyAxLjMwOS02LjUxMiAxLjc4My0xLjExNS0wLjg2Ny0yLjYxNS0yLjI2NC0zLjYxOS0zLjE5OS00LjA5LTMuODEzLTguNzI1LTguMTMtMTUuMzk2LTguMTN6Ii8+PHBhdGggZmlsbD0iI0Q3QUI4QyIgZD0iTTU4Mi4xOTM4MiA0NTUuMzFjLTguNzUgOC41LTE5LjUgMjEtMTguNzUgMjkuMjVzMCAxMi43NS02IDE1LjUtMjYuMjUgOS43Ny0yOC41IDE0LjUxLTQ4LjI1IDE4Ljc0LTYwLjUgMTkuNDktNTkuNSAwLTc2LjI1LTEwLjI1Yy01LjczLTMuNS0xMy4wNy05LjQ0MS0yMC4yNi0xNS45NTEgMTguNDUtMC4wMiA3MC43Ny0wLjI0IDc3Ljc2LTIuMyA4LjUtMi41IDI5LjUtOS41IDMxLjUtOC41czM1LTAuNSAzNi41LTQuNSAyNS0xMC41IDI3LjUtMTQuNSAyOS0yNS4xOCAyOS0yOC41OWMwLTEuNjIgMy4yNzktMy45OCA2LjczLTYuMDMgMi41NjkgMy41OTEgOC42MiA0LjczMSAxLjI3IDExLjg3MXoiLz48cGF0aCBmaWxsPSIjRTFCQUFDIiBkPSJNNTYwLjY5MzgyIDQwNC4wNnMyLjUgMTEuNSAyLjUgMTQtOCAxNS4xMS04IDE1LjExLTkuNSA3LjM5LTEyLjUgMTYuMy0zMCAxMC41OS0zNC41IDExLjA5LTI2LjUgMTItMjcgMTMuMDFjLTAuNSAxLjAyMS0zNyAxLjk5LTM5LjUgNC40OXMtMzAuNSAxNS41LTM3IDE2LjVjLTUuMDggMC43OC0zMC4wNiA0LjMyLTQwLjY5IDUuODItNi4wMi01Ljg5MS0xMS4zOTktMTEuNjktMTQuOTQ5LTE2LjEzLTIuNjgxLTMuMzYtNC4zMTEtNS45NC00LjM2LTcuMTktMC4yNS01LjUtMi0xMi0yLTEycy0xMS41LTEyLTUuNS0yOC41IDIwLTMwLjUgMjMuNS0zNiAxMi0xMC4yNSAxMS41LTE1YzAgMCAxNS41IDQuNzUgMjEgMHMyMS0xNC43NSAzMS41LTEyLjUgMjQuMjUgOS4yOSAzNC41IDcuMTRjMTAuMjUtMi4xNCAyOS41LTEzLjY0IDM0LTE1LjM5czEyLjc1IDEzLjExIDIwLjI1IDExLjQzYzcuNS0xLjY4IDI5LTguNjggMzEuNS02LjkzczguNSAxNSAxMi43NSAxNGMyLjEyOS0wLjUgNS44MiAwLjE5IDkgMS40Ny0zLjcwMiA2Ljk5LTYuMDAxIDE5LjI4LTYuMDAxIDE5LjI4eiIvPjxwYXRoIGZpbGw9IiNEQ0I2QTciIGQ9Ik01ODUuNDQzODIgNDE2LjA2Yy00LjI1IDUuNzUtNi4yNSAxOS4yNS01LjUgMjUgMC4xMTkgMC45MiAwLjQ5IDEuNyAwLjk4IDIuMzgtMy40NTEgMi4wNS02LjczIDQuNDEtNi43MyA2LjAzIDAgMy40MS0yNi41IDI0LjU5LTI5IDI4LjU5cy0yNiAxMC41LTI3LjUgMTQuNS0zNC41IDUuNS0zNi41IDQuNS0yMyA2LTMxLjUgOC41Yy02Ljk5IDIuMDYtNTkuMzEgMi4yOC03Ny43NiAyLjMtMi43LTIuNDUtNS4zNy00Ljk3LTcuOTMxLTcuNDc5IDEwLjYzMS0xLjUgMzUuNjEtNS4wNCA0MC42OS01LjgyIDYuNS0xIDM0LjUtMTQgMzctMTYuNXMzOS0zLjQ3IDM5LjUtNC40OWMwLjUtMS4wMSAyMi41LTEyLjUxIDI3LTEzLjAxczMxLjUtMi4xOCAzNC41LTExLjA5IDEyLjUtMTYuMyAxMi41LTE2LjMgOC0xMi42MSA4LTE1LjExLTIuNS0xNC0yLjUtMTQgMi4yOTktMTIuMjkgNi0xOS4yOGMzLjE4OSAxLjI4IDUuODc5IDMuMTYgNiA1LjAzIDAuMjUgMy43NSA4IDE1LjI1IDEyLjc1IDEzLjc1czQuMjUxIDYuNzQ5IDAuMDAxIDEyLjQ5OXoiLz48cGF0aCBmaWxsPSIjRTVCRkFCIiBkPSJNNTA1LjUwMjgyIDE5Ni44MWMtOS4zNTkgNS42Ni0yNi4wOSAxMi41My0yOC4zMSAxNC43NS0yIDItOS4zNi0wLjQ1LTE1Ljk2LTEuODYgMi4yNy0xNi4yNyA4LjEyLTUyLjMxOSAxNS40Ni01NC42NCA3LjMtMi4zIDIyLjI2IDIxLjA1IDI4LjgxIDQxLjc1eiIvPjxwYXRoIGZpbGw9IiNCRTk0N0QiIGQ9Ik01MDUuNjMxODIgMTk3LjAyNWMtMy4xNjkgMi41OS02LjY0NiA0Ljc0OS0xMC4xMzQgNi44MTMtMS43NTQgMS4wMjEtMy41MjkgMS45OTItNS4yOTQgMi45NzdsLTUuMzI2IDIuODMyYy0xLjc1OSAwLjkyNC0zLjU2NyAxLjg0NC01LjEzNCAyLjgxOC0wLjM3MSAwLjIzMS0wLjc2NiAwLjUwNS0wLjkyNiAwLjY1NmwtMC4yNzggMC4yNDktMC4wNzEgMC4wNjItMC4xODggMC4xNDFhNS41NyA1LjU3IDAgMCAxLTAuNDI0IDAuMjc0IDUuMjUgNS4yNSAwIDAgMS0xLjIzOCAwLjQ4MWMtMS41MjggMC4zNjMtMi42NzggMC4yMDktMy44MDUgMC4xMDEtMi4yMDYtMC4zMzYtNC4xODgtMC44NjEtNi4xNDEtMS40NzFsLTUuNzUtMS44MDgtMS40My0wLjQ1IDAuMjcxLTEuMjA1YzEuMDE3LTQuNTIyIDIuMDIxLTkuMDM0IDIuODE2LTEzLjU3OWE1MTMuODIyIDUxMy44MjIgMCAwIDAgMi4xODMtMTMuNjg4YzAuNjg1LTQuNTgzIDEuMzYzLTkuMTkgMi40NzMtMTMuNzU1IDAuNTU4LTIuMjgyIDEuMjE3LTQuNTUyIDIuMDUtNi44MTdhMzYuNzMgMzYuNzMgMCAwIDEgMS40MzktMy4zOTZjMC41NjUtMS4xMzMgMS4xODktMi4yNzIgMi4xNDItMy40MTYgMC40ODQtMC41NjcgMS4wNTYtMS4xNDYgMS44NzYtMS42NTQgMC40MTQtMC4yNSAwLjg4My0wLjQ3OSAxLjQ0OS0wLjYyOGwwLjIwOC0wLjA1OSAwLjQ0MS0wLjA4NGMwLjMyNy0wLjA1OCAwLjU0Mi0wLjA2MiAwLjc4OC0wLjA3NSAxLjk0Ny0wLjAzNSAzLjQwMyAwLjY0MyA0LjYzMiAxLjMxIDIuNDM4IDEuNDE3IDQuMjA0IDMuMTg4IDUuODU0IDUuMDA3IDMuMjM1IDMuNjc0IDUuNzggNy42ODUgOC4wMzUgMTEuODIxYTg1LjY1IDg1LjY1IDAgMCAxIDMuMTQyIDYuMzA1YzAuOTgyIDIuMTI3IDEuODU0IDQuMzAyIDIuNjczIDYuNDg5IDEuNjEgNC4zODcgMi45NDggOC44NzUgMy43NzUgMTMuNDZsMC4wMzEgMC4xNzQtMC4xMzkgMC4xMTV6IG0tMC40Ny0wLjM0NGMtMy44NzgtOC4zMDUtOC4xNC0xNi4yOTMtMTMuMDI3LTIzLjgwMi0yLjQ4My0zLjc1Mi01LjEwMS03LjQyOC04LjAwNS0xMC42MzItMS40NDItMS41NzYtMi45OTgtMy4wODYtNC41MjgtNC4wMzMtMC43NDUtMC40NzktMS40OTgtMC43NDYtMS44NzUtMC43NDQtMC4wNDIgMC4wMDEtMC4xMTUtMC4wMDQtMC4wNzItMC4wMDggMC4wMDYtMC4wMDIgMC4wMjEtMC4wMTQgMC4wMTUtMC4wMjFsLTAuMjEgMC4wNWMwLjAwNi0wLjAxNS0wLjA1NSAwLjAwMS0wLjEzNiAwLjA0MS0wLjE3MSAwLjA4MS0wLjQ0OSAwLjMwNC0wLjcyNiAwLjU5OC0wLjU2NyAwLjU5My0xLjEzNCAxLjQ0NS0xLjY0MyAyLjM0Ni0wLjUxMiAwLjkwNi0wLjk4IDEuODg1LTEuNDIgMi44ODktMC44ODMgMi4wMTItMS42NTQgNC4xMjYtMi40MDUgNi4yNTgtMS40OSA0LjI3NS0yLjkxMSA4LjY0Ni00LjEzIDEzLjA3NS0xLjIyOCA0LjQyOS0yLjE2OCA4LjkzNi0yLjkxNyAxMy40NzItMC43MzUgNC41MzktMS4xMjQgOS4xMzUtMS4zODEgMTMuNzM1bC0xLjE1OS0xLjY1NWMyLjAzOCAwLjI4MSA0LjA1MyAwLjYwMiA2LjAyMSAwLjk1IDEuOTY5IDAuMzA5IDMuOTIxIDAuNzA4IDUuNzIyIDAuODI1IDAuODY5IDAuMDg2IDEuNzcgMC4wNTkgMi4yMDgtMC4wNTQgMC4xMTQtMC4wMjIgMC4xNTUtMC4wNTggMC4xNy0wLjA1NGEwLjM4NSAwLjM4NSAwIDAgMC0wLjEwNSAwLjA3Yy0wLjAxIDAuMDEtMC4wNDIgMC4wNDUtMC4wMjkgMC4wMzZsMC4wNzEtMC4wNjIgMC4wNzEtMC4wNjIgMC4wMzYtMC4wMzEgMC4wMDktMC4wMDhjLTAuMDUxIDAuMDQ4IDAuMTI2LTAuMTE1LTAuMTEgMC4xMDRsMC4wMzEtMC4wM2MwLjA4My0wLjA3OCAwLjE3Ny0wLjE2OSAwLjI0OS0wLjIyNyAwLjYxMS0wLjQ5NyAxLjA3NS0wLjc1OSAxLjU2My0xLjA1MSAxLjkwMy0xLjA3OCAzLjcyMi0xLjkyOSA1LjU3My0yLjc5Mmw1LjU2Mi0yLjQyNCA1LjU4Ni0yLjI5OWMzLjY2My0xLjQ3NyA3LjMxOC0yLjkzMyAxMC45OTEtNC40NnoiLz48cGF0aCBmaWxsPSIjRTVCRkFCIiBkPSJNNjYzLjkyMzgyIDIzOS4xMmgtMC4wMTJjLTEuMjM4LTAuNDM5LTIuMzc5LTAuNjQtMy4zODktMC41Ni03LjQ3MSAwLjU4LTM0LjMyLTE5LjIxLTQzLjI1LTI1LjQ5IDE2LjMwOS0yNC4wNCA1Mi4xNi03NS43NzkgNTcuOTItNzUuMDEgNi43NjEgMC45IDguMjQxIDM2LjI5LTExLjI2OSAxMDEuMDZ6Ii8+PHBhdGggZmlsbD0iI0JFOTQ3RCIgZD0iTTY2NC4wOTk4MiAyMzkuMzU0bC0wLjE4OCAwLjAxNy0wLjAyIDAuMDAyLTAuMDY0LTAuMDE3Yy0xLjA3LTAuMjcxLTIuMTc4LTAuNDEyLTMuMTg4LTAuMjU0LTEuMjQ2IDAuMTc0LTIuNDUzLTAuMDYzLTMuNTg4LTAuMzIyLTIuMjc3LTAuNTc2LTQuNDA4LTEuNDU1LTYuNTAyLTIuMzg2YTExMy4zNzYgMTEzLjM3NiAwIDAgMS02LjExOS0zLjA2NiAyMTMuOTU2IDIxMy45NTYgMCAwIDEtNS45MDgtMy4zOTNjLTMuODg5LTIuMzM2LTcuNjg4LTQuNzk4LTExLjQ0My03LjMxNC0zLjcyMS0yLjU1Ny03LjQ3MS01LjA5NC0xMS4wOTItNy43MjRsLTEuNzc5LTEuMjkzIDEuMjE3LTEuNzg4YzQuNjgtNi44ODEgOS43MjctMTMuNTEyIDE0LjgzNC0yMC4wOTNhNjQ1LjczNCA2NDUuNzM0IDAgMCAwIDE0Ljk2NS0xOS45ODVjMi40MzQtMy4zNzQgNC44NC02Ljc2OCA3LjIzOC0xMC4xNzRhNTA4LjEwOCA1MDguMTA4IDAgMCAxIDcuMjctMTAuMTg4YzIuNDg0LTMuMzYzIDQuOTcxLTYuNzMxIDcuNzk1LTkuOTI3YTUxLjQxNiA1MS40MTYgMCAwIDEgMi4yMTctMi4zN2MwLjc5MS0wLjc3OCAxLjYwNC0xLjUyOSAyLjY4Ni0yLjI2MSAwLjI3OS0wLjE4MyAwLjU4Mi0wLjM2MyAwLjk1My0wLjUzNiAwLjM3Ny0wLjE2NiAwLjgxMS0wLjM1NSAxLjUyOS0wLjQwNmEyLjI3IDIuMjcgMCAwIDEgMC4yODktMC4wMDNsMC4xNTQgMC4wMDljMC4wOCAwLjAxIDAuMDM1LTAuMDAyIDAuMjIxIDAuMDI2bDAuMDk2IDAuMDE1IDAuMTY2IDAuMDMxYzAuMzY1IDAuMDggMC41NjYgMC4xNTUgMC44MTggMC4yNjFhNC43OCA0Ljc4IDAgMCAxIDEuMjExIDAuNzYxYzEuMzA3IDEuMTY2IDEuODEzIDIuMzY1IDIuMjkzIDMuNDkxIDAuODc1IDIuMjY1IDEuMjU4IDQuNDQgMS41NjYgNi42MDkgMC4yODkgMi4xNjUgMC40NDEgNC4zMTIgMC41MiA2LjQ0OCAwLjEzMyA0LjI3MiAwLjAxNCA4LjUwOS0wLjI5MyAxMi43Mi0wLjM0NCA0LjIwNi0wLjc3NyA4LjM5NC0xLjQxMiAxMi41NDZhMjcyLjI2NSAyNzIuMjY1IDAgMCAxLTIuMTk1IDEyLjM4NyAzMDAuNjk3IDMwMC42OTcgMCAwIDEtNi4xMTkgMjQuMzIyIDI5Ni44MjggMjk2LjgyOCAwIDAgMS04LjA2NCAyMy42OTJsLTAuMDY0IDAuMTYzeiBtLTAuMzU5LTAuNTY1YzMuNTItMTYuMTk2IDcuMS0zMi4yOTcgOS43MjktNDguNTEgMC42NzQtNC4wNyAxLjMwNy04LjE0NCAxLjgxOC0xMi4yMjUgMC41Mi00LjA4IDEuMDQzLTguMTU0IDEuMzY1LTEyLjIzNCAwLjM1NC00LjA3NSAwLjYyMS04LjE1NCAwLjU5NC0xMi4xOTQtMC4wMDgtMi4wMTgtMC4wNzYtNC4wMjctMC4yNy01Ljk5MS0wLjE5NS0xLjk0OS0wLjUwNC0zLjkwNy0xLjA3OC01LjU0Ny0wLjI3My0wLjc5My0wLjY4OC0xLjUzNi0wLjk0My0xLjc3LTAuMDU3LTAuMDU5LTAuMDktMC4wODEtMC4wOS0wLjA4NiAwLjAxNC0wLjAwMi0wLjAzMS0wLjAxIDAuMDgyIDAuMDExIDAuMDQxIDAuMDA0IDAuMDE2LTAuMDAyLTAuMDI1LTAuMDA5bC0wLjA5Ni0wLjAyIDAuMTI1IDAuMDE4IDAuMDU3IDAuMDA0IDAuMDk0LTAuMDAyYzAuMTk5LTAuMDIyIDAuMTMxLTAuMDQyIDAuMDM1IDAuMDAyYTMuMDggMy4wOCAwIDAgMC0wLjQxNCAwLjIwOWMtMC42NjggMC4zOTYtMS40MjYgMS4wMjEtMi4xNTQgMS42NTZhNDcuNjY1IDQ3LjY2NSAwIDAgMC0yLjE4NiAyLjA0NGMtMi44NjUgMi44NjYtNS42NiA1LjkzLTguMzczIDkuMDUxLTUuNDEyIDYuMjY5LTEwLjY1OCAxMi43MjktMTUuNTQzIDE5LjQ0NC00LjkyMiA2LjY5Mi05LjUyNSAxMy42MTYtMTMuOTIyIDIwLjY3Ni00LjQwMiA3LjA1Ny04Ljc3IDE0LjEzMS0xMy40MjQgMjEuMDA4bC0wLjU2My0zLjA4YTIyNC4yNTYgMjI0LjI1NiAwIDAgMSA1LjUwMiAzLjkzNWw1LjQ2MSAzLjk0MWE2NjIuNDcxIDY2Mi40NzEgMCAwIDAgMTAuOTU1IDcuNzkxIDIxMS45NDUgMjExLjk0NSAwIDAgMCA1LjU0OSAzLjc2IDExMy4yNzggMTEzLjI3OCAwIDAgMCA1LjY0NiAzLjU2N2MxLjkwNiAxLjEyOCAzLjg0OCAyLjIxNyA1Ljg1OSAzLjAyMyAxLjAwNiAwLjM5NSAyLjAyNSAwLjc0NSAzLjAzOSAwLjc0OSAxLjE0OSAwLjAyNCAyLjE5NCAwLjM2MyAzLjE3MSAwLjc3OXoiLz48cGF0aCBmaWxsPSIjMjMxODE1IiBkPSJNNTIxLjY5MzgyIDQwMC4wNmExNi43NSAxNSAwIDEgMCAzMy41IDAgMTYuNzUgMTUgMCAxIDAtMzMuNSAwWiIvPjxwYXRoIGZpbGw9IiMyNjI3MjciIGQ9Ik0zNTMuNjkzODIgNDI3LjA2YzMuMDY4IDIuNTU3IDUuODE4IDQuODEyIDguNTkxIDYuMzI2IDEuMzc2IDAuNzUgMi43MTEgMS4yOTkgMy45OTcgMS41OTggMS4yODkgMC4yOTcgMi41MTggMC4zODEgMy44MDMgMC4yNTkgMi41NTUtMC4yMjkgNS40Mi0xLjM0MSA4LjQwOS0yLjkwMyAzLjAyMy0xLjUzNyA2LjA3NS0zLjUxIDkuNy01LjI3OS0xLjAzNyAzLjkwNC0zLjA2MyA3LjMxNi01Ljg3MSAxMC4yN2EyMS4wMTMgMjEuMDEzIDAgMCAxLTQuOTg4IDMuODRjLTEuOTEyIDEuMDU0LTQuMTMzIDEuODIyLTYuNTE2IDIuMDM4LTIuMzczIDAuMjI4LTQuODc5LTAuMTQ3LTcuMDUzLTEuMDg0YTE1LjY2NSAxNS42NjUgMCAwIDEtNS40ODUtMy45MTQgMTguMTgyIDE4LjE4MiAwIDAgMS0zLjMyMS01LjI2NWMtMC43NTYtMS44ODMtMS4yNzItMy44NDEtMS4yNjYtNS44ODZ6Ii8+PHBhdGggZmlsbD0iIzI2MjcyNyIgZD0iTTM2Ny4xOTA4MiA0ODEuMDZhMi45ODcgMi45ODcgMCAwIDEtMS41NDEtMC40MjhjLTIuOTM4LTEuNzYzLTYuMDc2LTYuMjMtNC4yNTUtMjUuMjk1IDAuOTQxLTkuODU1IDIuNzgxLTE4Ljk4OSAyLjg1OC0xOS4zNzNhMyAzIDAgMSAxIDUuODgxIDEuMTkxYy0wLjAxOSAwLjA5Mi0xLjg2MSA5LjI0Ny0yLjc3MSAxOC43OTQtMS42NjcgMTcuNSAxLjM0MyAxOS41MiAxLjM3NCAxOS41MzhhMyAzIDAgMCAxLTEuNTQ2IDUuNTczeiIvPjxwYXRoIGZpbGw9IiNFOEQ3QzAiIGQ9Ik03MDUuNjkzODIgNjAyLjU2MWMwIDQuOTcxLTIuODY1IDUuNzUtOC4yNSA1Ljc1cy0xMS4yNS0wLjc3OS0xMS4yNS01Ljc1IDYuMzY1LTExLjUgMTEuNzUtMTEuNSA3Ljc1IDYuNTI5IDcuNzUgMTEuNXoiLz48cGF0aCBmaWxsPSIjRjFFN0RCIiBkPSJNNjk3LjQ0MzgyIDYxMC44MTFjLTMuNCAwLTEzLjc1IDAtMTMuNzUtOC4yNSAwLTYuNTQzIDcuNTktMTQgMTQuMjUtMTQgNi42NTYgMCAxMC4yNSA3LjIxMyAxMC4yNSAxNCAwIDguMjUtNi45OTQgOC4yNS0xMC43NSA4LjI1eiBtMC41LTE3LjI1Yy00LjE5OSAwLTkuMjUgNS41MjctOS4yNSA5IDAgMC44ODkgMCAzLjI1IDguNzUgMy4yNSA1Ljc1IDAgNS43NS0wLjk1MSA1Ljc1LTMuMjUgMC0zLjczOS0xLjYyOS05LTUuMjUtOXoiLz48cGF0aCBmaWxsPSIjRThEN0MwIiBkPSJNNDI0LjE5MzgyIDY4Mi41NjFjMCA1LjUyMy0xMi42NjcgMS42MDQtMjguNjY3LTUtMTUuNjk4LTYuNDc5LTIzLjMzMy0xOS42NjgtMTkuMzM0LTI2IDIuOTQ5LTQuNjcgMTkuMDA0IDExLjA5OCAyMy40NzYgMTQuMzMyIDguODA3IDYuMzcxIDI0LjUyNSAxMS4xNDQgMjQuNTI1IDE2LjY2OHoiLz48cGF0aCBmaWxsPSIjRjFFN0RCIiBkPSJNNDIwLjM1MDgyIDY4Ny42ODZjLTQuNzMxIDAtMTIuNjgyLTIuNDEtMjUuNzc3LTcuODE0LTEwLjM3OC00LjI4My0xOC42OTgtMTIuMTIzLTIxLjE5Ni0xOS45NzMtMS4xODYtMy43MjUtMC45NDItNy4wNjggMC43MDItOS42NzQgMC44MjQtMS4zMDUgMi4xODQtMi4wMjEgMy44MjctMi4wMjEgNC4zOTQgMCAxMS4xODggNS40OTggMTguOTY0IDEyLjE0MSAxLjc5OSAxLjUzNyAzLjM1MyAyLjg2NSA0LjI2NCAzLjUyMyAzLjA5MiAyLjIzNiA3LjE2MyA0LjMwOSAxMS4xMDEgNi4zMTMgOC4wNzkgNC4xMTMgMTQuNDYgNy4zNjEgMTQuNDYgMTIuMzgxLTAuMDAyIDEuMi0wLjQ1OSA1LjEyNC02LjM0NSA1LjEyNHogbS00Mi4yMjQtMzQuNDcxYy0wLjY0NSAxLjI4OS0wLjY0MyAzLjEwNCAwLjAxNSA1LjE2OCAxLjU3MSA0LjkzOCA3LjMxNyAxMi4zMTggMTguMzQgMTYuODY3IDEyLjEyNSA1LjAwNCAxOS45MzMgNy40MzYgMjMuODY5IDcuNDM2IDAuNzU4IDAgMS4xNTktMC4wOTYgMS4zNDMtMC4xNi0wLjA4OC0xLjk2My03LjM2Ny01LjY3LTExLjcyNy03Ljg4OS00LjEwOC0yLjA5Mi04LjM1Ni00LjI1NC0xMS43NjMtNi43MTktMS4wNzUtMC43NzctMi42MjMtMi4xLTQuNTgyLTMuNzczLTQuMDU3LTMuNDY1LTEyLjM5My0xMC41ODgtMTUuNDk1LTEwLjkzeiIvPjxwYXRoIGZpbGw9IiNFOEQ3QzAiIGQ9Ik01OTUuMTkzODIgNjkwLjIyN2MtMS44NTItMy43MDUtMTIuMzM0IDYuNjY2LTE5LjMzNCAxMi4zMzQtMTMuMTQ1IDEwLjY0MS0zMC4zMzIgMTEuNjY2LTI3LjMzMiAxNy4zMzIgMS45MzggMy42NjIgMjAuMjMgMS44ODkgMzMtNi4zMzIgMTEtNy4wODIgMTYuMzMyLTE4IDEzLjY2Ni0yMy4zMzR6Ii8+PHBhdGggZmlsbD0iI0YxRTdEQiIgZD0iTTU1NC45MDY4MiA3MjQuMjA3Yy00LjY2IDAtNy40NjktMS4wMjktOC41ODgtMy4xNDUtMC44ODUtMS42NjgtMC42ODYtMy4wODItMC4zNjEtMy45NzMgMS4wNzQtMi45NjcgNC43ODEtNC40ODYgMTAuMzk1LTYuNzg3IDUuMzg5LTIuMjA5IDEyLjA5NC00Ljk1NyAxNy45MzYtOS42ODYgMS40MDItMS4xMzcgMi45NDEtMi40NTkgNC41Ny0zLjg1OSA3LjEwNC02LjEwNSAxMS42NTgtOS44MTMgMTUuMDE0LTkuODEzIDEuNTc0IDAgMi44NzEgMC43ODkgMy41NTkgMi4xNjQgMy41MjMgNy4wNDctMy4xNDEgMTkuMjA3LTE0LjU0OSAyNi41NTMtOS4xNjkgNS45MDMtMjAuNjU4IDguNTQ2LTI3Ljk3NiA4LjU0NnogbS00LjEzNS01LjU3NGMwLjQ2NyAwLjIyMyAxLjcxNSAwLjU3NCA0LjEzNSAwLjU3NCA2LjM3MyAwIDE3LTIuNDI2IDI1LjI2OC03Ljc0OCA5Ljg4MS02LjM2MyAxNC4wNzYtMTUuMjQgMTMuMDYxLTE5LjM1LTIuMzk4IDAuOTQ3LTcuOTgyIDUuNzQ2LTExLjExNyA4LjQ0MS0xLjY1OCAxLjQyNC0zLjIyNSAyLjc3LTQuNjg0IDMuOTUzLTYuNDEyIDUuMTg5LTEzLjc5NSA4LjIxNy0xOS4xODggMTAuNDI2LTIuODI0IDEuMTU5LTYuNjM1IDIuNzE5LTcuNDc1IDMuNzA0eiIvPjxwYXRoIGZpbGw9IiNFOEQ3QzAiIGQ9Ik00MDYuOTQzODIgNzYwLjY2OGMwIDMuNTktMTkuNzUgMy45NDEtMjYuNSAyLjUzMS0xMy4wMy0yLjcyMy0yNC45NjktMjQuODgxLTIzLjI1LTI4LjAzMSAxLjUtMi43NSAyMC40NTMgMTUuNjA5IDIyLjAyOCAxNyAxMC40NzIgOS4yNSAyNy43MjItMS42MTcgMjcuNzIyIDguNXoiLz48cGF0aCBmaWxsPSIjRjFFN0RCIiBkPSJNMzkwLjg3MzgyIDc2Ni40NjljLTQuMzg1IDAtOC40NzYtMC4zMDctMTAuOTQyLTAuODIyLTEwLjQwOS0yLjE3Ni0xOS43NC0xNC45ODQtMjMuNDczLTIzLjA2NC0yLjUzMS01LjQ3OS0yLjA0Ni03LjUzOS0xLjQ2LTguNjExIDAuNTQtMC45OTIgMS41NjctMS41ODQgMi43NDgtMS41ODQgMi40NzggMCA2Ljk5NCAyLjc5NSAyMS44MzkgMTYuNzA3IDAuNjQ4IDAuNjA3IDEuMTAxIDEuMDMxIDEuMjkgMS4xOTkgMy40NzQgMy4wNjggNy45NzEgMy40NjMgMTEuNSAzLjQ2M2gwLjAwMWMxLjQ4MyAwIDIuOTUtMC4wNzggNC4zNjctMC4xNTIgMS4zMjEtMC4wNyAyLjU2OC0wLjEzNSAzLjc1LTAuMTM1IDIuMjE0IDAgOC45NDkgMCA4Ljk0OSA3LjE5OSAwLjAwMSAxLjU4NSAwLjAwMSA1LjgtMTguNTY5IDUuOHogbS0zMC41ODgtMjcuNTFjMi41NzggNi40NzMgMTEuMzI1IDE5Ljg0IDIwLjY2OSAyMS43OTMgMi4xMTcgMC40NDEgNS45MTggMC43MTcgOS45MTkgMC43MTcgNy4zMyAwIDEyLjAzMy0wLjgzMiAxMy41NDQtMS41MjktMC4xMTMtMC45NTUtMC43MTQtMS40NzEtMy45MjQtMS40NzEtMS4wNSAwLTIuMjMzIDAuMDYxLTMuNDg2IDAuMTI3LTEuNDgyIDAuMDc4LTMuMDE2IDAuMTYtNC42MzEgMC4xNmgtMC4wMDFjLTQuMDY2IDAtMTAuMDI2LTAuNDktMTQuODEtNC43MTUtMC4yMDUtMC4xODItMC42OTYtMC42NDEtMS40LTEuMjk5LTguNjMxLTguMDktMTMuMzI4LTExLjk1My0xNS44OC0xMy43ODN6Ii8+PHBhdGggZmlsbD0iI0U4RDdDMCIgZD0iTTcwNy43NDY4MiA3MjkuMWMwLTQuMTQzLTEwLjc5NyAxMC4yNS00MCAyMS0yNi44MjIgOS44NzMtNDYuMzM0IDEwLjE5MS00Ni4zMzQgMTQuMzM0czIxLjEyMyA5Ljk2NSA0OC42NjYgMi4zMzJjMjcuNjY4LTcuNjY2IDM3LjY2OC0zMy41MjQgMzcuNjY4LTM3LjY2NnoiLz48cGF0aCBmaWxsPSIjRjFFN0RCIiBkPSJNNzA3Ljc0NjgyIDcyOS4xYy0wLjAxLTAuMjQ2LTAuMDM1LTAuNTY2LTAuMjg3LTAuNjgyLTAuMjQ4LTAuMDg4LTAuNTE2IDAuMDE2LTAuNzUyIDAuMTEzLTAuNDc5IDAuMjEzLTAuOTA4IDAuNTIxLTEuMzQgMC44MTYtMC44NTIgMC42MTMtMS42NjQgMS4yODMtMi40NjcgMS45NjUtMS42MTEgMS4zNTktMy4xNTYgMi44MTgtNC43NDYgNC4yNDQtMy4xNDggMi44ODctNi40NTUgNS42NzgtMTAuMDQ5IDguMDQxLTcuNTE4IDQuMTExLTE1LjQyMiA3LjUzMy0yMy40ODggMTAuMjY4LTguMDUxIDIuNzc1LTE2LjI4OSA0Ljk5LTI0LjUzOSA2Ljg2NS00LjEwOSAwLjk1My04LjI3NyAxLjc5MS0xMi4xOTkgMi44MTYtMC45NjkgMC4yNjItMS45MjggMC41NDEtMi43NjggMC44NjFhOC42ODcgOC42ODcgMCAwIDAtMS4wOTIgMC40OTJjLTAuMjgxIDAuMTQxLTAuNDMgMC4zNTQtMC4yNTggMC4xMjEgMC4wMzctMC4wNjEgMC4wODQtMC4xNjIgMC4xMTUtMC4yNzkgMC4wMTgtMC4wNjEgMC4wMi0wLjEyNSAwLjAzMy0wLjE4NiAwLjAwNC0wLjAzMSAwLjAwNi0wLjA2MyAwLjAwNC0wLjA5NGE5LjMzIDkuMzMgMCAwIDEtMC4wMDgtMC4yMDVsMC4wMDQgMC4wNDljMC4wMDIgMC4wNTMgMC4wMTggMC4yMDEgMC4wMDQgMC4wMS0wLjAwNi0wLjEwNS0wLjA2My0wLjI2LTAuMDYzLTAuMjYtMC4wMjUtMC4wNzQtMC4wMzctMC4xMDItMC4wNTMtMC4xMTktMC4wMjUtMC4wMjkgMC4xNjIgMC4xOTUgMC40MzkgMC4zODMgMC41NjMgMC40MDYgMS4zOTEgMC44MDkgMi4yNDQgMS4xNDMgMy41MTggMS4zMzYgNy42IDEuOTczIDExLjYxMSAyLjMwMSA0LjA0MyAwLjMxNCA4LjE0MSAwLjI3OSAxMi4yMTktMC4wMjdhOTYuODEgOTYuODEgMCAwIDAgMTIuMTctMS43MTNjNC4wMS0wLjg0MiA4LjA1OS0xLjgzNCAxMS43NDQtMy4yNTYgNy40OS0yLjg3MSAxNC4yMzItNy41NzQgMTkuNjQ1LTEzLjUyOSAyLjk2Ny0yLjczMiA1Ljg5Ni01LjY1IDguNDgtOC45MzkgMS4yNy0xLjY1NCAyLjQ1Ny0zLjM5NiAzLjQxLTUuMjY0IDAuNDc5LTAuOTM0IDAuOTEtMS44OTMgMS4yNjYtMi44NzkgMC4zNDYtMC45ODggMC42NjgtMi4wMDQgMC43MjEtMy4wNTZ6IG0wIDBjLTAuMDM3IDEuMDU1LTAuMzM4IDIuMDc2LTAuNjA3IDMuMDkyYTY0Ljg2MiA2NC44NjIgMCAwIDEtMC45NDMgMy4wMjdjLTAuNjg5IDIuMDAyLTEuNDA2IDQuMDItMi4yMzggNi4wMDYtMS42MjkgMy45OS0zLjY5NSA3Ljg5Ni02LjM5MSAxMS4zODMtNS44OTUgNi40OS0xMy4zMTQgMTEuNjc2LTIxLjU0MyAxNC44MjYtNC4xNyAxLjU5OC04LjMyNCAyLjU5OC0xMi41MzcgMy40ODhhMTAyLjA5IDEwMi4wOSAwIDAgMS0xMi43OTkgMS44MDFjLTQuMzA1IDAuMzIyLTguNjQzIDAuMzYxLTEyLjk4NCAwLjAyNS00LjM0OC0wLjM3My04LjY4LTAuOTg4LTEzLjA0Ny0yLjYzMS0xLjA5Ni0wLjQ0MS0yLjE5My0wLjkyNi0zLjM0Ni0xLjc0NC0wLjU3Mi0wLjQyNi0xLjE4OS0wLjkwOC0xLjc3Ny0xLjgzYTQuNDcyIDQuNDcyIDAgMCAxLTAuMzk2LTAuODMyIDMuNjg1IDMuNjg1IDAgMCAxLTAuMTY0LTAuNjM3Yy0wLjA1My0wLjMxOC0wLjAzNy0wLjMwMS0wLjA0Ny0wLjM3OWEzLjc5OCAzLjc5OCAwIDAgMSAwLjUzMy0yLjIxOWMwLjcyNS0xLjEzOSAxLjQ3Ny0xLjU0MSAyLjA5Ni0xLjkyNmExMy4xNiAxMy4xNiAwIDAgMSAxLjc3NS0wLjgxNGMxLjEyNy0wLjQyNiAyLjE5MS0wLjczIDMuMjUyLTEuMDE4IDQuMjEzLTEuMSA4LjI5Ny0xLjkxMiAxMi4zODEtMi44NjMgOC4xNDYtMS44NTIgMTYuMTc4LTQuMDEyIDI0LjAyOS02LjcxOSA3Ljg1NC0yLjY4NiAxNS40NzEtNS45MTIgMjIuNjctOS45NTkgMy43NjgtMS43MDEgNy42MTktMy4zNDIgMTEuNDA4LTUuMjA3IDEuODgzLTAuOTQ1IDMuNzUtMS45NDMgNS41NDMtMy4wNTVsMi42ODgtMS42N2MwLjQ0OS0wLjI3MyAwLjkwNi0wLjU0MyAxLjM5NS0wLjc0NiAwLjI0LTAuMDkyIDAuNTEyLTAuMTkzIDAuNzcxLTAuMDk4IDAuMjU4IDAuMTI4IDAuMjcyIDAuNDUzIDAuMjc4IDAuNjk5eiIvPjxwYXRoIGZpbGw9IiMyNjI3MjciIGQ9Ik0zNTMuNjkzODIgNDI3LjA2YzMuMDY4IDIuNTU3IDUuODE4IDQuODEyIDguNTkxIDYuMzI2IDEuMzc2IDAuNzUgMi43MTEgMS4yOTkgMy45OTcgMS41OTggMS4yODkgMC4yOTcgMi41MTggMC4zODEgMy44MDMgMC4yNTkgMi41NTUtMC4yMjkgNS40Mi0xLjM0MSA4LjQwOS0yLjkwMyAzLjAyMy0xLjUzNyA2LjA3NS0zLjUxIDkuNy01LjI3OS0xLjAzNyAzLjkwNC0zLjA2MyA3LjMxNi01Ljg3MSAxMC4yN2EyMS4wMTMgMjEuMDEzIDAgMCAxLTQuOTg4IDMuODRjLTEuOTEyIDEuMDU0LTQuMTMzIDEuODIyLTYuNTE2IDIuMDM4LTIuMzczIDAuMjI4LTQuODc5LTAuMTQ3LTcuMDUzLTEuMDg0YTE1LjY2NSAxNS42NjUgMCAwIDEtNS40ODUtMy45MTQgMTguMTgyIDE4LjE4MiAwIDAgMS0zLjMyMS01LjI2NWMtMC43NTYtMS44ODMtMS4yNzItMy44NDEtMS4yNjYtNS44ODZ6Ii8+PHBhdGggZmlsbD0iIzI2MjcyNyIgZD0iTTM2Ny4xOTA4MiA0ODEuMDZhMi45ODcgMi45ODcgMCAwIDEtMS41NDEtMC40MjhjLTIuOTM4LTEuNzYzLTYuMDc2LTYuMjMtNC4yNTUtMjUuMjk1IDAuOTQxLTkuODU1IDIuNzgxLTE4Ljk4OSAyLjg1OC0xOS4zNzNhMyAzIDAgMSAxIDUuODgxIDEuMTkxYy0wLjAxOSAwLjA5Mi0xLjg2MSA5LjI0Ny0yLjc3MSAxOC43OTQtMS42NjcgMTcuNSAxLjM0MyAxOS41MiAxLjM3NCAxOS41MzhhMyAzIDAgMCAxLTEuNTQ2IDUuNTczeiIvPjwvc3ZnPg==;fontSize=26;" parent="1" vertex="1">
          <mxGeometry x="-6153.5" y="-1429.87" width="71" height="71" as="geometry" />
        </mxCell>
        <mxCell id="wu85P2VpSHijpUglrD6K-420" value="&lt;p style=&quot;line-height: 100%;&quot;&gt;&lt;font style=&quot;font-size: 28px;&quot;&gt;Knowledge Concept Recommender&lt;/font&gt;&lt;/p&gt;" style="text;html=1;align=center;verticalAlign=middle;whiteSpace=wrap;rounded=0;fontSize=28;" parent="1" vertex="1">
          <mxGeometry x="-6412" y="-1418.87" width="280" height="30" as="geometry" />
        </mxCell>
        <mxCell id="wu85P2VpSHijpUglrD6K-519" style="edgeStyle=orthogonalEdgeStyle;rounded=0;orthogonalLoop=1;jettySize=auto;html=1;exitX=0.443;exitY=0.003;exitDx=0;exitDy=0;entryX=0;entryY=0.25;entryDx=0;entryDy=0;exitPerimeter=0;" parent="1" source="wu85P2VpSHijpUglrD6K-423" edge="1">
          <mxGeometry relative="1" as="geometry">
            <mxPoint x="-6561" y="-1425.69" as="sourcePoint" />
            <mxPoint x="-6481" y="-1430.8711730708737" as="targetPoint" />
            <Array as="points">
              <mxPoint x="-6567" y="-1430.87" />
            </Array>
          </mxGeometry>
        </mxCell>
        <mxCell id="wu85P2VpSHijpUglrD6K-423" value="&lt;font style=&quot;font-size: 28px;&quot;&gt;LoRA&lt;/font&gt;" style="shape=trapezoid;perimeter=trapezoidPerimeter;whiteSpace=wrap;html=1;fixedSize=1;fillColor=none;fontSize=26;" parent="1" vertex="1">
          <mxGeometry x="-6617" y="-1417.6899999999998" width="112" height="45" as="geometry" />
        </mxCell>
        <mxCell id="wu85P2VpSHijpUglrD6K-521" style="edgeStyle=orthogonalEdgeStyle;rounded=0;orthogonalLoop=1;jettySize=auto;html=1;exitX=0.5;exitY=0;exitDx=0;exitDy=0;" parent="1" edge="1">
          <mxGeometry relative="1" as="geometry">
            <mxPoint x="-6282.117272727273" y="-1346.87" as="targetPoint" />
            <mxPoint x="-6282.39" y="-1290.87" as="sourcePoint" />
          </mxGeometry>
        </mxCell>
        <mxCell id="wu85P2VpSHijpUglrD6K-442" value="&lt;div style=&quot;text-align: center;&quot;&gt;&lt;span style=&quot;background-color: initial;&quot;&gt;&lt;font style=&quot;font-size: 28px;&quot;&gt;Knowledge Concept&lt;/font&gt;&lt;/span&gt;&lt;/div&gt;" style="text;whiteSpace=wrap;html=1;fillColor=none;fontSize=26;" parent="1" vertex="1">
          <mxGeometry x="-6420" y="-1545.87" width="260" height="26.34" as="geometry" />
        </mxCell>
        <mxCell id="wu85P2VpSHijpUglrD6K-441" value="&lt;font style=&quot;font-size: 28px;&quot;&gt;&amp;nbsp;$$c_i$$&lt;/font&gt;" style="text;html=1;align=center;verticalAlign=middle;whiteSpace=wrap;rounded=0;fillColor=none;fontSize=26;" parent="1" vertex="1">
          <mxGeometry x="-6167" y="-1569.9699999999998" width="50" height="54.1" as="geometry" />
        </mxCell>
        <mxCell id="wu85P2VpSHijpUglrD6K-527" style="edgeStyle=orthogonalEdgeStyle;rounded=0;orthogonalLoop=1;jettySize=auto;html=1;exitX=0.456;exitY=0.003;exitDx=0;exitDy=0;exitPerimeter=0;" parent="1" source="wu85P2VpSHijpUglrD6K-419" edge="1">
          <mxGeometry relative="1" as="geometry">
            <mxPoint x="-6290.137272727273" y="-1497.87" as="targetPoint" />
            <mxPoint x="-6290.41" y="-1441.87" as="sourcePoint" />
          </mxGeometry>
        </mxCell>
        <mxCell id="wu85P2VpSHijpUglrD6K-528" value="&lt;font style=&quot;font-size: 28px;&quot;&gt;&lt;font style=&quot;font-size: 28px;&quot;&gt;High-Level Recommender&lt;/font&gt;&amp;nbsp;Prompt&lt;/font&gt;" style="text;html=1;align=center;verticalAlign=middle;whiteSpace=wrap;rounded=0;fontSize=13;" parent="1" vertex="1">
          <mxGeometry x="-6729" y="-1087.87" width="462" height="30" as="geometry" />
        </mxCell>
        <mxCell id="wu85P2VpSHijpUglrD6K-529" value="&lt;span style=&quot;color: rgb(0, 0, 0); font-family: Helvetica; font-size: 28px; font-style: normal; font-variant-ligatures: normal; font-variant-caps: normal; font-weight: 400; letter-spacing: normal; orphans: 2; text-align: center; text-indent: 0px; text-transform: none; widows: 2; word-spacing: 0px; -webkit-text-stroke-width: 0px; white-space: normal; background-color: rgb(251, 251, 251); text-decoration-thickness: initial; text-decoration-style: initial; text-decoration-color: initial; float: none; display: inline !important;&quot;&gt;&lt;span&gt;&amp;nbsp;&lt;/span&gt;Prompt Emb.&lt;/span&gt;" style="text;whiteSpace=wrap;html=1;" parent="1" vertex="1">
          <mxGeometry x="-6650" y="-1282.62" width="175" height="50" as="geometry" />
        </mxCell>
        <mxCell id="wu85P2VpSHijpUglrD6K-530" value="" style="rounded=0;whiteSpace=wrap;html=1;fillColor=#F3E6FA;strokeColor=#9673a6;fontSize=26;" parent="1" vertex="1">
          <mxGeometry x="-5539.5" y="-1557.87" width="264.5" height="60" as="geometry" />
        </mxCell>
        <mxCell id="wu85P2VpSHijpUglrD6K-531" value="" style="rounded=1;whiteSpace=wrap;html=1;fillColor=none;fontSize=26;" parent="1" vertex="1">
          <mxGeometry x="-5599" y="-1447.8711730708737" width="418" height="100" as="geometry" />
        </mxCell>
        <mxCell id="wu85P2VpSHijpUglrD6K-534" style="edgeStyle=orthogonalEdgeStyle;rounded=0;orthogonalLoop=1;jettySize=auto;html=1;exitX=0.5;exitY=0;exitDx=0;exitDy=0;" parent="1" source="wu85P2VpSHijpUglrD6K-535" edge="1">
          <mxGeometry relative="1" as="geometry">
            <mxPoint x="-5397.727272727273" y="-1227.87" as="targetPoint" />
          </mxGeometry>
        </mxCell>
        <mxCell id="wu85P2VpSHijpUglrD6K-535" value="&lt;font style=&quot;font-size: 28px;&quot;&gt;Encoder Module&lt;/font&gt;" style="rounded=1;whiteSpace=wrap;html=1;fillColor=#f9f7ed;strokeColor=#36393d;fontSize=26;" parent="1" vertex="1">
          <mxGeometry x="-5623" y="-1181.86" width="450" height="71" as="geometry" />
        </mxCell>
        <mxCell id="wu85P2VpSHijpUglrD6K-540" value="" style="group;fontSize=26;" parent="1" vertex="1" connectable="0">
          <mxGeometry x="-5561.5" y="-1272.8899999999999" width="300" height="42" as="geometry" />
        </mxCell>
        <mxCell id="wu85P2VpSHijpUglrD6K-541" value="" style="group" parent="wu85P2VpSHijpUglrD6K-540" vertex="1" connectable="0">
          <mxGeometry x="-10.551724137931034" y="-17.5" width="295.44827586206895" height="59.49999999999999" as="geometry" />
        </mxCell>
        <mxCell id="wu85P2VpSHijpUglrD6K-542" value="" style="group;fillColor=#FFFFFF;gradientColor=#CEE0CD;strokeColor=#82b366;container=0;flipH=1;fontSize=26;" parent="wu85P2VpSHijpUglrD6K-541" vertex="1" connectable="0">
          <mxGeometry width="53.63984674329502" height="59.49999999999999" as="geometry" />
        </mxCell>
        <mxCell id="wu85P2VpSHijpUglrD6K-543" value="" style="group;fillColor=#FFFFFF;gradientColor=#F8CECC;strokeColor=#B85450;container=0;flipH=1;fontSize=26;" parent="wu85P2VpSHijpUglrD6K-541" vertex="1" connectable="0">
          <mxGeometry x="153.36704980842913" width="48.27586206896551" height="59.49999999999999" as="geometry" />
        </mxCell>
        <mxCell id="wu85P2VpSHijpUglrD6K-544" value="" style="rounded=0;whiteSpace=wrap;html=1;fillColor=#FFFFFF;strokeColor=#6C8EBF;gradientColor=#DAE8FC;container=0;flipH=1;fontSize=26;" parent="wu85P2VpSHijpUglrD6K-541" vertex="1">
          <mxGeometry x="53.63984674329502" width="50.57164750957853" height="59.49999999999999" as="geometry" />
        </mxCell>
        <mxCell id="wu85P2VpSHijpUglrD6K-545" value="" style="rounded=0;whiteSpace=wrap;html=1;fillColor=#FFFFFF;strokeColor=#82b366;gradientColor=#CEE0CD;container=0;flipH=1;fontSize=26;" parent="wu85P2VpSHijpUglrD6K-541" vertex="1">
          <mxGeometry x="104.2166436781609" width="48.97875862068965" height="59.49999999999999" as="geometry" />
        </mxCell>
        <mxCell id="wu85P2VpSHijpUglrD6K-546" value="" style="rounded=0;whiteSpace=wrap;html=1;fillColor=#FFFFFF;strokeColor=#D6B656;gradientColor=#FFF2CC;container=0;flipH=1;fontSize=26;" parent="wu85P2VpSHijpUglrD6K-541" vertex="1">
          <mxGeometry x="249.3692873563218" width="46.07898850574713" height="59.49999999999999" as="geometry" />
        </mxCell>
        <mxCell id="wu85P2VpSHijpUglrD6K-547" value="" style="rounded=0;whiteSpace=wrap;html=1;fillColor=#FFFFFF;strokeColor=#82b366;gradientColor=#CEE0CD;container=0;flipH=1;fontSize=26;" parent="wu85P2VpSHijpUglrD6K-541" vertex="1">
          <mxGeometry x="201.63797701149426" width="47.85167816091953" height="59.49999999999999" as="geometry" />
        </mxCell>
        <mxCell id="wu85P2VpSHijpUglrD6K-548" value="" style="group;fillColor=#FFFFFF;gradientColor=#CEE0CD;strokeColor=#82b366;container=0;flipH=1;fontSize=26;" parent="1" vertex="1" connectable="0">
          <mxGeometry x="-5275.141724137931" y="-1289.37" width="53.63984674329502" height="59.49999999999999" as="geometry" />
        </mxCell>
        <mxCell id="wu85P2VpSHijpUglrD6K-549" value="&lt;font style=&quot;font-size: 19px;&quot; face=&quot;Times New Roman&quot;&gt;LlaMA2-7B&lt;/font&gt;" style="text;html=1;align=center;verticalAlign=middle;whiteSpace=wrap;rounded=0;fontSize=26;" parent="1" vertex="1">
          <mxGeometry x="-5460" y="-1395.78" width="140" height="30" as="geometry" />
        </mxCell>
        <mxCell id="wu85P2VpSHijpUglrD6K-550" value="" style="shape=image;verticalLabelPosition=bottom;labelBackgroundColor=default;verticalAlign=top;aspect=fixed;imageAspect=0;image=data:image/svg+xml,PHN2ZyB4bWxuczp4bGluaz0iaHR0cDovL3d3dy53My5vcmcvMTk5OS94bGluayIgeG1sbnM9Imh0dHA6Ly93d3cudzMub3JnLzIwMDAvc3ZnIiBoZWlnaHQ9IjIwMCIgd2lkdGg9IjIwMCIgdmVyc2lvbj0iMS4xIiB2aWV3Qm94PSIwIDAgMTAyNCAxMDI0IiBjbGFzcz0iaWNvbiI+PHBhdGggZmlsbD0iI0ZBM0YxRSIgZD0iTTM5MS45ODY3NjggMTAxMi4zNTk1MzFhMTg5LjYyMzIzNSAxODkuNjIzMjM1IDAgMCAxLTEwMy4yODk3NTktMTU2Ljc1ODMxMWMtMy40OTIxNDEtMTI1LjQ4NDI1MiA5MC4yMTM2MzItMTg2Ljk4NDcyOCAxNDUuNDI4MjU2LTI3MS4xMDY1MTUgNzkuMjMyNzktMTIwLjc4OTI2MyA1Ny43NzU1MjYtMTk1LjgzMTQ4NSA1Ny43NzU1MjYtMTk1LjgzMTQ4NXM2Ni4xMTc4NjIgMzQuNTMzMzkgMTA0LjYwOTAxMiAxNjMuNDcwOTgyYzExLjE3NDg1IDM2LjI0MDY1OSAxNC44NjA5OTggNzQuMzgyNTk1IDEwLjgyNTYzNSAxMTIuMDk3NzEzYTQ5NC4wNjAyOTIgNDk0LjA2MDI5MiAwIDAgMS00OC4wNzUxMzUgMTcyLjM5NTM0MXM3My4yNTczNDktMTQuNzQ0NTk0IDkzLjYyODE2OS0xMzkuMDI1OTk3YTIxMS41NDYxMTcgMjExLjU0NjExNyAwIDAgMSA2OC41NjIzNjEgMTI4LjgyMTE4NiAyMDEuODA2OTI1IDIwMS44MDY5MjUgMCAwIDEtMTI5Ljc5MTIyNiAxOTcuMDczMTM1IDQxMS44Nzg1ODMgNDExLjg3ODU4MyAwIDAgMCAyNzcuNTg2Mzc2LTIyNC4wMDE0MTljMzIuOTQyNTI2LTg3LjUzNjMyNCA0MS41OTUyNzUtMTgyLjM2NzM0MiAyNS4xMDQ2MTEtMjc0LjQ0MzQ1YTM4Mi43Mzg2MSAzODIuNzM4NjEgMCAwIDEgMzEuMTk2NDU2LTE4OS4wNDEyMTEgMjYzLjU0MDIxMSAyNjMuNTQwMjExIDAgMCAwLTEzNS44MDU0NjggMTA5LjQyMDQwNiAzMTguODcxMjM4IDMxOC44NzEyMzggMCAwIDAtMzcuMTcxODk2IDk5Ljc5NzYxOCAzNTYuMDQzMTM1IDM1Ni4wNDMxMzUgMCAwIDAtMzEuNTA2ODY5LTE0OC44ODE1OTRjLTM3LjAxNjY5LTkzLjc4MzM3Ni03MC44OTA0NTQtMTI3LjAzNjMxNS05MS4zNzc2NzktMTk2LjcyMzkyMWEyNTIuMDU0OTQ4IDI1Mi4wNTQ5NDggMCAwIDEgMzIuNTkzMzEyLTE4My45NTgyMDZzLTIzMi44ODY5NzYgNDAuMzUzNjI1LTMzOC43Mzc2MzggMjI5LjU1MDA0MmMtOTMuNjY2OTcxIDE2OC4wMTA3NjQtNTUuMjE0NjIzIDI2OC44MTcyMjMtNTUuMjE0NjIzIDI2OC44MTcyMjNhMjU5LjE5NDQzNiAyNTkuMTk0NDM2IDAgMCAxLTYwLjE0MjQyMS04Mi45MTg5MzkgMjA1LjM3NjY2OSAyMDUuMzc2NjY5IDAgMCAxLTE1Ljc1MzQzNC05MS44MDQ0OTZzLTE2NS41NjYyNjYgMTY5Ljk4OTY0NC04NC45NzU0MjIgMzg0LjEzNTQ2NmE0NTAuNzk2NTUgNDUwLjc5NjU1IDAgMCAwIDI4NC42MDk0NTkgMjg4LjgzODgyOSIvPjwvc3ZnPg==;fontSize=26;" parent="1" vertex="1">
          <mxGeometry x="-5743" y="-1444.87" width="47" height="47" as="geometry" />
        </mxCell>
        <mxCell id="wu85P2VpSHijpUglrD6K-551" value="" style="shape=image;verticalLabelPosition=bottom;labelBackgroundColor=default;verticalAlign=top;aspect=fixed;imageAspect=0;image=data:image/svg+xml,PHN2ZyB4bWxuczp4bGluaz0iaHR0cDovL3d3dy53My5vcmcvMTk5OS94bGluayIgeG1sbnM9Imh0dHA6Ly93d3cudzMub3JnLzIwMDAvc3ZnIiBoZWlnaHQ9IjIwMCIgd2lkdGg9IjIwMCIgdmVyc2lvbj0iMS4xIiB2aWV3Qm94PSIwIDAgMTAyNCAxMDI0IiBjbGFzcz0iaWNvbiI+PHBhdGggZmlsbD0iIzEyOTZkYiIgZD0iTTk5MiA0NzUuNjQ4aC03My4wODhsMzYuMzItNjIuODQ4YTMyIDMyIDAgMCAwLTU1LjM5Mi0zMi4wMzJsLTU0Ljc1MiA5NC44OEg2MzEuNTJsOTAuNDk2LTUyLjI1NmEzMiAzMiAwIDAgMCAxMS42OC00My43NDQgMzEuOTA0IDMxLjkwNCAwIDAgMC00My42OC0xMS42OGwtOTAuNTkyIDUyLjI4OCAxMDYuODQ4LTE4NS4wNGgxMDkuNTM2YTMxLjg0IDMxLjg0IDAgMCAwIDMxLjkwNC0zMS45NjggMzEuODI0IDMxLjgyNCAwIDAgMC0zMS44NzItMzJsLTcyLjYyNCAwLjAzMiAzNi41MjgtNjMuMzEyYTMxLjk1MiAzMS45NTIgMCAwIDAtMTEuNzEyLTQzLjY5NiAzMS44NzIgMzEuODcyIDAgMCAwLTQzLjY4IDExLjcyOGwtMzYuNTYgNjMuMzQ0LTM2LjI1Ni02Mi45NDRhMzEuOTg0IDMxLjk4NCAwIDAgMC00My43NzYtMTEuNjk2IDMxLjg0IDMxLjg0IDAgMCAwLTExLjY4IDQzLjYzMmw1NC44MTYgOTQuOTI4TDU0NCAzODguMzA0di0xMDQuNjU2YTMyIDMyIDAgMSAwLTY0IDB2MTA0LjU2bC0xMDYuODE2LTE4NC45OTIgNTQuNzUyLTk0Ljg4YTMxLjkwNCAzMS45MDQgMCAwIDAtMTEuNzEyLTQzLjYzMiAzMS44NTYgMzEuODU2IDAgMCAwLTQzLjY2NCAxMS42MzJsLTM2LjMyIDYyLjkxMi0zNi41MjgtNjMuMjhBMzEuOTY4IDMxLjk2OCAwIDAgMCAyNTYgNjQuMjcyYTMxLjkyIDMxLjkyIDAgMCAwLTExLjY4IDQzLjY5NmwzNi41NiA2My4zMTItNzIuNjI0LTAuMDY0Yy0xNy43MTIgMC0zMiAxNC4zMi0zMiAzMi4wNjRhMzEuODQgMzEuODQgMCAwIDAgMzEuOTM2IDMxLjkzNmgxMDkuNmwxMDYuODQ4IDE4NS4wNTYtOTAuNjI0LTUyLjMwNGEzMS44ODggMzEuODg4IDAgMCAwLTQzLjY4IDExLjcxMiAzMiAzMiAwIDAgMCAxMS42NDggNDMuNzI4bDkwLjQ5NiA1Mi4yNTZIMTc4Ljk0NGwtNTQuNzg0LTk0Ljg4YTMxLjk2OCAzMS45NjggMCAwIDAtNDMuNjQ4LTExLjY2NCAzMS45MDQgMzEuOTA0IDAgMCAwLTExLjc0NCA0My42NjRsMzYuMzIgNjIuODhIMzJhMzIgMzIgMCAxIDAgMCA2NGg3My4wODhsLTM2LjMzNiA2Mi44NDhhMzIgMzIgMCAwIDAgNTUuMzkyIDMyLjAzMmw1NC43ODQtOTQuODhoMjEzLjY4bC05MC42MjQgNTIuMzJhMzEuOTA0IDMxLjkwNCAwIDAgMC0xMS42OCA0My42OCAzMS45ODQgMzEuOTg0IDAgMCAwIDQzLjY4IDExLjc0NGw5MC42MjQtNTIuMzItMTA2LjgxNiAxODQuOTkySDIwOC4xNmMtMTcuNjMyIDAtMzEuOTM2IDE0LjMyLTMxLjkzNiAzMnMxNC4yODggMzIgMzEuOTM2IDMyaDcyLjY1NmwtMzYuNTI4IDYzLjI4YTMxLjk2OCAzMS45NjggMCAxIDAgNTUuMzkyIDMxLjk2OGwzNi41MjgtNjMuMjggMzYuMjU2IDYyLjg4YTMyIDMyIDAgMCAwIDQzLjc0NCAxMS43MTIgMzEuOTM2IDMxLjkzNiAwIDAgMCAxMS42OC00My42OGwtNTQuNzUyLTk0Ljg4TDQ4MCA2MjcuMDU2djEwNC41OTJjMCAxNy42OTYgMTQuMzIgMzIgMzIgMzJzMzItMTQuMzA0IDMyLTMydi0xMDQuNTkybDEwNi44NDggMTg1LjAyNC01NC44MTYgOTQuODhhMzEuOTUyIDMxLjk1MiAwIDAgMCAxMS43MTIgNDMuNjhjMTUuMzEyIDguODE2IDM0Ljg4IDMuNjMyIDQzLjY4LTExLjY4bDM2LjM1Mi02Mi45MTIgMzYuNTI4IDYzLjI4YTMxLjk1MiAzMS45NTIgMCAwIDAgNDMuNjggMTEuNzQ0IDMyLjAxNiAzMi4wMTYgMCAwIDAgMTEuNzEyLTQzLjc0NGwtMzYuNTI4LTYzLjI4IDcyLjU2IDAuMDMyYTMyIDMyIDAgMCAwIDAuMDMyLTY0aC0xMDkuNTM2bC0xMDYuNzUyLTE4NC45NDQgOTAuNDY0IDUyLjI1NmEzMiAzMiAwIDAgMCA0My43MjgtMTEuNzQ0IDMxLjg3MiAzMS44NzIgMCAwIDAtMTEuNzI4LTQzLjY4bC05MC41OTItNTIuMzJoMjEzLjY4bDU0Ljc1MiA5NC44OGEzMS45MzYgMzEuOTM2IDAgMCAwIDQzLjY4IDExLjY4IDMxLjk1MiAzMS45NTIgMCAwIDAgMTEuNzEyLTQzLjY4bC0zNi4yODgtNjIuODhIOTkyYzE3LjY4IDAgMzItMTQuMzA0IDMyLTMyIDAtMTcuNjk2LTE0LjMyLTMyLTMyLTMyeiBtLTQ4MCA5NmE2NCA2NCAwIDEgMSAwLTEyOCA2NCA2NCAwIDAgMSAwIDEyOHoiLz48L3N2Zz4=;rotation=15;fontSize=26;" parent="1" vertex="1">
          <mxGeometry x="-5603" y="-1477.8711730708737" width="52.09" height="52.09" as="geometry" />
        </mxCell>
        <mxCell id="wu85P2VpSHijpUglrD6K-552" value="" style="shape=image;verticalLabelPosition=bottom;labelBackgroundColor=default;verticalAlign=top;aspect=fixed;imageAspect=0;image=data:image/svg+xml,PHN2ZyB4bWxuczp4bGluaz0iaHR0cDovL3d3dy53My5vcmcvMTk5OS94bGluayIgeG1sbnM9Imh0dHA6Ly93d3cudzMub3JnLzIwMDAvc3ZnIiBoZWlnaHQ9IjIwMCIgd2lkdGg9IjIwMC4xOTUzMTI1IiBkYXRhLXNwbS1hbmNob3ItaWQ9ImEzMTN4LnNlYXJjaF9pbmRleC4wLmk5LjRlMTIzYTgxYmZ5U09YIiB2ZXJzaW9uPSIxLjEiIHZpZXdCb3g9IjAgMCAxMDI1IDEwMjQiIGNsYXNzPSJpY29uIj48cGF0aCBjbGFzcz0ic2VsZWN0ZWQiIGRhdGEtc3BtLWFuY2hvci1pZD0iYTMxM3guc2VhcmNoX2luZGV4LjAuaTYuNGUxMjNhODFiZnlTT1giIGZpbGw9IiNmZmZmZmYiIGQ9Ik0xMDEwLjczNDgyIDQwMS44ODVjNTkuOTk0IDI2Ni4xMzQtMTA4LjM0IDUzMC43OTItMzc1Ljk4OCA1OTEuMTI4QzM2Ny4wOTM4MiAxMDUzLjM1MiAxMDEuNDg3ODIgODg2LjUxOCA0MS40OTE4MiA2MjAuMzgxLTE4LjUwMjE4IDM1NC4yNDcgMTU3LjYzNTgyIDg3LjgzIDQxNy40ODI4MiAyOS4yNTJjMjY3LjY0OS02MC4zMzcgNTMzLjI1NiAxMDYuNDk4IDU5My4yNTIgMzcyLjYzM3oiLz48cGF0aCBjbGFzcz0ic2VsZWN0ZWQiIGRhdGEtc3BtLWFuY2hvci1pZD0iYTMxM3guc2VhcmNoX2luZGV4LjAuaTguNGUxMjNhODFiZnlTT1giIGZpbGw9IiNmZmZmZmYiIGQ9Ik0xMDEwLjczNDgyIDQwMS44ODVjNy4xNjYgMzEuNjA4IDExLjI1NiA2My45MTIgMTIuMjQ0IDk2LjMyMiAwLjQ1NSAxNi4yMDcgMC4xOTkgMzIuNDM5LTAuODk2IDQ4LjYyOGE1MTIuMjczIDUxMi4yNzMgMCAwIDEtNS42MDQgNDguMzVjLTEwLjU3NCA2NC4xLTMzLjcxMSAxMjYuMjEzLTY3LjcyNyAxODIuMDIzLTMzLjk4NCA1NS44MTYtNzguODEzIDEwNS4zODMtMTMxLjc2NiAxNDQuODI0LTI2LjQ4MiAxOS42ODktNTQuODk2IDM2Ljk3NS04NC44NTkgNTEuMjcxYTUxNy41NTQgNTE3LjU1NCAwIDAgMS05My42NzQgMzQuMTU0Yy0zMi4zMDMgOC4zNjMtNjUuNTI5IDEzLjY4NC05OS4wNyAxNS42NjQtMzMuNTM4IDEuOTQ5LTY3LjM4NCAwLjY3LTEwMC44NDUtNC4wNTctMzMuNDQ5LTQuNzUyLTY2LjU1Mi0xMi43MTktOTguNTY4LTI0LjAzNWE1MDUuMDU0IDUwNS4wNTQgMCAwIDEtNDcuMTYzLTE5LjMxNiA1MDUuNTE4IDUwNS41MTggMCAwIDEtNDUuMS0yMy45NjNjLTU4LjU2OC0zNC45MTYtMTEwLjI5Mi04MS44NjctMTUwLjY4OC0xMzcuNC0yMC4yMjctMjcuNzM0LTM3LjU5Ny01Ny42MDItNTEuNzkxLTg4LjkxMmE1MTUuOTgxIDUxNS45ODEgMCAwIDEtMTguODY3LTQ3Ljk2OSA1MjUuODM2IDUyNS44MzYgMCAwIDEtMTMuOTIyLTQ5LjYwNUM0LjgyNTgyIDU5NC4zMDkgMC42MDk4MiA1NTkuOTMgMC4wNzk4MiA1MjUuNTA2Yy0wLjMwNS0xNy4yMDkgMC4zMjktMzQuNDI5IDEuODQtNTEuNTU4YTQ5MS45NyA0OTEuOTcgMCAwIDEgNy4xNC01MS4wMjljMTIuOTY4LTY3LjQ3MSAzOS44MTktMTMxLjg2NyA3Ny42NTEtMTg4LjUwOGE1MjQuMjQ4IDUyNC4yNDggMCAwIDEgNjQuNDY5LTc4LjgyYzIzLjkwOC0yNC4wNzYgNTAuMjAxLTQ1LjY3NiA3OC4yMTYtNjQuNTYzIDI4LjAxNS0xOC44OTkgNTcuOTE2LTM0Ljg1OCA4OC45NzktNDcuNzQ2YTQ5Ny4xNjkgNDk3LjE2OSAwIDAgMSA5Ni4yNjEtMjguODI5YzY1LjQ5OC0xMi42MzIgMTMzLjIxOC0xMi40IDE5Ny45MzcgMC42MiA2NC43NjYgMTIuOTE3IDEyNi41MjMgMzguNDkyIDE4MS4xNjggNzQuMzQyIDU0LjY2OCAzNS44MzUgMTAyLjIxMSA4Mi4wMjcgMTM5LjI1NiAxMzUuMzk1YTUxMi42MTYgNTEyLjYxNiAwIDAgMSAyNS44MDMgNDEuMjc0YzcuOTM2IDE0LjE1MiAxNS4xMjkgMjguNzA4IDIxLjY3IDQzLjU0MiA2LjUzMyAxNC44NDEgMTIuMjc5IDMwLjAxOCAxNy4zNSA0NS40MWE0OTkuMDQ4IDQ5OS4wNDggMCAwIDEgMTIuOTE1IDQ2Ljg0OXogbTAgMGE0OTguMjUyIDQ5OC4yNTIgMCAwIDAtMTMuMDU1LTQ2LjgwNGMtNS4xMDktMTUuMzc2LTExLjA1OS0zMC40NjgtMTcuNjk3LTQ1LjIzOS02LjYyOS0xNC43NzctMTQuMDg0LTI5LjE3OC0yMi4xOTctNDMuMTgxLTguMTA1LTE0LjAxMS0xNi45NTktMjcuNTc5LTI2LjQ2Ny00MC42Ni0zNy45OS01Mi4zNzItODYuNzE5LTk2LjY4OC0xNDEuOTI4LTEyOS42NDdhNDc2LjQyNSA0NzYuNDI1IDAgMCAwLTQyLjUxNi0yMi42MTMgNDc2LjQxIDQ3Ni40MSAwIDAgMC00NC40NTctMTguMjIzYy0zMC4xNzItMTAuNjg4LTYxLjM3My0xOC4xNzYtOTIuODgzLTIyLjY1Mi0zMS41Mi00LjQ2LTYzLjM5Ni01LjY0NS05NC45ODItMy44MDUtMzEuNjA3IDEuODgxLTYyLjg1NiA2Ljg5MS05My4zODMgMTQuODA1LTMwLjM0MyA3Ljg2OC01OS44NzUgMTguODU0LTg3LjkwMiAzMi41Ni0yOC4wNjQgMTMuNjc1LTU0LjYxMSAzMC4yMTEtNzkuMzU4IDQ4Ljk2LTQ5LjQ2NCAzNy41OC05MS4zNjYgODQuNDg5LTEyMy4zNjQgMTM3LjA0MS0zMi4wMTcgNTIuNTUtNTQuMDg3IDExMC44MjgtNjQuMzc3IDE3MC45MjZhNDc5LjE0MyA0NzkuMTQzIDAgMCAwLTUuNTIzIDQ1LjMyOCA0NzIuOTkgNDcyLjk5IDAgMCAwLTEuMDU5IDQ1LjU4M2MwLjgwOSAzMC4zODMgNC41ODIgNjAuNjY0IDExLjM0NCA5MC4zMTFhNDY2LjQ5NSA0NjYuNDk1IDAgMCAwIDEyLjIwNyA0NC4wMDRjNC43NTYgMTQuNDU5IDEwLjE5MiAyOC42OTMgMTYuMzQgNDIuNjE3IDEyLjI0NCAyNy44NzEgMjcuMjM1IDU0LjUzNyA0NC42NDQgNzkuNTc2IDM0LjgyMyA1MC4wNzQgNzkuNTIxIDkzLjQ3MyAxMzAuOTUyIDEyNy4xNTIgNTEuNDA1IDMzLjY5OSAxMDkuNTA4IDU3Ljc1NCAxNzAuNDMxIDY5Ljg5MyA2MC44OTYgMTIuMjM4IDEyNC41NDIgMTIuNDg0IDE4Ni4zNzEgMC41NjMgMzAuOTEtNS45NDMgNjEuMzQ2LTE0Ljg0IDkwLjY4OC0yNi43MTcgMjkuMzI0LTExLjkwNCA1Ny42MTktMjYuNjQ4IDg0LjE3LTQ0LjIyNyAyNi41NDctMTcuNTY4IDUxLjUxLTM3LjczNiA3NC4xNzgtNjAuMzQ0YTQ4MS4zNjggNDgxLjM2OCAwIDAgMCA2MS4wMjUtNzQuMjI5YzM1LjcxOS01My40NzUgNjAuNzA3LTExNC40MiA3Mi41NDMtMTc4LjAyOWE0NjUuOTg3IDQ2NS45ODcgMCAwIDAgNi40NTUtNDguMDg0YzEuMzIyLTE2LjEzMSAxLjg3My0zMi4zMzYgMS41Mi00OC41My0wLjM0Mi0xNi4xOS0xLjQ0MS0zMi4zNzUtMy40MjgtNDguNDU2YTQ5OC44ODIgNDk4Ljg4MiAwIDAgMC04LjI5Mi00Ny44Nzl6Ii8+PHBhdGggZmlsbD0iI0FCN0M2NCIgZD0iTTY3NS4wNjA4MiAxMzguMDUxYzAuMDQ3IDAgMC4wOSAwLjAwMyAwLjEzMyAwLjAwOSA2Ljc2IDAuOSA4LjI0IDM2LjI5LTExLjI3IDEwMS4wNiA5LjQwOCAzLjI1IDI0LjMxOCAxOS41NTEgMjcuMjcgMjUuNDQgMy4zMyA2LjY3IDYgMzMuNSA5IDM1LjVzMjggMjggMjggNDEtNyAzOSAwIDQ3IDIyIDIzIDIxLjUgNDMgNSA1MyA0IDU1LjUtMTkgMzQtMTkuNSA0MCAxNy4yNCAxNC41IDE5LjYxOSAyNy41YzIuMzgxIDEzIDAgMjUgMCAyNXM5LjM4MSAxMi41IDkuMzgxIDMwLjUtNi41IDEzLTQgMjYgMyA4MCA0IDkyIDAgMiAxMSAyMCAxMSAyNyA5IDMyYy0xLjc2MiA0LjQwNC0xMC4xMjEgMjAuNDQ3LTMxLjU2NiAyMC40NDctMi45IDAtNi4wMzktMC4yOTMtOS40MzQtMC45NDctOC42NTItMS42Ny0xNS4wOTQtMi4zNzEtMjAuMTc2LTIuMzczLTExLjY1NiAwLTE2LjE2NCAzLjY5My0yMy44MjQgNy44NzMtMS40OTQgMC44MTQtMy41NTMgMS4xNjgtNiAxLjE2OC0xNS41NjYgMC00Ni45MDgtMTQuMzA1LTQ5LjUtMTUuMTY4LTEuMDE4LTAuMzQtNS4xNTgtMC45MDgtMTAuNjM5LTAuOTA4LTEwLjY4OSAwLTI2LjQ4NCAyLjE2Mi0zNC4xOTEgMTIuNDA4LTEwLjQ1NSAxMy44ODUtMzEuMjA1IDI0Ljk2MS00NS40OCAyNC45NjEtMS42NiAwLTMuMjMtMC4xNDgtNC42ODktMC40NjEtMTMuMzkzLTIuODY5LTUuMjg1LTM4LjIyMS0yNS45OTgtMzguMjI1LTAuOTQxIDAtMS45MzggMC4wNzItMy4wMDIgMC4yMjUtMjQuNSAzLjUtMjEuNSAxNy0zNy41IDI2LTEyLjEwOCA2LjgxMS0yMS4zNTQgMTAuNzU4LTMxLjg1NCAxMC43NTgtMy4zNzQgMC02Ljg3Ny0wLjQwNi0xMC42NDYtMS4yNTgtMTUuNS0zLjUtNC0yNC41LTI2LTM3LTMuODg2LTIuMjA5LTcuNjAzLTMuMTUyLTExLjE0OC0zLjE1Mi0xNi41MjYtMC4wMDItMjkuMzgzIDIwLjUwNi0zOC44NTIgMjkuMTUyLTMuMTQ1IDIuODcxLTcuMzcxIDQuMDU1LTExLjk3MyA0LjA1NS0xMi4yMjkgMC0yNy4xMjUtOC4zNDgtMzEuNTI3LTE1LjU1NSAwIDAtMTctMjMtMTgtNTFzMTgtNDUgMTgtNDUtMTUuNTgtNC41LTE4LjA0LTExLTQuOTYtMTcuNS0yLjk2LTIzIDcuMjctNyAxMC4xNC05YzIuODYtMiAwLTE3IDAtMTdzLTUuODctMjkuNSAwLTQyLjVjNS44Ni0xMyAxNy4zNi0xNyAxNy44Ni0yMy41cy05LTI0LTctMjkgMTAtMTAuNSAxMS41LTE2LjUtMTEtMjQtMTEtMjcuNS0xLTIyLjUgOS0yOSAxNC0xMi41IDE0LTEyLjUtMTEuNS0xMi01LjUtMjguNSAyMC0zMC41IDIzLjUtMzYgMTItMTAuMjUgMTEuNS0xNWMtMC4zMy0zLjE0LTEzLjEyLTE0LjgtMjEuMzEtMjkuNDItNC4yLTcuNS03LjItMTUuNzcxLTYuNjktMjQuMDggMS41LTI0LjUgMTUtNjIuODMgMzEtODEuNXM3MS00MCA3Ny41LTQxLjVjMC42NDQtMC4xNDggMS4zNzEtMC4yMTUgMi4xNjItMC4yMTUgMS44NjEgMCA0LjA3NSAwLjM2MyA2LjM3OCAwLjg1NCAyLjI3LTE2LjI3IDguMTItNTIuMzE5IDE1LjQ2LTU0LjY0YTMuNTE4IDMuNTE4IDAgMCAxIDEuMDU1LTAuMTU3YzcuNjA0IDAgMjEuNTA2IDIyLjE1OCAyNy43NTUgNDEuOTA3IDMuMjkxLTEuOTggNS42NzEtMy44MiA2LjE5MS01LjI1IDAuNzczLTIuMTI4IDUuODY1LTIuODU5IDEyLjA4Ni0yLjg1OSA5Ljg1NSAwIDIyLjU1MSAxLjgzNiAyNS40MTQgMi44NTkgNC4zMTEgMS41NDEgMzMuNjE3IDE4LjcwNSAzOS4xNDMgMTguNzA1IDAuNDYxIDAgMC43NTQtMC4xMTggMC44NTctMC4zNzUgMC40MTgtMS4wNDYgMi44MDktMS40MzUgNS45NzUtMS40MzUgNi45MTYgMCAxNy41MzEgMS44NTUgMTkuMzU1IDIuNzc0IDAuMzY5IDAuMTggMS4zMyAwLjg0IDIuNzUgMS44NCAxNi4xODgtMjMuODYgNTEuNjI5LTc1LjAxNSA1Ny43ODUtNzUuMDE3bTAtMTEuOTk5aC0wLjAwMmMtNi40ODQgMC4wMDEtMTEuMzAxIDQuMjI2LTE4LjQ0OSAxMi41NDUtNC4yNjIgNC45NjEtOS43NTggMTEuOTg3LTE2LjMzMiAyMC44ODUtOS4zNjMgMTIuNjczLTE5LjQzOCAyNy4xMTMtMjcuNTA2IDM4Ljg4Ny0xLjE4Ni0wLjIzNS0yLjU2OC0wLjQ4LTQuMTg0LTAuNzMtMi44NjEtMC40NDEtOC40MDgtMS4xODMtMTMuNDItMS4xODMtMS41OTIgMC00LjczIDAtNy45NzEgMC45NjctNS41NjMtMi4zODctMTYuMjc1LTguMTEyLTIxLjM0Mi0xMC44MjEtNy4xNjYtMy44MjktMTAuNDI4LTUuNTU2LTEyLjYyMy02LjM0LTUuMDIzLTEuNzk3LTE5LjYxMy0zLjU2MS0yOS40NTMtMy41NjEtMi45NzUgMC03Ljk4OCAwLTEyLjcwMyAxLjQzNi0yLjYzOS01LjcyOS01LjY3MS0xMS4yODgtOC44ODMtMTYuMjI3LTguNDMyLTEyLjk2OC0xNi4xOTktMTkuMDA3LTI0LjQ0NS0xOS4wMDctMS41OTIgMC0zLjE2IDAuMjM5LTQuNjU4IDAuNzExLTguMjUyIDIuNjA4LTEzLjA0OCAxMC45NTItMTcuNzEgMzAuNzktMS43NTUgNy40NjctMy4yMzMgMTUuNTU5LTQuMzk3IDIyLjc2My0wLjMzNiAwLjA2LTAuNjY4IDAuMTI3LTAuOTk2IDAuMjAzLTYuNDk2IDEuNDk5LTY1LjAxOCAyMy4zNDQtODMuOTA0IDQ1LjM4Mi04LjQyOCA5LjgzNC0xNi42MjMgMjQuODE4LTIzLjA3NSA0Mi4xOTUtNi4wNTEgMTYuMjkzLTkuOTgzIDMzLjE5Ny0xMC43OTEgNDYuMzgtMC41ODkgOS41OTEgMi4xNyAxOS45MTMgOC4xOTggMzAuNjc3IDUuMjE1IDkuMzEgMTEuNzkxIDE3LjE3NiAxNi41OTIgMjIuOTJsMC44MDIgMC45NTljLTIuNDIxIDIuMzExLTUuMTM0IDQuOTI5LTcuMjM4IDguMjM1LTAuNTU5IDAuODc4LTIuMzA2IDMuMDMzLTMuODQ3IDQuOTM2LTYuMjU1IDcuNzItMTUuNzA5IDE5LjM4Ni0yMC44MDcgMzMuNDA2LTQuNDIyIDEyLjE2MS0yLjIyNSAyMy4xNzEgMS41NTggMzEuMTM2YTU2LjM2NiA1Ni4zNjYgMCAwIDEtNS4zMiAzLjkwM2MtMTQuODkgOS42NzktMTQuNTczIDMxLjI1MS0xNC40NjkgMzguMzQgMC4wMDUgMC4yOTIgMC4wMDkgMC41MzQgMC4wMDkgMC43MjIgMCA0LjMzOSAxLjk0MyA4IDUuNDcgMTQuNjQ3IDEuNDM1IDIuNzAzIDQuMTYxIDcuODQyIDUuMjUzIDEwLjgwMy0wLjgzNiAxLjExOS0yLjE1NiAyLjU5Ni0zLjA0OSAzLjU5Ni0yLjY0NSAyLjk1OS01LjY0MyA2LjMxNC03LjMxNSAxMC40OTgtMi43NTkgNi44OTYgMC4wMTggMTQuNjg2IDMuMjMyIDIzLjcwNyAwLjc4IDIuMTg5IDEuOTU0IDUuNDg0IDIuNTU4IDcuNjc2LTAuNjU4IDAuNjU0LTEuNDc5IDEuNDItMi4xNTYgMi4wNTMtNC4wNjYgMy43OTctMTAuMjExIDkuNTM1LTE0LjI5MiAxOC41OS03LjA2NyAxNS42NDgtMS45NzIgNDQuMDE4LTAuODQyIDQ5LjcxNSAwLjQzOCAyLjMyNCAwLjc4NiA1LjAxIDAuOTU0IDcuMTMxLTMuNTkzIDIuMjEzLTguMTg2IDUuODcxLTEwLjU5IDEyLjQ4NC00LjEyOCAxMS4zNTIgMS43ODcgMjguMTA1IDMuMDE0IDMxLjM1IDEuNjU2IDQuMzc1IDUuMDUgOC4xNTggMTAuMzA4IDExLjQ2MS01LjgyMSA5LjM3My0xMS42NiAyMy4yNTgtMTEuMDM2IDQwLjcxOSAxLjA1NSAyOS41MzUgMTcuNDc2IDUzLjY4OCAyMC4wMzQgNTcuMjc5IDcuMjY5IDExLjM0NiAyNi4xMDEgMjAuODQ4IDQxLjQ4NSAyMC44NDggNy45NzMgMCAxNC45MS0yLjQ4OCAyMC4wNjMtNy4xOTMgMi43OTMtMi41NDkgNS41NjMtNS42NiA4LjQ5Ni04Ljk1MyA2LjQxMi03LjIwMSAxNS4xOTQtMTcuMDYzIDIyLjI2NC0xNy4wNjEgMS42MzYgMCAzLjM0MyAwLjUxOCA1LjIyMiAxLjU4NiA3LjIxMSA0LjA5OCA4LjQwMiA4Ljk1NSAxMC4wNTIgMTUuNjgyIDEuNzcxIDcuMjI1IDQuNzM3IDE5LjMxNiAxOS4yMzMgMjIuNTkgNC42MjkgMS4wNDUgOC45NzcgMS41NTMgMTMuMjg5IDEuNTUzIDEzLjIxNSAwIDI0LjIzNi00LjcwNSAzNy43MzYtMTIuMjk5IDguMjUyLTQuNjQzIDEyLjY5Ni0xMC4xOTEgMTYuMjY3LTE0LjY0OCA0LjUxMy01LjYzNyA2Ljc3OS04LjQ2NSAxNy4wNDgtOS45MzJhOS41MDggOS41MDggMCAwIDEgMS4zMDMtMC4xMDRjMC40NTUgMCAwLjY5MyAwLjA0OSAwLjc3OSAwLjA3MiAxLjYwMiAxLjMyNCAzLjI1NiA4LjUyMSA0LjA1NSAxMS45OTYgMS4wMzMgNC40ODQgMi4xIDkuMTIzIDQuMDE0IDEzLjI4OSAzLjk4NiA4LjY3NiAxMC4xNiAxMS42NDEgMTQuNjM3IDEyLjYgMi4yNTYgMC40ODQgNC42ODIgMC43MyA3LjIwNSAwLjczIDE4LjMyIDAgNDIuNTEtMTMuMDY2IDU1LjA2Ni0yOS43NDYgMy41OTQtNC43NzUgMTIuNzkxLTcuNjI1IDI0LjYwNC03LjYyNSAzLjU5IDAgNi4xMzUgMC4yNzkgNy4xNjIgMC40MzIgMC41MTYgMC4yMTEgMS4yNzMgMC41MjcgMS45NjkgMC44MTggMTYuNTA2IDYuOTAyIDM3LjIyMSAxNC44MjYgNTEuMDEgMTQuODI2IDQuNjU0IDAgOC40OTYtMC44NjEgMTEuNzQ2LTIuNjMzYTE5Mi42MSAxOTIuNjEgMCAwIDAgMy4zNTQtMS44ODNjNS40NDctMy4xMDcgNy45MzQtNC41MjUgMTQuNzI1LTQuNTI1IDQuNTM1IDAgMTAuMzkxIDAuNzA1IDE3LjkwMiAyLjE1NiA0LjAwOCAwLjc3MyA3Ljk0NyAxLjE2NCAxMS43MDcgMS4xNjQgMjMuMjU4IDAgMzcuNTQzLTE1LjA3OCA0Mi43MDctMjcuOTkgNC4zNzMtMTAuOTMyIDEuMjI3LTI0LjUwNC05LjkwMi00Mi43MTUtNC4yODMtNy4wMS03LjE3OC0xMC41MzctOS4xLTEyLjU3NmwtMC4xMjktMS41NTEtMC4wNTEtMC42MTFjLTAuMzM0LTMuOTktMC42NDMtMTUuOTg2LTAuOTY5LTI4LjY4Ni0wLjgwNy0zMS4zMzgtMS41NTUtNTUuOTktMy4yMDctNjQuNTg0LTAuMzAzLTEuNTc4LTAuMzUyLTIuNDAyLTAuMzU1LTIuNzQ0IDAuMS0wLjIxMSAwLjI0OC0wLjUxMiAwLjM2Ny0wLjc0OCAyLjEyNy00LjI1NiA0LjIwNS05LjMyNCA0LjIwNS0yMC4yNDIgMC0xNS4yMDEtNS4zNDQtMjcuMDMxLTguODY5LTMzLjE3OCAwLjYxMy01LjQ0NyAxLjEtMTQuNjA5LTAuNzA3LTI0LjQ4NC0yLjA0NS0xMS4xNjYtMTAuMjA5LTE4LjkxNi0xNi4xNy0yNC41NzQtMC42ODItMC42NDYtMS40NzUtMS40LTIuMTkzLTIuMTA3IDMuMDY0LTYuOTk2IDEwLjUzNS0yMC44MjIgMTMuMjk3LTI1LjkzNSAyLjk4NC01LjUyMSAzLjc4NS03LjAxOCA0LjI4My04LjI2NSAxLjUyMy0zLjgwNyAxLjE5NS02Ljc3Ny0wLjM4MS0yMS4wNTQtMS4yODMtMTEuNjI5LTMuMDQxLTI3LjU1NS0yLjc2NC0zOC42MDQgMC41NzgtMjMuMTM1LTE0LjU2OC00MC4xMDQtMjIuNzA3LTQ5LjIyLTAuNDkyLTAuNTUxLTAuOTYxLTEuMDc2LTEuNC0xLjU3NC0xLjM1NS0zLjc4NiAwLjI5NS0xNi42MzkgMS4wOTgtMjIuODg5IDAuNzc2LTYuMDU4IDEuNTEtMTEuNzc5IDEuNTEtMTYuNjE5IDAtNS4zNzUtMS42MDQtMTQuNTQ4LTE1LjQ2NS0zMi4wNy00LjQzNC01LjYwNC0xMC42MzktMTIuNTM3LTE0Ljg5MS0xNi40NTUtMC43NTItMi43ODctMS43NjYtOC4yMTctMi40NzktMTIuMDI5LTEuOTM2LTEwLjM2NS0zLjI2Ni0xNi45NzEtNS40My0yMS4zMDYtMi43NjQtNS41MTYtMTMuMDE2LTE4LjAxMy0yMy44MzItMjUuODAxIDYuNTI5LTIzLjA2MiAxMC45MDItNDQuMjExIDEyLjcyNS02MS42MiAyLjk4OC0yOC41OC0xLjkyMi0zNi4xOTEtMy41MzUtMzguNjkzLTIuNTEyLTMuODk1LTYuMjQ0LTYuMzUyLTEwLjUxLTYuOTJhMTIuODI0IDEyLjgyNCAwIDAgMC0xLjcxNi0wLjExNHoiLz48cGF0aCBjbGFzcz0ic2VsZWN0ZWQiIGRhdGEtc3BtLWFuY2hvci1pZD0iYTMxM3guc2VhcmNoX2luZGV4LjAuaTUuNGUxMjNhODFiZnlTT1giIGZpbGw9IiNmZmZmZmYiIGQ9Ik03ODMuMTkzODIgNzc5LjU2MWMtMiA1LTEyLjUgMjUtNDEgMTkuNXMtMzMtMC41LTQ0IDUuNS01Mi41LTEzLTU1LjUtMTQtMzMuMTctNC00NC44MyAxMS41Yy0xMS42NyAxNS41LTM2LjE3IDI3LjUtNTAuMTcgMjQuNXMtNC41LTQxLjUtMjktMzgtMjEuNSAxNy0zNy41IDI2LTI3IDEzLTQyLjUgOS41LTQtMjQuNS0yNi0zNy0zOC41IDE1LjUtNTAgMjYtMzcuNDQtMS41OC00My41LTExLjVjMCAwLTE3LTIzLTE4LTUxczE4LTQ1IDE4LTQ1LTE1LjU4LTQuNS0xOC4wNC0xMS00Ljk2LTE3LjUtMi45Ni0yMyA3LjI3LTcgMTAuMTQtOWMyLjg2LTIgMC0xNyAwLTE3cy01Ljg3LTI5LjUgMC00Mi41YzUuODYtMTMgMTcuMzYtMTcgMTcuODYtMjMuNXMtOS0yNC03LTI5IDEwLTEwLjUgMTEuNS0xNi41LTExLTI0LTExLTI3LjUtMS0yMi41IDktMjkgMTQtMTIuNSAxNC0xMi41IDEuNzUgNi41IDIgMTJjMC4wNSAxLjI1IDEuNjggMy44MyA0LjM2IDcuMTkgMCA3LjIzOSAwLjUyOSAxNy4wNiAwLjE0IDE5LjgxLTAuNSAzLjUgOCAxMCAxMi41IDE0LjA4MXM3LjUgMTAuNDIgOCAxMy40MiAxOCAxMSAyMiAxMyAyMiAxNi41IDM2IDI0IDQ4LTkuNSA0OC05LjUgMzAtNi41IDMwLjUtMTIgMjUtNiAzMi05IDEyLTEwLjUgMTIuNS0xNi41IDEyLjUtMTEuNSAxNC0xMC40M2MxLjUgMS4wODEgMTkuNS0zLjU3IDIwLTkuNTdzMTMtMTcgMTMuMTctMTdjMC4xNiAwIDYuODMtMTMgNi44My0xNi41czQuNS0xNyA4LjUtMjMuNSA5LjUtMTAgOC0xMC41LTEtMTgtMS0yMy0wLjUtMTItMi41LTE0IDctMTcgNy41LTIxLjUtMy05LjUtOC41LTEwLjg5Yy01LjUtMS40LTYtOC4xMS03LjUtMTEuNjFzLTEuNS0xNC0zLTE2LjUtMjQtMi41LTMyIDIuODFjLTggNS4zMTEtMTYtOC4zMS0xNy0xMS44MXMtMTYuNS05LjUtMTkuNS03LTE5IDIuNS0xOSAyLjUtMTktNi41LTI1LTQuNS0xMSA1LjUtMTIuNSA0LjUtMTEgMC41LTE1LjUgNC0xNSA1LjUtMTcuNSA1LjUtMjMtMS0yNyAwLTEzLjY3IDcuNjctMjAgNi05LjY3IDQuMzMtMTEgNi0yMC4zMyA3LjY3LTI1LjY3IDYuNjdjLTIuODktMC41NC04LjgyIDIuMjUtMTMuNjQgNC45MS00LjItNy41LTcuMi0xNS43NzEtNi42OS0yNC4wOCAxLjUtMjQuNSAxNS02Mi44MyAzMS04MS41czcxLTQwIDc3LjUtNDEuNWMyLjE2LTAuNSA1LjI2LTAuMDYgOC41NCAwLjY0IDYuNiAxLjQxIDEzLjk2IDMuODYgMTUuOTYgMS44NiAyLjIyLTIuMjIgMTguOTUtOS4wOSAyOC4zMS0xNC43NSAzLjI5MS0xLjk4IDUuNjcxLTMuODIgNi4xOTEtNS4yNSAyLTUuNSAzMi44My0xLjY3IDM3LjUgMHMzOC42NyAyMS42NyA0MCAxOC4zM2MxLjMzLTMuMzMgMjIuNjcgMCAyNS4zMyAxLjM0IDAuMzY5IDAuMTggMS4zMyAwLjg0IDIuNzUgMS44NCA4LjkzIDYuMjggMzUuNzc5IDI2LjA3IDQzLjI1IDI1LjQ5IDEuMDEtMC4wOCAyLjE1IDAuMTIgMy4zODkgMC41NmgwLjAxMmM5LjQwOCAzLjI1IDI0LjMxOCAxOS41NTEgMjcuMjcgMjUuNDQgMy4zMyA2LjY3IDYgMzMuNSA5IDM1LjVzMjggMjggMjggNDEtNyAzOSAwIDQ3IDIyIDIzIDIxLjUgNDMgNSA1MyA0IDU1LjUtMTkgMzQtMTkuNSA0MCAxNy4yNCAxNC41IDE5LjYxOSAyNy41YzIuMzgxIDEzIDAgMjUgMCAyNXM5LjM4MSAxMi41IDkuMzgxIDMwLjUtNi41IDEzLTQgMjYgMyA4MCA0IDkyIDAgMiAxMSAyMFM3ODUuMTkzODIgNzc0LjU2MSA3ODMuMTkzODIgNzc5LjU2MXoiLz48cGF0aCBmaWxsPSIjRThEN0MwIiBkPSJNNjI1LjE5MzgyIDM3NS41NmMtMC41IDQuNS05LjUgMTkuNS03LjUgMjEuNXMyLjUgOSAyLjUgMTQtMC41IDIyLjUgMSAyMy00IDQtOCAxMC41LTguNSAyMC04LjUgMjMuNS02LjY3IDE2LjUtNi44MyAxNi41Yy0wLjE3IDAtMTIuNjcgMTEtMTMuMTcgMTdzLTE4LjUgMTAuNjUxLTIwIDkuNTdjLTEuNS0xLjA3LTEzLjUgNC40My0xNCAxMC40M3MtNS41IDEzLjUtMTIuNSAxNi41LTMxLjUgMy41LTMyIDktMzAuNSAxMi0zMC41IDEyLTM0IDE3LTQ4IDkuNS0zMi0yMi0zNi0yNC0yMS41LTEwLTIyLTEzLTMuNS05LjM0LTgtMTMuNDItMTMtMTAuNTgxLTEyLjUtMTQuMDgxYzAuMzktMi43NS0wLjE0LTEyLjU3LTAuMTQtMTkuODEgMy41NSA0LjQzOSA4LjkzIDEwLjIzOSAxNC45NDkgMTYuMTMgMi41NjEgMi41MSA1LjIzIDUuMDI5IDcuOTMxIDcuNDc5IDcuMTg5IDYuNTA5IDE0LjUyOSAxMi40NTEgMjAuMjYgMTUuOTUxIDE2Ljc1IDEwLjI1IDY0IDExIDc2LjI1IDEwLjI1czU4LjI1LTE0Ljc1IDYwLjUtMTkuNDljMi4yNS00Ljc0MSAyMi41LTExLjc2IDI4LjUtMTQuNTFzNi43NS03LjI1IDYtMTUuNSAxMC0yMC43NSAxOC43NS0yOS4yNWM3LjM1LTcuMTQgMS4yOTktOC4yOC0xLjI3LTExLjg3LTAuNDktMC42OC0wLjg2MS0xLjQ2LTAuOTgtMi4zOC0wLjc1LTUuNzUgMS4yNS0xOS4yNSA1LjUtMjVzNC43NS0xNCAwLTEyLjUtMTIuNS0xMC0xMi43NS0xMy43NWMtMC4xMjEtMS44Ny0yLjgxMS0zLjc1LTYtNS4wMy0zLjE4LTEuMjc5LTYuODcxLTEuOTctOS0xLjQ3LTQuMjUgMS0xMC4yNS0xMi4yNS0xMi43NS0xNHMtMjQgNS4yNS0zMS41IDYuOTNjLTcuNSAxLjY4MS0xNS43NS0xMy4xOC0yMC4yNS0xMS40M3MtMjMuNzUgMTMuMjUtMzQgMTUuMzljLTEwLjI1IDIuMTUtMjQtNC44OS0zNC41LTcuMTRzLTI2IDcuNzUtMzEuNSAxMi41LTIxIDAtMjEgMGMtMC4zMy0zLjE0LTEzLjEyLTE0LjgtMjEuMzEtMjkuNDIgNC44MTktMi42NiAxMC43NS01LjQ1IDEzLjY0LTQuOTEgNS4zNCAxIDI0LjM0LTUgMjUuNjctNi42N3M0LjY3LTcuNjcgMTEtNiAxNi01IDIwLTYgMjQuNSAwIDI3IDAgMTMtMiAxNy41LTUuNSAxNC01IDE1LjUtNCA2LjUtMi41IDEyLjUtNC41IDI1IDQuNSAyNSA0LjUgMTYgMCAxOS0yLjUgMTguNSAzLjUgMTkuNSA3IDkgMTcuMTIgMTcgMTEuODFjOC01LjMxIDMwLjUtNS4zMSAzMi0yLjgxczEuNSAxMyAzIDE2LjUgMiAxMC4yMSA3LjUgMTEuNjFjNS41IDEuMzkxIDkgNi4zOTEgOC41IDEwLjg5MXoiLz48cGF0aCBmaWxsPSIjQUI3QzY0IiBkPSJNNDkzLjk4MDgyIDM2NC42NjdjNC4zNjcgMCAxMS41MSAxMS43MDYgMTguMjQ5IDExLjcwNiAwLjQwNiAwIDAuODEzLTAuMDQzIDEuMjE1LTAuMTMzIDYuNjc4LTEuNDk1IDI0LjQ1MS03LjIwOCAzMC4wMzUtNy4yMDggMC42ODggMCAxLjE4OSAwLjA4NyAxLjQ2NSAwLjI3OCAyLjQwOCAxLjY4NyA4LjA2OCAxNC4wNTQgMTIuMjgxIDE0LjA1NCAwLjE1OCAwIDAuMzE0LTAuMDE4IDAuNDY5LTAuMDU0YTcuMjM5IDcuMjM5IDAgMCAxIDEuNjMxLTAuMTY0YzIuMTE1IDAgNC44OTYgMC42MzkgNy4zNjkgMS42MzQgMy4xODkgMS4yOCA1Ljg3OSAzLjE2IDYgNS4wMyAwLjIzNCAzLjUyMiA3LjA4OCAxMy44ODQgMTEuODU1IDEzLjg4NCAwLjMwNyAwIDAuNjA1LTAuMDQzIDAuODk1LTAuMTM0YTMuNTU3IDMuNTU3IDAgMCAxIDEuMDUzLTAuMThjMy41OTIgMCAyLjg1NCA3LjM5Ni0xLjA1MyAxMi42OC00LjI1IDUuNzUtNi4yNSAxOS4yNS01LjUgMjUgMC4xMTkgMC45MiAwLjQ5IDEuNyAwLjk4IDIuMzggMi41NjggMy41OSA4LjYxOSA0LjczIDEuMjcgMTEuODctOC43NSA4LjUtMTkuNSAyMS0xOC43NSAyOS4yNXMwIDEyLjc1LTYgMTUuNS0yNi4yNSA5Ljc3LTI4LjUgMTQuNTEtNDguMjUgMTguNzQtNjAuNSAxOS40OWMtMi4xMDIgMC4xMjktNS4yMzMgMC4yMTMtOS4wNjMgMC4yMTMtMTguNSAwLTUzLjMxMS0xLjk3MS02Ny4xODgtMTAuNDYzLTUuNzMtMy41LTEzLjA3LTkuNDQxLTIwLjI2LTE1Ljk1MS0yLjctMi40NS01LjM3LTQuOTctNy45MzEtNy40NzktNi4wMi01Ljg5MS0xMS4zOTktMTEuNjktMTQuOTQ5LTE2LjEzLTIuNjgxLTMuMzYtNC4zMTEtNS45NC00LjM2LTcuMTktMC4yNS01LjUtMi0xMi0yLTEycy0xMS41LTEyLTUuNS0yOC41IDIwLTMwLjUgMjMuNS0zNiAxMi0xMC4yNSAxMS41LTE1YzAgMCA2Ljg4OSAyLjExMSAxMy4xMTEgMi4xMTEgMy4xMTEgMCA2LjA1NS0wLjUyNyA3Ljg4OS0yLjExMSA0Ljk1Ny00LjI4IDE4LjAzNC0xMi44MjUgMjguMjU2LTEyLjgyNWExNS41IDE1LjUgMCAwIDEgMy4yNDQgMC4zMjVjOS4xMzcgMS45NTggMjAuNzM1IDcuNTQzIDMwLjM0NiA3LjU0MyAxLjQzNSAwIDIuODI0LTAuMTI0IDQuMTU0LTAuNDAzIDEwLjI1LTIuMTQgMjkuNS0xMy42NCAzNC0xNS4zOSAwLjI1LTAuMDk4IDAuNTEzLTAuMTQzIDAuNzg3LTAuMTQzbTAtMTJjLTEuNzcxIDAtMy40OTkgMC4zMjMtNS4xMzYgMC45NTktMS45MDIgMC43NC00LjI5NCAxLjk4Mi04LjcwOCA0LjI5Ny02LjI1MSAzLjI3OC0xNy44ODcgOS4zODEtMjMuMzk2IDEwLjUzLTAuNDc5IDAuMTAxLTEuMDQ4IDAuMTUtMS43MDIgMC4xNS00LjIwMyAwLTEwLjE0MS0xLjkzOS0xNS44ODMtMy44MTUtMy45MzgtMS4yODYtOC4wMS0yLjYxNy0xMS45NDgtMy40NjFhMjcuNTIgMjcuNTIgMCAwIDAtNS43NTktMC41OTJjLTEzLjQyOCAwLTI4LjIzMSA5LjI5NC0zNS4wODQgMTQuODkyLTAuMjUzIDAuMDI0LTAuNjAzIDAuMDQ1LTEuMDYxIDAuMDQ1LTMuNjc0IDAtOC41MDMtMS4yNS05LjU5Ni0xLjU4NWwtMTcuMzUtNS4zMTYgMS41ODMgMTUuMDM4Yy0wLjYyNiAwLjYzNS0xLjM4IDEuMzU0LTEuOTY2IDEuOTEzLTIuNDYzIDIuMzUtNS4yNTQgNS4wMTMtNy40MDcgOC4zOTYtMC41NTkgMC44NzgtMi4zMDYgMy4wMzMtMy44NDcgNC45MzYtNi4yNTUgNy43Mi0xNS43MDkgMTkuMzg2LTIwLjgwNyAzMy40MDYtNS45MjEgMTYuMjgyIDAuMDI2IDMwLjUwNCA1Ljc1NCAzOC4xMSAwLjQzNyAyLjAyOSAwLjkzMSA0Ljc3OCAxLjAzNSA3LjAxNCAwLjE3OSA0LjE3MSAyLjA3MSA4LjAxMyA2Ljk2OCAxNC4xNSAzLjg2IDQuODI4IDkuNTE4IDEwLjk0MSAxNS45MzcgMTcuMjIzYTI5OS45ODggMjk5Ljk4OCAwIDAgMCA4LjI2IDcuNzljNS45MjggNS4zNjcgMTQuNTU5IDEyLjcxNyAyMi4wNjkgMTcuMzA1IDE4LjUzMiAxMS4zNDIgNjAuODk4IDEyLjIyMyA3My40NDIgMTIuMjIzIDMuODkxIDAgNy4yNzgtMC4wODIgOS43OTYtMC4yMzYgOC4yMDItMC41MDIgMjQuOTg1LTUuMDQzIDM2Ljg2Ni04Ljc3OSA1LjEyNS0xLjYxMSAxMi41NDktNC4wNzQgMTguODAxLTYuNjU2IDYuNjg0LTIuNzYyIDExLjI2Ni01LjIzNCAxMy44ODMtOS4wNDkgMy4xOTMtMi4yMyAxMy4zMTEtNi4zMDUgMTcuMjUyLTcuODkxIDIuNTk4LTEuMDQ1IDQuODQtMS45NDkgNi40NjUtMi42OTQgMTQuNjI1LTYuNzAzIDEzLjU0Ny0yMC44OTkgMTIuOTc1LTI3LjIzMSAwLjMwMy0xLjcyNiAzLjU3NC04LjU4NyAxNS4xMzctMTkuODE5IDEuODExLTEuNzU5IDcuMzItNy4xMTEgNy4xNS0xNC42MzItMC4xMzctNi4wODItMy43NjItOS45NDUtNS45Mi0xMS45MzIgMC4xNzYtNC40NzEgMS43MjUtMTIuMDE0IDMuMzA5LTE0LjE2MSA0Ljc2Ni02LjQ0OSA3Ljg1LTE2LjM3OSAzLjk5NC0yNC4wMjQtMi4zNTUtNC42Ny02Ljk4Mi03LjYyLTEyLjE0OC03Ljc4LTAuOTItMS4wOTktMS45NDktMi42MTktMi40MTItMy42MzUtMC42MjUtMy45NTctMy4zMjYtMTAuMDgyLTEzLjM2NS0xNC4xMS0yLjA0My0wLjgyMi01Ljg5NS0yLjE0Mi0xMC4xNDYtMi40MzctMC44MzYtMS4xNzktMS43Ni0yLjYwNS0yLjM3My0zLjU1MS0yLjI1Ni0zLjQ4LTQuMDM3LTYuMjMtNi44MTgtOC4xNzctMi4zMi0xLjYyNC01LjEyOS0yLjQ0Ny04LjM0Ni0yLjQ0Ny01LjAyNSAwLTEyLjc1NCAyLjA1LTIzLjk3MSA1LjE3OS0yLjM5MyAwLjY2Ny00LjY5MyAxLjMwOS02LjUxMiAxLjc4My0xLjExNS0wLjg2Ny0yLjYxNS0yLjI2NC0zLjYxOS0zLjE5OS00LjA5LTMuODEzLTguNzI1LTguMTMtMTUuMzk2LTguMTN6Ii8+PHBhdGggZmlsbD0iI0Q3QUI4QyIgZD0iTTU4Mi4xOTM4MiA0NTUuMzFjLTguNzUgOC41LTE5LjUgMjEtMTguNzUgMjkuMjVzMCAxMi43NS02IDE1LjUtMjYuMjUgOS43Ny0yOC41IDE0LjUxLTQ4LjI1IDE4Ljc0LTYwLjUgMTkuNDktNTkuNSAwLTc2LjI1LTEwLjI1Yy01LjczLTMuNS0xMy4wNy05LjQ0MS0yMC4yNi0xNS45NTEgMTguNDUtMC4wMiA3MC43Ny0wLjI0IDc3Ljc2LTIuMyA4LjUtMi41IDI5LjUtOS41IDMxLjUtOC41czM1LTAuNSAzNi41LTQuNSAyNS0xMC41IDI3LjUtMTQuNSAyOS0yNS4xOCAyOS0yOC41OWMwLTEuNjIgMy4yNzktMy45OCA2LjczLTYuMDMgMi41NjkgMy41OTEgOC42MiA0LjczMSAxLjI3IDExLjg3MXoiLz48cGF0aCBmaWxsPSIjRTFCQUFDIiBkPSJNNTYwLjY5MzgyIDQwNC4wNnMyLjUgMTEuNSAyLjUgMTQtOCAxNS4xMS04IDE1LjExLTkuNSA3LjM5LTEyLjUgMTYuMy0zMCAxMC41OS0zNC41IDExLjA5LTI2LjUgMTItMjcgMTMuMDFjLTAuNSAxLjAyMS0zNyAxLjk5LTM5LjUgNC40OXMtMzAuNSAxNS41LTM3IDE2LjVjLTUuMDggMC43OC0zMC4wNiA0LjMyLTQwLjY5IDUuODItNi4wMi01Ljg5MS0xMS4zOTktMTEuNjktMTQuOTQ5LTE2LjEzLTIuNjgxLTMuMzYtNC4zMTEtNS45NC00LjM2LTcuMTktMC4yNS01LjUtMi0xMi0yLTEycy0xMS41LTEyLTUuNS0yOC41IDIwLTMwLjUgMjMuNS0zNiAxMi0xMC4yNSAxMS41LTE1YzAgMCAxNS41IDQuNzUgMjEgMHMyMS0xNC43NSAzMS41LTEyLjUgMjQuMjUgOS4yOSAzNC41IDcuMTRjMTAuMjUtMi4xNCAyOS41LTEzLjY0IDM0LTE1LjM5czEyLjc1IDEzLjExIDIwLjI1IDExLjQzYzcuNS0xLjY4IDI5LTguNjggMzEuNS02LjkzczguNSAxNSAxMi43NSAxNGMyLjEyOS0wLjUgNS44MiAwLjE5IDkgMS40Ny0zLjcwMiA2Ljk5LTYuMDAxIDE5LjI4LTYuMDAxIDE5LjI4eiIvPjxwYXRoIGZpbGw9IiNEQ0I2QTciIGQ9Ik01ODUuNDQzODIgNDE2LjA2Yy00LjI1IDUuNzUtNi4yNSAxOS4yNS01LjUgMjUgMC4xMTkgMC45MiAwLjQ5IDEuNyAwLjk4IDIuMzgtMy40NTEgMi4wNS02LjczIDQuNDEtNi43MyA2LjAzIDAgMy40MS0yNi41IDI0LjU5LTI5IDI4LjU5cy0yNiAxMC41LTI3LjUgMTQuNS0zNC41IDUuNS0zNi41IDQuNS0yMyA2LTMxLjUgOC41Yy02Ljk5IDIuMDYtNTkuMzEgMi4yOC03Ny43NiAyLjMtMi43LTIuNDUtNS4zNy00Ljk3LTcuOTMxLTcuNDc5IDEwLjYzMS0xLjUgMzUuNjEtNS4wNCA0MC42OS01LjgyIDYuNS0xIDM0LjUtMTQgMzctMTYuNXMzOS0zLjQ3IDM5LjUtNC40OWMwLjUtMS4wMSAyMi41LTEyLjUxIDI3LTEzLjAxczMxLjUtMi4xOCAzNC41LTExLjA5IDEyLjUtMTYuMyAxMi41LTE2LjMgOC0xMi42MSA4LTE1LjExLTIuNS0xNC0yLjUtMTQgMi4yOTktMTIuMjkgNi0xOS4yOGMzLjE4OSAxLjI4IDUuODc5IDMuMTYgNiA1LjAzIDAuMjUgMy43NSA4IDE1LjI1IDEyLjc1IDEzLjc1czQuMjUxIDYuNzQ5IDAuMDAxIDEyLjQ5OXoiLz48cGF0aCBmaWxsPSIjRTVCRkFCIiBkPSJNNTA1LjUwMjgyIDE5Ni44MWMtOS4zNTkgNS42Ni0yNi4wOSAxMi41My0yOC4zMSAxNC43NS0yIDItOS4zNi0wLjQ1LTE1Ljk2LTEuODYgMi4yNy0xNi4yNyA4LjEyLTUyLjMxOSAxNS40Ni01NC42NCA3LjMtMi4zIDIyLjI2IDIxLjA1IDI4LjgxIDQxLjc1eiIvPjxwYXRoIGZpbGw9IiNCRTk0N0QiIGQ9Ik01MDUuNjMxODIgMTk3LjAyNWMtMy4xNjkgMi41OS02LjY0NiA0Ljc0OS0xMC4xMzQgNi44MTMtMS43NTQgMS4wMjEtMy41MjkgMS45OTItNS4yOTQgMi45NzdsLTUuMzI2IDIuODMyYy0xLjc1OSAwLjkyNC0zLjU2NyAxLjg0NC01LjEzNCAyLjgxOC0wLjM3MSAwLjIzMS0wLjc2NiAwLjUwNS0wLjkyNiAwLjY1NmwtMC4yNzggMC4yNDktMC4wNzEgMC4wNjItMC4xODggMC4xNDFhNS41NyA1LjU3IDAgMCAxLTAuNDI0IDAuMjc0IDUuMjUgNS4yNSAwIDAgMS0xLjIzOCAwLjQ4MWMtMS41MjggMC4zNjMtMi42NzggMC4yMDktMy44MDUgMC4xMDEtMi4yMDYtMC4zMzYtNC4xODgtMC44NjEtNi4xNDEtMS40NzFsLTUuNzUtMS44MDgtMS40My0wLjQ1IDAuMjcxLTEuMjA1YzEuMDE3LTQuNTIyIDIuMDIxLTkuMDM0IDIuODE2LTEzLjU3OWE1MTMuODIyIDUxMy44MjIgMCAwIDAgMi4xODMtMTMuNjg4YzAuNjg1LTQuNTgzIDEuMzYzLTkuMTkgMi40NzMtMTMuNzU1IDAuNTU4LTIuMjgyIDEuMjE3LTQuNTUyIDIuMDUtNi44MTdhMzYuNzMgMzYuNzMgMCAwIDEgMS40MzktMy4zOTZjMC41NjUtMS4xMzMgMS4xODktMi4yNzIgMi4xNDItMy40MTYgMC40ODQtMC41NjcgMS4wNTYtMS4xNDYgMS44NzYtMS42NTQgMC40MTQtMC4yNSAwLjg4My0wLjQ3OSAxLjQ0OS0wLjYyOGwwLjIwOC0wLjA1OSAwLjQ0MS0wLjA4NGMwLjMyNy0wLjA1OCAwLjU0Mi0wLjA2MiAwLjc4OC0wLjA3NSAxLjk0Ny0wLjAzNSAzLjQwMyAwLjY0MyA0LjYzMiAxLjMxIDIuNDM4IDEuNDE3IDQuMjA0IDMuMTg4IDUuODU0IDUuMDA3IDMuMjM1IDMuNjc0IDUuNzggNy42ODUgOC4wMzUgMTEuODIxYTg1LjY1IDg1LjY1IDAgMCAxIDMuMTQyIDYuMzA1YzAuOTgyIDIuMTI3IDEuODU0IDQuMzAyIDIuNjczIDYuNDg5IDEuNjEgNC4zODcgMi45NDggOC44NzUgMy43NzUgMTMuNDZsMC4wMzEgMC4xNzQtMC4xMzkgMC4xMTV6IG0tMC40Ny0wLjM0NGMtMy44NzgtOC4zMDUtOC4xNC0xNi4yOTMtMTMuMDI3LTIzLjgwMi0yLjQ4My0zLjc1Mi01LjEwMS03LjQyOC04LjAwNS0xMC42MzItMS40NDItMS41NzYtMi45OTgtMy4wODYtNC41MjgtNC4wMzMtMC43NDUtMC40NzktMS40OTgtMC43NDYtMS44NzUtMC43NDQtMC4wNDIgMC4wMDEtMC4xMTUtMC4wMDQtMC4wNzItMC4wMDggMC4wMDYtMC4wMDIgMC4wMjEtMC4wMTQgMC4wMTUtMC4wMjFsLTAuMjEgMC4wNWMwLjAwNi0wLjAxNS0wLjA1NSAwLjAwMS0wLjEzNiAwLjA0MS0wLjE3MSAwLjA4MS0wLjQ0OSAwLjMwNC0wLjcyNiAwLjU5OC0wLjU2NyAwLjU5My0xLjEzNCAxLjQ0NS0xLjY0MyAyLjM0Ni0wLjUxMiAwLjkwNi0wLjk4IDEuODg1LTEuNDIgMi44ODktMC44ODMgMi4wMTItMS42NTQgNC4xMjYtMi40MDUgNi4yNTgtMS40OSA0LjI3NS0yLjkxMSA4LjY0Ni00LjEzIDEzLjA3NS0xLjIyOCA0LjQyOS0yLjE2OCA4LjkzNi0yLjkxNyAxMy40NzItMC43MzUgNC41MzktMS4xMjQgOS4xMzUtMS4zODEgMTMuNzM1bC0xLjE1OS0xLjY1NWMyLjAzOCAwLjI4MSA0LjA1MyAwLjYwMiA2LjAyMSAwLjk1IDEuOTY5IDAuMzA5IDMuOTIxIDAuNzA4IDUuNzIyIDAuODI1IDAuODY5IDAuMDg2IDEuNzcgMC4wNTkgMi4yMDgtMC4wNTQgMC4xMTQtMC4wMjIgMC4xNTUtMC4wNTggMC4xNy0wLjA1NGEwLjM4NSAwLjM4NSAwIDAgMC0wLjEwNSAwLjA3Yy0wLjAxIDAuMDEtMC4wNDIgMC4wNDUtMC4wMjkgMC4wMzZsMC4wNzEtMC4wNjIgMC4wNzEtMC4wNjIgMC4wMzYtMC4wMzEgMC4wMDktMC4wMDhjLTAuMDUxIDAuMDQ4IDAuMTI2LTAuMTE1LTAuMTEgMC4xMDRsMC4wMzEtMC4wM2MwLjA4My0wLjA3OCAwLjE3Ny0wLjE2OSAwLjI0OS0wLjIyNyAwLjYxMS0wLjQ5NyAxLjA3NS0wLjc1OSAxLjU2My0xLjA1MSAxLjkwMy0xLjA3OCAzLjcyMi0xLjkyOSA1LjU3My0yLjc5Mmw1LjU2Mi0yLjQyNCA1LjU4Ni0yLjI5OWMzLjY2My0xLjQ3NyA3LjMxOC0yLjkzMyAxMC45OTEtNC40NnoiLz48cGF0aCBmaWxsPSIjRTVCRkFCIiBkPSJNNjYzLjkyMzgyIDIzOS4xMmgtMC4wMTJjLTEuMjM4LTAuNDM5LTIuMzc5LTAuNjQtMy4zODktMC41Ni03LjQ3MSAwLjU4LTM0LjMyLTE5LjIxLTQzLjI1LTI1LjQ5IDE2LjMwOS0yNC4wNCA1Mi4xNi03NS43NzkgNTcuOTItNzUuMDEgNi43NjEgMC45IDguMjQxIDM2LjI5LTExLjI2OSAxMDEuMDZ6Ii8+PHBhdGggZmlsbD0iI0JFOTQ3RCIgZD0iTTY2NC4wOTk4MiAyMzkuMzU0bC0wLjE4OCAwLjAxNy0wLjAyIDAuMDAyLTAuMDY0LTAuMDE3Yy0xLjA3LTAuMjcxLTIuMTc4LTAuNDEyLTMuMTg4LTAuMjU0LTEuMjQ2IDAuMTc0LTIuNDUzLTAuMDYzLTMuNTg4LTAuMzIyLTIuMjc3LTAuNTc2LTQuNDA4LTEuNDU1LTYuNTAyLTIuMzg2YTExMy4zNzYgMTEzLjM3NiAwIDAgMS02LjExOS0zLjA2NiAyMTMuOTU2IDIxMy45NTYgMCAwIDEtNS45MDgtMy4zOTNjLTMuODg5LTIuMzM2LTcuNjg4LTQuNzk4LTExLjQ0My03LjMxNC0zLjcyMS0yLjU1Ny03LjQ3MS01LjA5NC0xMS4wOTItNy43MjRsLTEuNzc5LTEuMjkzIDEuMjE3LTEuNzg4YzQuNjgtNi44ODEgOS43MjctMTMuNTEyIDE0LjgzNC0yMC4wOTNhNjQ1LjczNCA2NDUuNzM0IDAgMCAwIDE0Ljk2NS0xOS45ODVjMi40MzQtMy4zNzQgNC44NC02Ljc2OCA3LjIzOC0xMC4xNzRhNTA4LjEwOCA1MDguMTA4IDAgMCAxIDcuMjctMTAuMTg4YzIuNDg0LTMuMzYzIDQuOTcxLTYuNzMxIDcuNzk1LTkuOTI3YTUxLjQxNiA1MS40MTYgMCAwIDEgMi4yMTctMi4zN2MwLjc5MS0wLjc3OCAxLjYwNC0xLjUyOSAyLjY4Ni0yLjI2MSAwLjI3OS0wLjE4MyAwLjU4Mi0wLjM2MyAwLjk1My0wLjUzNiAwLjM3Ny0wLjE2NiAwLjgxMS0wLjM1NSAxLjUyOS0wLjQwNmEyLjI3IDIuMjcgMCAwIDEgMC4yODktMC4wMDNsMC4xNTQgMC4wMDljMC4wOCAwLjAxIDAuMDM1LTAuMDAyIDAuMjIxIDAuMDI2bDAuMDk2IDAuMDE1IDAuMTY2IDAuMDMxYzAuMzY1IDAuMDggMC41NjYgMC4xNTUgMC44MTggMC4yNjFhNC43OCA0Ljc4IDAgMCAxIDEuMjExIDAuNzYxYzEuMzA3IDEuMTY2IDEuODEzIDIuMzY1IDIuMjkzIDMuNDkxIDAuODc1IDIuMjY1IDEuMjU4IDQuNDQgMS41NjYgNi42MDkgMC4yODkgMi4xNjUgMC40NDEgNC4zMTIgMC41MiA2LjQ0OCAwLjEzMyA0LjI3MiAwLjAxNCA4LjUwOS0wLjI5MyAxMi43Mi0wLjM0NCA0LjIwNi0wLjc3NyA4LjM5NC0xLjQxMiAxMi41NDZhMjcyLjI2NSAyNzIuMjY1IDAgMCAxLTIuMTk1IDEyLjM4NyAzMDAuNjk3IDMwMC42OTcgMCAwIDEtNi4xMTkgMjQuMzIyIDI5Ni44MjggMjk2LjgyOCAwIDAgMS04LjA2NCAyMy42OTJsLTAuMDY0IDAuMTYzeiBtLTAuMzU5LTAuNTY1YzMuNTItMTYuMTk2IDcuMS0zMi4yOTcgOS43MjktNDguNTEgMC42NzQtNC4wNyAxLjMwNy04LjE0NCAxLjgxOC0xMi4yMjUgMC41Mi00LjA4IDEuMDQzLTguMTU0IDEuMzY1LTEyLjIzNCAwLjM1NC00LjA3NSAwLjYyMS04LjE1NCAwLjU5NC0xMi4xOTQtMC4wMDgtMi4wMTgtMC4wNzYtNC4wMjctMC4yNy01Ljk5MS0wLjE5NS0xLjk0OS0wLjUwNC0zLjkwNy0xLjA3OC01LjU0Ny0wLjI3My0wLjc5My0wLjY4OC0xLjUzNi0wLjk0My0xLjc3LTAuMDU3LTAuMDU5LTAuMDktMC4wODEtMC4wOS0wLjA4NiAwLjAxNC0wLjAwMi0wLjAzMS0wLjAxIDAuMDgyIDAuMDExIDAuMDQxIDAuMDA0IDAuMDE2LTAuMDAyLTAuMDI1LTAuMDA5bC0wLjA5Ni0wLjAyIDAuMTI1IDAuMDE4IDAuMDU3IDAuMDA0IDAuMDk0LTAuMDAyYzAuMTk5LTAuMDIyIDAuMTMxLTAuMDQyIDAuMDM1IDAuMDAyYTMuMDggMy4wOCAwIDAgMC0wLjQxNCAwLjIwOWMtMC42NjggMC4zOTYtMS40MjYgMS4wMjEtMi4xNTQgMS42NTZhNDcuNjY1IDQ3LjY2NSAwIDAgMC0yLjE4NiAyLjA0NGMtMi44NjUgMi44NjYtNS42NiA1LjkzLTguMzczIDkuMDUxLTUuNDEyIDYuMjY5LTEwLjY1OCAxMi43MjktMTUuNTQzIDE5LjQ0NC00LjkyMiA2LjY5Mi05LjUyNSAxMy42MTYtMTMuOTIyIDIwLjY3Ni00LjQwMiA3LjA1Ny04Ljc3IDE0LjEzMS0xMy40MjQgMjEuMDA4bC0wLjU2My0zLjA4YTIyNC4yNTYgMjI0LjI1NiAwIDAgMSA1LjUwMiAzLjkzNWw1LjQ2MSAzLjk0MWE2NjIuNDcxIDY2Mi40NzEgMCAwIDAgMTAuOTU1IDcuNzkxIDIxMS45NDUgMjExLjk0NSAwIDAgMCA1LjU0OSAzLjc2IDExMy4yNzggMTEzLjI3OCAwIDAgMCA1LjY0NiAzLjU2N2MxLjkwNiAxLjEyOCAzLjg0OCAyLjIxNyA1Ljg1OSAzLjAyMyAxLjAwNiAwLjM5NSAyLjAyNSAwLjc0NSAzLjAzOSAwLjc0OSAxLjE0OSAwLjAyNCAyLjE5NCAwLjM2MyAzLjE3MSAwLjc3OXoiLz48cGF0aCBmaWxsPSIjMjMxODE1IiBkPSJNNTIxLjY5MzgyIDQwMC4wNmExNi43NSAxNSAwIDEgMCAzMy41IDAgMTYuNzUgMTUgMCAxIDAtMzMuNSAwWiIvPjxwYXRoIGZpbGw9IiMyNjI3MjciIGQ9Ik0zNTMuNjkzODIgNDI3LjA2YzMuMDY4IDIuNTU3IDUuODE4IDQuODEyIDguNTkxIDYuMzI2IDEuMzc2IDAuNzUgMi43MTEgMS4yOTkgMy45OTcgMS41OTggMS4yODkgMC4yOTcgMi41MTggMC4zODEgMy44MDMgMC4yNTkgMi41NTUtMC4yMjkgNS40Mi0xLjM0MSA4LjQwOS0yLjkwMyAzLjAyMy0xLjUzNyA2LjA3NS0zLjUxIDkuNy01LjI3OS0xLjAzNyAzLjkwNC0zLjA2MyA3LjMxNi01Ljg3MSAxMC4yN2EyMS4wMTMgMjEuMDEzIDAgMCAxLTQuOTg4IDMuODRjLTEuOTEyIDEuMDU0LTQuMTMzIDEuODIyLTYuNTE2IDIuMDM4LTIuMzczIDAuMjI4LTQuODc5LTAuMTQ3LTcuMDUzLTEuMDg0YTE1LjY2NSAxNS42NjUgMCAwIDEtNS40ODUtMy45MTQgMTguMTgyIDE4LjE4MiAwIDAgMS0zLjMyMS01LjI2NWMtMC43NTYtMS44ODMtMS4yNzItMy44NDEtMS4yNjYtNS44ODZ6Ii8+PHBhdGggZmlsbD0iIzI2MjcyNyIgZD0iTTM2Ny4xOTA4MiA0ODEuMDZhMi45ODcgMi45ODcgMCAwIDEtMS41NDEtMC40MjhjLTIuOTM4LTEuNzYzLTYuMDc2LTYuMjMtNC4yNTUtMjUuMjk1IDAuOTQxLTkuODU1IDIuNzgxLTE4Ljk4OSAyLjg1OC0xOS4zNzNhMyAzIDAgMSAxIDUuODgxIDEuMTkxYy0wLjAxOSAwLjA5Mi0xLjg2MSA5LjI0Ny0yLjc3MSAxOC43OTQtMS42NjcgMTcuNSAxLjM0MyAxOS41MiAxLjM3NCAxOS41MzhhMyAzIDAgMCAxLTEuNTQ2IDUuNTczeiIvPjxwYXRoIGZpbGw9IiNFOEQ3QzAiIGQ9Ik03MDUuNjkzODIgNjAyLjU2MWMwIDQuOTcxLTIuODY1IDUuNzUtOC4yNSA1Ljc1cy0xMS4yNS0wLjc3OS0xMS4yNS01Ljc1IDYuMzY1LTExLjUgMTEuNzUtMTEuNSA3Ljc1IDYuNTI5IDcuNzUgMTEuNXoiLz48cGF0aCBmaWxsPSIjRjFFN0RCIiBkPSJNNjk3LjQ0MzgyIDYxMC44MTFjLTMuNCAwLTEzLjc1IDAtMTMuNzUtOC4yNSAwLTYuNTQzIDcuNTktMTQgMTQuMjUtMTQgNi42NTYgMCAxMC4yNSA3LjIxMyAxMC4yNSAxNCAwIDguMjUtNi45OTQgOC4yNS0xMC43NSA4LjI1eiBtMC41LTE3LjI1Yy00LjE5OSAwLTkuMjUgNS41MjctOS4yNSA5IDAgMC44ODkgMCAzLjI1IDguNzUgMy4yNSA1Ljc1IDAgNS43NS0wLjk1MSA1Ljc1LTMuMjUgMC0zLjczOS0xLjYyOS05LTUuMjUtOXoiLz48cGF0aCBmaWxsPSIjRThEN0MwIiBkPSJNNDI0LjE5MzgyIDY4Mi41NjFjMCA1LjUyMy0xMi42NjcgMS42MDQtMjguNjY3LTUtMTUuNjk4LTYuNDc5LTIzLjMzMy0xOS42NjgtMTkuMzM0LTI2IDIuOTQ5LTQuNjcgMTkuMDA0IDExLjA5OCAyMy40NzYgMTQuMzMyIDguODA3IDYuMzcxIDI0LjUyNSAxMS4xNDQgMjQuNTI1IDE2LjY2OHoiLz48cGF0aCBmaWxsPSIjRjFFN0RCIiBkPSJNNDIwLjM1MDgyIDY4Ny42ODZjLTQuNzMxIDAtMTIuNjgyLTIuNDEtMjUuNzc3LTcuODE0LTEwLjM3OC00LjI4My0xOC42OTgtMTIuMTIzLTIxLjE5Ni0xOS45NzMtMS4xODYtMy43MjUtMC45NDItNy4wNjggMC43MDItOS42NzQgMC44MjQtMS4zMDUgMi4xODQtMi4wMjEgMy44MjctMi4wMjEgNC4zOTQgMCAxMS4xODggNS40OTggMTguOTY0IDEyLjE0MSAxLjc5OSAxLjUzNyAzLjM1MyAyLjg2NSA0LjI2NCAzLjUyMyAzLjA5MiAyLjIzNiA3LjE2MyA0LjMwOSAxMS4xMDEgNi4zMTMgOC4wNzkgNC4xMTMgMTQuNDYgNy4zNjEgMTQuNDYgMTIuMzgxLTAuMDAyIDEuMi0wLjQ1OSA1LjEyNC02LjM0NSA1LjEyNHogbS00Mi4yMjQtMzQuNDcxYy0wLjY0NSAxLjI4OS0wLjY0MyAzLjEwNCAwLjAxNSA1LjE2OCAxLjU3MSA0LjkzOCA3LjMxNyAxMi4zMTggMTguMzQgMTYuODY3IDEyLjEyNSA1LjAwNCAxOS45MzMgNy40MzYgMjMuODY5IDcuNDM2IDAuNzU4IDAgMS4xNTktMC4wOTYgMS4zNDMtMC4xNi0wLjA4OC0xLjk2My03LjM2Ny01LjY3LTExLjcyNy03Ljg4OS00LjEwOC0yLjA5Mi04LjM1Ni00LjI1NC0xMS43NjMtNi43MTktMS4wNzUtMC43NzctMi42MjMtMi4xLTQuNTgyLTMuNzczLTQuMDU3LTMuNDY1LTEyLjM5My0xMC41ODgtMTUuNDk1LTEwLjkzeiIvPjxwYXRoIGZpbGw9IiNFOEQ3QzAiIGQ9Ik01OTUuMTkzODIgNjkwLjIyN2MtMS44NTItMy43MDUtMTIuMzM0IDYuNjY2LTE5LjMzNCAxMi4zMzQtMTMuMTQ1IDEwLjY0MS0zMC4zMzIgMTEuNjY2LTI3LjMzMiAxNy4zMzIgMS45MzggMy42NjIgMjAuMjMgMS44ODkgMzMtNi4zMzIgMTEtNy4wODIgMTYuMzMyLTE4IDEzLjY2Ni0yMy4zMzR6Ii8+PHBhdGggZmlsbD0iI0YxRTdEQiIgZD0iTTU1NC45MDY4MiA3MjQuMjA3Yy00LjY2IDAtNy40NjktMS4wMjktOC41ODgtMy4xNDUtMC44ODUtMS42NjgtMC42ODYtMy4wODItMC4zNjEtMy45NzMgMS4wNzQtMi45NjcgNC43ODEtNC40ODYgMTAuMzk1LTYuNzg3IDUuMzg5LTIuMjA5IDEyLjA5NC00Ljk1NyAxNy45MzYtOS42ODYgMS40MDItMS4xMzcgMi45NDEtMi40NTkgNC41Ny0zLjg1OSA3LjEwNC02LjEwNSAxMS42NTgtOS44MTMgMTUuMDE0LTkuODEzIDEuNTc0IDAgMi44NzEgMC43ODkgMy41NTkgMi4xNjQgMy41MjMgNy4wNDctMy4xNDEgMTkuMjA3LTE0LjU0OSAyNi41NTMtOS4xNjkgNS45MDMtMjAuNjU4IDguNTQ2LTI3Ljk3NiA4LjU0NnogbS00LjEzNS01LjU3NGMwLjQ2NyAwLjIyMyAxLjcxNSAwLjU3NCA0LjEzNSAwLjU3NCA2LjM3MyAwIDE3LTIuNDI2IDI1LjI2OC03Ljc0OCA5Ljg4MS02LjM2MyAxNC4wNzYtMTUuMjQgMTMuMDYxLTE5LjM1LTIuMzk4IDAuOTQ3LTcuOTgyIDUuNzQ2LTExLjExNyA4LjQ0MS0xLjY1OCAxLjQyNC0zLjIyNSAyLjc3LTQuNjg0IDMuOTUzLTYuNDEyIDUuMTg5LTEzLjc5NSA4LjIxNy0xOS4xODggMTAuNDI2LTIuODI0IDEuMTU5LTYuNjM1IDIuNzE5LTcuNDc1IDMuNzA0eiIvPjxwYXRoIGZpbGw9IiNFOEQ3QzAiIGQ9Ik00MDYuOTQzODIgNzYwLjY2OGMwIDMuNTktMTkuNzUgMy45NDEtMjYuNSAyLjUzMS0xMy4wMy0yLjcyMy0yNC45NjktMjQuODgxLTIzLjI1LTI4LjAzMSAxLjUtMi43NSAyMC40NTMgMTUuNjA5IDIyLjAyOCAxNyAxMC40NzIgOS4yNSAyNy43MjItMS42MTcgMjcuNzIyIDguNXoiLz48cGF0aCBmaWxsPSIjRjFFN0RCIiBkPSJNMzkwLjg3MzgyIDc2Ni40NjljLTQuMzg1IDAtOC40NzYtMC4zMDctMTAuOTQyLTAuODIyLTEwLjQwOS0yLjE3Ni0xOS43NC0xNC45ODQtMjMuNDczLTIzLjA2NC0yLjUzMS01LjQ3OS0yLjA0Ni03LjUzOS0xLjQ2LTguNjExIDAuNTQtMC45OTIgMS41NjctMS41ODQgMi43NDgtMS41ODQgMi40NzggMCA2Ljk5NCAyLjc5NSAyMS44MzkgMTYuNzA3IDAuNjQ4IDAuNjA3IDEuMTAxIDEuMDMxIDEuMjkgMS4xOTkgMy40NzQgMy4wNjggNy45NzEgMy40NjMgMTEuNSAzLjQ2M2gwLjAwMWMxLjQ4MyAwIDIuOTUtMC4wNzggNC4zNjctMC4xNTIgMS4zMjEtMC4wNyAyLjU2OC0wLjEzNSAzLjc1LTAuMTM1IDIuMjE0IDAgOC45NDkgMCA4Ljk0OSA3LjE5OSAwLjAwMSAxLjU4NSAwLjAwMSA1LjgtMTguNTY5IDUuOHogbS0zMC41ODgtMjcuNTFjMi41NzggNi40NzMgMTEuMzI1IDE5Ljg0IDIwLjY2OSAyMS43OTMgMi4xMTcgMC40NDEgNS45MTggMC43MTcgOS45MTkgMC43MTcgNy4zMyAwIDEyLjAzMy0wLjgzMiAxMy41NDQtMS41MjktMC4xMTMtMC45NTUtMC43MTQtMS40NzEtMy45MjQtMS40NzEtMS4wNSAwLTIuMjMzIDAuMDYxLTMuNDg2IDAuMTI3LTEuNDgyIDAuMDc4LTMuMDE2IDAuMTYtNC42MzEgMC4xNmgtMC4wMDFjLTQuMDY2IDAtMTAuMDI2LTAuNDktMTQuODEtNC43MTUtMC4yMDUtMC4xODItMC42OTYtMC42NDEtMS40LTEuMjk5LTguNjMxLTguMDktMTMuMzI4LTExLjk1My0xNS44OC0xMy43ODN6Ii8+PHBhdGggZmlsbD0iI0U4RDdDMCIgZD0iTTcwNy43NDY4MiA3MjkuMWMwLTQuMTQzLTEwLjc5NyAxMC4yNS00MCAyMS0yNi44MjIgOS44NzMtNDYuMzM0IDEwLjE5MS00Ni4zMzQgMTQuMzM0czIxLjEyMyA5Ljk2NSA0OC42NjYgMi4zMzJjMjcuNjY4LTcuNjY2IDM3LjY2OC0zMy41MjQgMzcuNjY4LTM3LjY2NnoiLz48cGF0aCBmaWxsPSIjRjFFN0RCIiBkPSJNNzA3Ljc0NjgyIDcyOS4xYy0wLjAxLTAuMjQ2LTAuMDM1LTAuNTY2LTAuMjg3LTAuNjgyLTAuMjQ4LTAuMDg4LTAuNTE2IDAuMDE2LTAuNzUyIDAuMTEzLTAuNDc5IDAuMjEzLTAuOTA4IDAuNTIxLTEuMzQgMC44MTYtMC44NTIgMC42MTMtMS42NjQgMS4yODMtMi40NjcgMS45NjUtMS42MTEgMS4zNTktMy4xNTYgMi44MTgtNC43NDYgNC4yNDQtMy4xNDggMi44ODctNi40NTUgNS42NzgtMTAuMDQ5IDguMDQxLTcuNTE4IDQuMTExLTE1LjQyMiA3LjUzMy0yMy40ODggMTAuMjY4LTguMDUxIDIuNzc1LTE2LjI4OSA0Ljk5LTI0LjUzOSA2Ljg2NS00LjEwOSAwLjk1My04LjI3NyAxLjc5MS0xMi4xOTkgMi44MTYtMC45NjkgMC4yNjItMS45MjggMC41NDEtMi43NjggMC44NjFhOC42ODcgOC42ODcgMCAwIDAtMS4wOTIgMC40OTJjLTAuMjgxIDAuMTQxLTAuNDMgMC4zNTQtMC4yNTggMC4xMjEgMC4wMzctMC4wNjEgMC4wODQtMC4xNjIgMC4xMTUtMC4yNzkgMC4wMTgtMC4wNjEgMC4wMi0wLjEyNSAwLjAzMy0wLjE4NiAwLjAwNC0wLjAzMSAwLjAwNi0wLjA2MyAwLjAwNC0wLjA5NGE5LjMzIDkuMzMgMCAwIDEtMC4wMDgtMC4yMDVsMC4wMDQgMC4wNDljMC4wMDIgMC4wNTMgMC4wMTggMC4yMDEgMC4wMDQgMC4wMS0wLjAwNi0wLjEwNS0wLjA2My0wLjI2LTAuMDYzLTAuMjYtMC4wMjUtMC4wNzQtMC4wMzctMC4xMDItMC4wNTMtMC4xMTktMC4wMjUtMC4wMjkgMC4xNjIgMC4xOTUgMC40MzkgMC4zODMgMC41NjMgMC40MDYgMS4zOTEgMC44MDkgMi4yNDQgMS4xNDMgMy41MTggMS4zMzYgNy42IDEuOTczIDExLjYxMSAyLjMwMSA0LjA0MyAwLjMxNCA4LjE0MSAwLjI3OSAxMi4yMTktMC4wMjdhOTYuODEgOTYuODEgMCAwIDAgMTIuMTctMS43MTNjNC4wMS0wLjg0MiA4LjA1OS0xLjgzNCAxMS43NDQtMy4yNTYgNy40OS0yLjg3MSAxNC4yMzItNy41NzQgMTkuNjQ1LTEzLjUyOSAyLjk2Ny0yLjczMiA1Ljg5Ni01LjY1IDguNDgtOC45MzkgMS4yNy0xLjY1NCAyLjQ1Ny0zLjM5NiAzLjQxLTUuMjY0IDAuNDc5LTAuOTM0IDAuOTEtMS44OTMgMS4yNjYtMi44NzkgMC4zNDYtMC45ODggMC42NjgtMi4wMDQgMC43MjEtMy4wNTZ6IG0wIDBjLTAuMDM3IDEuMDU1LTAuMzM4IDIuMDc2LTAuNjA3IDMuMDkyYTY0Ljg2MiA2NC44NjIgMCAwIDEtMC45NDMgMy4wMjdjLTAuNjg5IDIuMDAyLTEuNDA2IDQuMDItMi4yMzggNi4wMDYtMS42MjkgMy45OS0zLjY5NSA3Ljg5Ni02LjM5MSAxMS4zODMtNS44OTUgNi40OS0xMy4zMTQgMTEuNjc2LTIxLjU0MyAxNC44MjYtNC4xNyAxLjU5OC04LjMyNCAyLjU5OC0xMi41MzcgMy40ODhhMTAyLjA5IDEwMi4wOSAwIDAgMS0xMi43OTkgMS44MDFjLTQuMzA1IDAuMzIyLTguNjQzIDAuMzYxLTEyLjk4NCAwLjAyNS00LjM0OC0wLjM3My04LjY4LTAuOTg4LTEzLjA0Ny0yLjYzMS0xLjA5Ni0wLjQ0MS0yLjE5My0wLjkyNi0zLjM0Ni0xLjc0NC0wLjU3Mi0wLjQyNi0xLjE4OS0wLjkwOC0xLjc3Ny0xLjgzYTQuNDcyIDQuNDcyIDAgMCAxLTAuMzk2LTAuODMyIDMuNjg1IDMuNjg1IDAgMCAxLTAuMTY0LTAuNjM3Yy0wLjA1My0wLjMxOC0wLjAzNy0wLjMwMS0wLjA0Ny0wLjM3OWEzLjc5OCAzLjc5OCAwIDAgMSAwLjUzMy0yLjIxOWMwLjcyNS0xLjEzOSAxLjQ3Ny0xLjU0MSAyLjA5Ni0xLjkyNmExMy4xNiAxMy4xNiAwIDAgMSAxLjc3NS0wLjgxNGMxLjEyNy0wLjQyNiAyLjE5MS0wLjczIDMuMjUyLTEuMDE4IDQuMjEzLTEuMSA4LjI5Ny0xLjkxMiAxMi4zODEtMi44NjMgOC4xNDYtMS44NTIgMTYuMTc4LTQuMDEyIDI0LjAyOS02LjcxOSA3Ljg1NC0yLjY4NiAxNS40NzEtNS45MTIgMjIuNjctOS45NTkgMy43NjgtMS43MDEgNy42MTktMy4zNDIgMTEuNDA4LTUuMjA3IDEuODgzLTAuOTQ1IDMuNzUtMS45NDMgNS41NDMtMy4wNTVsMi42ODgtMS42N2MwLjQ0OS0wLjI3MyAwLjkwNi0wLjU0MyAxLjM5NS0wLjc0NiAwLjI0LTAuMDkyIDAuNTEyLTAuMTkzIDAuNzcxLTAuMDk4IDAuMjU4IDAuMTI4IDAuMjcyIDAuNDUzIDAuMjc4IDAuNjk5eiIvPjxwYXRoIGZpbGw9IiMyNjI3MjciIGQ9Ik0zNTMuNjkzODIgNDI3LjA2YzMuMDY4IDIuNTU3IDUuODE4IDQuODEyIDguNTkxIDYuMzI2IDEuMzc2IDAuNzUgMi43MTEgMS4yOTkgMy45OTcgMS41OTggMS4yODkgMC4yOTcgMi41MTggMC4zODEgMy44MDMgMC4yNTkgMi41NTUtMC4yMjkgNS40Mi0xLjM0MSA4LjQwOS0yLjkwMyAzLjAyMy0xLjUzNyA2LjA3NS0zLjUxIDkuNy01LjI3OS0xLjAzNyAzLjkwNC0zLjA2MyA3LjMxNi01Ljg3MSAxMC4yN2EyMS4wMTMgMjEuMDEzIDAgMCAxLTQuOTg4IDMuODRjLTEuOTEyIDEuMDU0LTQuMTMzIDEuODIyLTYuNTE2IDIuMDM4LTIuMzczIDAuMjI4LTQuODc5LTAuMTQ3LTcuMDUzLTEuMDg0YTE1LjY2NSAxNS42NjUgMCAwIDEtNS40ODUtMy45MTQgMTguMTgyIDE4LjE4MiAwIDAgMS0zLjMyMS01LjI2NWMtMC43NTYtMS44ODMtMS4yNzItMy44NDEtMS4yNjYtNS44ODZ6Ii8+PHBhdGggZmlsbD0iIzI2MjcyNyIgZD0iTTM2Ny4xOTA4MiA0ODEuMDZhMi45ODcgMi45ODcgMCAwIDEtMS41NDEtMC40MjhjLTIuOTM4LTEuNzYzLTYuMDc2LTYuMjMtNC4yNTUtMjUuMjk1IDAuOTQxLTkuODU1IDIuNzgxLTE4Ljk4OSAyLjg1OC0xOS4zNzNhMyAzIDAgMSAxIDUuODgxIDEuMTkxYy0wLjAxOSAwLjA5Mi0xLjg2MSA5LjI0Ny0yLjc3MSAxOC43OTQtMS42NjcgMTcuNSAxLjM0MyAxOS41MiAxLjM3NCAxOS41MzhhMyAzIDAgMCAxLTEuNTQ2IDUuNTczeiIvPjwvc3ZnPg==;fontSize=26;" parent="1" vertex="1">
          <mxGeometry x="-5251.5" y="-1427.6899999999998" width="73" height="73" as="geometry" />
        </mxCell>
        <mxCell id="wu85P2VpSHijpUglrD6K-553" style="edgeStyle=orthogonalEdgeStyle;rounded=0;orthogonalLoop=1;jettySize=auto;html=1;exitX=0;exitY=0.75;exitDx=0;exitDy=0;entryX=0.641;entryY=1.017;entryDx=0;entryDy=0;entryPerimeter=0;" parent="1" source="wu85P2VpSHijpUglrD6K-531" target="wu85P2VpSHijpUglrD6K-556" edge="1">
          <mxGeometry relative="1" as="geometry">
            <Array as="points">
              <mxPoint x="-5599" y="-1347.87" />
              <mxPoint x="-5675" y="-1347.87" />
              <mxPoint x="-5675" y="-1367.87" />
              <mxPoint x="-5674" y="-1367.87" />
            </Array>
          </mxGeometry>
        </mxCell>
        <mxCell id="wu85P2VpSHijpUglrD6K-554" value="&lt;font style=&quot;font-size: 28px;&quot;&gt;Question Recommender&lt;/font&gt;" style="text;html=1;align=center;verticalAlign=middle;whiteSpace=wrap;rounded=0;fontSize=28;" parent="1" vertex="1">
          <mxGeometry x="-5577.5" y="-1425.78" width="375" height="30" as="geometry" />
        </mxCell>
        <mxCell id="wu85P2VpSHijpUglrD6K-555" style="edgeStyle=orthogonalEdgeStyle;rounded=0;orthogonalLoop=1;jettySize=auto;html=1;exitX=0.5;exitY=0;exitDx=0;exitDy=0;entryX=0;entryY=0.25;entryDx=0;entryDy=0;" parent="1" source="wu85P2VpSHijpUglrD6K-556" target="wu85P2VpSHijpUglrD6K-531" edge="1">
          <mxGeometry relative="1" as="geometry">
            <Array as="points">
              <mxPoint x="-5685" y="-1422.8711730708737" />
            </Array>
          </mxGeometry>
        </mxCell>
        <mxCell id="wu85P2VpSHijpUglrD6K-556" value="&lt;font style=&quot;font-size: 28px;&quot;&gt;LoRA&lt;/font&gt;" style="shape=trapezoid;perimeter=trapezoidPerimeter;whiteSpace=wrap;html=1;fixedSize=1;fillColor=none;fontSize=26;" parent="1" vertex="1">
          <mxGeometry x="-5745" y="-1417.87" width="110" height="45" as="geometry" />
        </mxCell>
        <mxCell id="wu85P2VpSHijpUglrD6K-557" style="edgeStyle=orthogonalEdgeStyle;rounded=0;orthogonalLoop=1;jettySize=auto;html=1;exitX=0.5;exitY=0;exitDx=0;exitDy=0;" parent="1" edge="1">
          <mxGeometry relative="1" as="geometry">
            <mxPoint x="-5400.117272727273" y="-1346.87" as="targetPoint" />
            <mxPoint x="-5400.39" y="-1290.87" as="sourcePoint" />
          </mxGeometry>
        </mxCell>
        <mxCell id="wu85P2VpSHijpUglrD6K-558" value="&lt;div style=&quot;text-align: center;&quot;&gt;&lt;font style=&quot;font-size: 28px;&quot;&gt;Question&lt;/font&gt;&lt;/div&gt;" style="text;whiteSpace=wrap;html=1;fillColor=none;fontSize=26;" parent="1" vertex="1">
          <mxGeometry x="-5485" y="-1548.87" width="124" height="26.34" as="geometry" />
        </mxCell>
        <mxCell id="wu85P2VpSHijpUglrD6K-559" value="&lt;font style=&quot;font-size: 28px;&quot;&gt;&amp;nbsp;$$q_i$$&lt;/font&gt;" style="text;html=1;align=center;verticalAlign=middle;whiteSpace=wrap;rounded=0;fillColor=none;fontSize=28;" parent="1" vertex="1">
          <mxGeometry x="-5361" y="-1573.6299999999999" width="50" height="54.1" as="geometry" />
        </mxCell>
        <mxCell id="wu85P2VpSHijpUglrD6K-560" style="edgeStyle=orthogonalEdgeStyle;rounded=0;orthogonalLoop=1;jettySize=auto;html=1;exitX=0.456;exitY=0.003;exitDx=0;exitDy=0;exitPerimeter=0;" parent="1" source="wu85P2VpSHijpUglrD6K-531" edge="1">
          <mxGeometry relative="1" as="geometry">
            <mxPoint x="-5408.137272727273" y="-1497.87" as="targetPoint" />
            <mxPoint x="-5408.41" y="-1441.87" as="sourcePoint" />
          </mxGeometry>
        </mxCell>
        <mxCell id="wu85P2VpSHijpUglrD6K-561" value="&lt;span style=&quot;color: rgb(0, 0, 0); font-family: Helvetica; font-size: 28px; font-style: normal; font-variant-ligatures: normal; font-variant-caps: normal; font-weight: 400; letter-spacing: normal; orphans: 2; text-align: center; text-indent: 0px; text-transform: none; widows: 2; word-spacing: 0px; -webkit-text-stroke-width: 0px; white-space: normal; background-color: rgb(251, 251, 251); text-decoration-thickness: initial; text-decoration-style: initial; text-decoration-color: initial; float: none; display: inline !important;&quot;&gt;&lt;span&gt;&amp;nbsp;&lt;/span&gt;Prompt Emb.&lt;/span&gt;" style="text;whiteSpace=wrap;html=1;" parent="1" vertex="1">
          <mxGeometry x="-5768" y="-1282.62" width="175" height="50" as="geometry" />
        </mxCell>
        <mxCell id="wu85P2VpSHijpUglrD6K-569" value="" style="group" parent="1" vertex="1" connectable="0">
          <mxGeometry x="-6014" y="-1593.87" width="169" height="120" as="geometry" />
        </mxCell>
        <mxCell id="wu85P2VpSHijpUglrD6K-562" value="" style="ellipse;shape=cloud;whiteSpace=wrap;html=1;fillColor=#fff2cc;strokeColor=#d6b656;" parent="wu85P2VpSHijpUglrD6K-569" vertex="1">
          <mxGeometry width="169" height="120" as="geometry" />
        </mxCell>
        <mxCell id="wu85P2VpSHijpUglrD6K-568" value="&lt;font style=&quot;font-size: 28px;&quot;&gt;Question Candidate&lt;/font&gt;" style="text;html=1;align=center;verticalAlign=middle;whiteSpace=wrap;rounded=0;" parent="wu85P2VpSHijpUglrD6K-569" vertex="1">
          <mxGeometry x="40.84166666666666" y="44.48999999999995" width="85.90833333333332" height="38.64000000000001" as="geometry" />
        </mxCell>
        <mxCell id="wu85P2VpSHijpUglrD6K-571" value="&lt;font style=&quot;font-size: 28px;&quot;&gt;Restrain&lt;/font&gt;" style="text;html=1;align=center;verticalAlign=middle;whiteSpace=wrap;rounded=0;" parent="1" vertex="1">
          <mxGeometry x="-6092" y="-1564.87" width="60" height="30" as="geometry" />
        </mxCell>
        <mxCell id="wu85P2VpSHijpUglrD6K-573" style="edgeStyle=orthogonalEdgeStyle;rounded=0;orthogonalLoop=1;jettySize=auto;html=1;exitX=1;exitY=0.75;exitDx=0;exitDy=0;entryX=0.072;entryY=0.542;entryDx=0;entryDy=0;entryPerimeter=0;" parent="1" source="wu85P2VpSHijpUglrD6K-441" target="wu85P2VpSHijpUglrD6K-562" edge="1">
          <mxGeometry relative="1" as="geometry" />
        </mxCell>
        <mxCell id="wu85P2VpSHijpUglrD6K-579" value="&lt;font style=&quot;font-size: 28px;&quot;&gt;&lt;font style=&quot;font-size: 28px;&quot;&gt;Low-Level Recommender&lt;/font&gt;&amp;nbsp;Prompt&lt;/font&gt;" style="text;html=1;align=center;verticalAlign=middle;whiteSpace=wrap;rounded=0;fontSize=13;" parent="1" vertex="1">
          <mxGeometry x="-5837" y="-1087.87" width="462" height="30" as="geometry" />
        </mxCell>
        <mxCell id="wu85P2VpSHijpUglrD6K-590" value="" style="rounded=1;whiteSpace=wrap;html=1;fillColor=none;fontSize=26;" parent="1" vertex="1">
          <mxGeometry x="-5825" y="-1035.87" width="810" height="130" as="geometry" />
        </mxCell>
        <mxCell id="wu85P2VpSHijpUglrD6K-591" value="&lt;p style=&quot;line-height: 140%;&quot;&gt;&lt;font style=&quot;font-size: 28px;&quot;&gt;&lt;span style=&quot;background-color: rgb(213, 232, 212);&quot;&gt;### Instruction: Based on students&#39;s learning history:&lt;/span&gt; [&lt;/font&gt;&lt;span style=&quot;background-color: rgb(153, 204, 255);&quot;&gt;&lt;span style=&quot;font-family: 宋体;&quot;&gt;&lt;font size=&quot;1&quot; style=&quot;&quot; face=&quot;Calibri&quot;&gt;&lt;b style=&quot;&quot;&gt;&lt;i style=&quot;font-size: 30px;&quot;&gt;ID&lt;/i&gt;&lt;/b&gt;&lt;/font&gt;&lt;/span&gt;&lt;sub style=&quot;&quot;&gt;&lt;span style=&quot;font-family: 宋体; vertical-align: sub;&quot;&gt;&lt;font style=&quot;font-size: 26px;&quot; face=&quot;Calibri&quot;&gt;learning history&lt;/font&gt;&lt;/span&gt;&lt;/sub&gt;&lt;/span&gt;&lt;font style=&quot;&quot;&gt;&lt;span style=&quot;font-size: 28px;&quot;&gt;],&amp;nbsp; &amp;nbsp;&lt;/span&gt;&lt;span style=&quot;font-size: 28px; background-color: rgb(213, 232, 212);&quot;&gt;learning targets:&lt;/span&gt; &lt;span style=&quot;font-size: 28px;&quot;&gt;[&amp;nbsp;&lt;/span&gt;&lt;span style=&quot;background-color: rgb(248, 206, 204);&quot;&gt;&lt;span style=&quot;font-family: 宋体;&quot;&gt;&lt;font size=&quot;1&quot; style=&quot;&quot; face=&quot;Calibri&quot;&gt;&lt;b style=&quot;&quot;&gt;&lt;i style=&quot;font-size: 31px;&quot;&gt;ID&lt;/i&gt;&lt;/b&gt;&lt;/font&gt;&lt;/span&gt;&lt;sub style=&quot;&quot;&gt;&lt;span style=&quot;font-family: 宋体; vertical-align: sub;&quot;&gt;&lt;font style=&quot;font-size: 25px;&quot; face=&quot;Calibri&quot;&gt;targets&lt;/font&gt;&lt;/span&gt;&lt;/sub&gt;&lt;/span&gt;&lt;span style=&quot;font-size: 28px;&quot;&gt;&amp;nbsp;] &lt;/span&gt;&lt;span style=&quot;font-size: 28px;&quot;&gt;&lt;span style=&quot;background-color: rgb(213, 232, 212);&quot;&gt;and questions:&lt;/span&gt; &lt;/span&gt;&lt;span style=&quot;font-size: 28px;&quot;&gt;[&lt;/span&gt;&lt;span style=&quot;font-family: 宋体;&quot;&gt;&lt;font size=&quot;1&quot; style=&quot;&quot; face=&quot;Calibri&quot;&gt;&lt;b style=&quot;&quot;&gt;&lt;i style=&quot;font-size: 30px;&quot;&gt;ID&lt;/i&gt;&lt;/b&gt;&lt;/font&gt;&lt;/span&gt;&lt;sub style=&quot;&quot;&gt;&lt;span style=&quot;font-family: 宋体; vertical-align: sub;&quot;&gt;&lt;font style=&quot;font-size: 24px;&quot; face=&quot;Calibri&quot;&gt;questions&lt;/font&gt;&lt;/span&gt;&lt;/sub&gt;&lt;span style=&quot;font-size: 28px;&quot;&gt;]&lt;/span&gt;&lt;span style=&quot;font-size: 28px;&quot;&gt;.&amp;nbsp; &amp;nbsp;&lt;/span&gt;&lt;/font&gt;&lt;span style=&quot;font-size: 28px; background-color: rgb(213, 232, 212);&quot;&gt;Predict the next question. ### Response:&lt;/span&gt;&lt;/p&gt;" style="text;html=1;align=left;verticalAlign=middle;whiteSpace=wrap;rounded=0;labelPosition=right;verticalLabelPosition=middle;fontSize=14;" parent="1" vertex="1">
          <mxGeometry x="-6610" y="-987.8699999999999" width="800" height="46" as="geometry" />
        </mxCell>
        <mxCell id="wu85P2VpSHijpUglrD6K-593" style="edgeStyle=orthogonalEdgeStyle;rounded=0;orthogonalLoop=1;jettySize=auto;html=1;exitX=0.531;exitY=0.007;exitDx=0;exitDy=0;exitPerimeter=0;" parent="1" source="wu85P2VpSHijpUglrD6K-590" edge="1">
          <mxGeometry relative="1" as="geometry">
            <mxPoint x="-5375" y="-1039.86" as="sourcePoint" />
            <mxPoint x="-5395" y="-1110.86" as="targetPoint" />
            <Array as="points" />
          </mxGeometry>
        </mxCell>
        <mxCell id="wu85P2VpSHijpUglrD6K-596" style="edgeStyle=orthogonalEdgeStyle;rounded=0;orthogonalLoop=1;jettySize=auto;html=1;exitX=0.875;exitY=0.5;exitDx=0;exitDy=0;exitPerimeter=0;" parent="1" edge="1">
          <mxGeometry relative="1" as="geometry">
            <mxPoint x="-5866.125" y="-1523.9099999999999" as="sourcePoint" />
            <mxPoint x="-5075" y="-927.9099999999999" as="targetPoint" />
            <Array as="points">
              <mxPoint x="-5835" y="-1523.9099999999999" />
              <mxPoint x="-5835" y="-877.9099999999999" />
              <mxPoint x="-5075" y="-877.9099999999999" />
            </Array>
          </mxGeometry>
        </mxCell>
      </root>
    </mxGraphModel>
  </diagram>
</mxfile>
